<?xml version="1.0" encoding="UTF-8" standalone="no"?>
<!-- Generator: Adobe Illustrator 24.3.0, SVG Export Plug-In . SVG Version: 6.00 Build 0)  -->

<svg
   xmlns:dc="http://purl.org/dc/elements/1.1/"
   xmlns:cc="http://creativecommons.org/ns#"
   xmlns:rdf="http://www.w3.org/1999/02/22-rdf-syntax-ns#"
   xmlns:svg="http://www.w3.org/2000/svg"
   xmlns="http://www.w3.org/2000/svg"
   xmlns:sodipodi="http://sodipodi.sourceforge.net/DTD/sodipodi-0.dtd"
   xmlns:inkscape="http://www.inkscape.org/namespaces/inkscape"
   version="1.1"
   x="0px"
   y="0px"
   viewBox="0 0 881.90662 791.79803"
   xml:space="preserve"
   id="svg2653"
   sodipodi:docname="ai-2.svg"
   inkscape:version="0.92.4 (5da689c313, 2019-01-14)"
   width="881.90662"
   height="791.79803"><metadata
   id="metadata2659"><rdf:RDF><cc:Work
       rdf:about=""><dc:format>image/svg+xml</dc:format><dc:type
         rdf:resource="http://purl.org/dc/dcmitype/StillImage" /><dc:title></dc:title></cc:Work></rdf:RDF></metadata><defs
   id="defs2657"><linearGradient
     id="linear-gradient"
     x1="444.48001"
     y1="538.89001"
     x2="444.48001"
     y2="207.99001"
     gradientUnits="userSpaceOnUse"><stop
       offset="0.25"
       stop-color="#14568a"
       id="stop4" /><stop
       offset="1"
       stop-color="#1b75bb"
       id="stop6" /></linearGradient><linearGradient
     id="linear-gradient-2"
     x1="446.87"
     y1="582.65997"
     x2="446.87"
     y2="375.13"
     gradientUnits="userSpaceOnUse"><stop
       offset="0"
       stop-color="#f0a915"
       id="stop9" /><stop
       offset="1"
       stop-color="#f7bb24"
       id="stop11" /></linearGradient><linearGradient
     id="linear-gradient-3"
     x1="0.56"
     y1="447.87"
     x2="461.04001"
     y2="447.87"
     gradientUnits="userSpaceOnUse"><stop
       offset="0"
       stop-color="#b3b3b3"
       id="stop14" /><stop
       offset="1"
       id="stop16" /></linearGradient><linearGradient
     id="linear-gradient-4"
     x1="59.740002"
     y1="445.44"
     x2="525.85999"
     y2="445.44"
     gradientUnits="userSpaceOnUse"><stop
       offset="0"
       id="stop19" /><stop
       offset="1"
       stop-color="#fff"
       id="stop21" /></linearGradient></defs><sodipodi:namedview
   pagecolor="#ffffff"
   bordercolor="#666666"
   borderopacity="1"
   objecttolerance="10"
   gridtolerance="10"
   guidetolerance="10"
   inkscape:pageopacity="0"
   inkscape:pageshadow="2"
   inkscape:window-width="1920"
   inkscape:window-height="1017"
   id="namedview2655"
   showgrid="false"
   inkscape:zoom="0.70799685"
   inkscape:cx="693.69121"
   inkscape:cy="366.09261"
   inkscape:window-x="1912"
   inkscape:window-y="-8"
   inkscape:window-maximized="1"
   inkscape:current-layer="svg2653" />
<style
   type="text/css"
   id="style2">
	.st0{fill:#74819A;}
	.st1{fill:#315D7E;}
	.st2{fill:#8D604D;}
	.st3{fill:#EFB35F;}
	.st4{fill:#4A9391;}
	.st5{fill:#7AB897;}
	.st6{fill:#3C8382;}
	.st7{fill:#997C75;}
	.st8{fill:#437C90;}
	.st9{fill:#F7E4C3;}
	.st10{fill:#D98D4E;}
	.st11{fill:#F7D792;}
	.st12{fill:#F7D283;}
	.st13{fill:#D7AC90;}
	.st14{fill:#667A93;}
	.st15{fill:#FFFFFF;}
	.st16{fill:#FCB216;}
	.st17{fill:#D89481;}
	.st18{fill:#AB6651;}
	.st19{fill:#3A2416;}
	.st20{fill:#996948;}
	.st21{fill:#0C858F;}
	.st22{fill:#E6E7E8;}
	.st23{fill:#00B1AF;}
	.st24{fill:#F7BB24;}
	.st25{opacity:0.3;}
	.st26{opacity:0.2;fill:#996948;}
	.st27{fill:#131A20;}
	.st28{fill:#606366;}
	.st29{fill:url(#SVGID_1_);}
	.st30{fill:#040506;}
	.st31{fill:#303335;}
	.st32{fill:#5A5A5A;}
	.st33{fill:#F7DD6B;}
	.st34{fill:#6D6E70;}
	.st35{fill:#DFE4E5;}
	.st36{fill:#EC1C24;}
	.st37{fill:#E1922B;}
	.st38{fill:#3B5C64;}
	.st39{fill:none;}
	.st40{fill:#E9D498;}
	.st41{fill:#DAE1EF;}
	.st42{fill:#898788;}
	.st43{fill:#161D2D;}
	.st44{fill:#B7C7E6;}
	.st45{fill:#616670;}
	.st46{fill:#464D5C;}
	.st47{display:none;}
	.st48{display:inline;fill:#D0CDE1;}
	.st49{display:inline;fill:#3F3D56;}
	.st50{display:inline;fill:#53D267;}
	.st51{display:inline;fill:#FFFFFF;}
	.st52{display:inline;fill:#FFB8B8;}
	.st53{display:inline;fill:#2F2E41;}
	.st54{display:inline;fill:#575A89;}
</style>



<g
   id="Layer_2"
   class="st47"
   style="display:none"
   transform="translate(84.222711,-3.4879779)">
	<rect
   x="25"
   y="173.60001"
   class="st48"
   width="114.5"
   height="101.7"
   id="rect2552"
   style="display:inline;fill:#d0cde1" />
	<rect
   x="25"
   y="356.60001"
   class="st48"
   width="114.5"
   height="101.7"
   id="rect2554"
   style="display:inline;fill:#d0cde1" />
	<rect
   x="393.10001"
   y="173.60001"
   class="st48"
   width="114.5"
   height="101.7"
   id="rect2556"
   style="display:inline;fill:#d0cde1" />
	<rect
   x="393.10001"
   y="356.60001"
   class="st48"
   width="114.5"
   height="101.7"
   id="rect2558"
   style="display:inline;fill:#d0cde1" />
	<rect
   x="210.39999"
   y="173.60001"
   class="st49"
   width="114.5"
   height="101.7"
   id="rect2560"
   style="display:inline;fill:#3f3d56" />
	<rect
   x="210.39999"
   y="356.60001"
   class="st49"
   width="114.5"
   height="101.7"
   id="rect2562"
   style="display:inline;fill:#3f3d56" />
	<path
   class="st50"
   d="m 305.1,266.1 -74,-1.7 c 8.9,-28.7 10.8,-56 1.8,-81.1 l 74,1.7 c -7.4,26.4 -8,54.4 -1.8,81.1 z"
   id="path2564"
   inkscape:connector-curvature="0"
   style="display:inline;fill:#53d267" />
	
		<rect
   x="268.79999"
   y="180.60001"
   transform="matrix(0.02270096,-0.9997,0.9997,0.02270096,63.8227,464.7898)"
   class="st51"
   width="1.8"
   height="38.299999"
   id="rect2566"
   style="display:inline;fill:#ffffff" />
	
		<rect
   x="268.60001"
   y="187.7"
   transform="matrix(0.0224011,-0.9997,0.9997,0.0224011,56.6204,471.6741)"
   class="st51"
   width="1.8"
   height="38.299999"
   id="rect2568"
   style="display:inline;fill:#ffffff" />
	
		<rect
   x="268.39999"
   y="194.8"
   transform="matrix(0.0224011,-0.9997,0.9997,0.0224011,49.3327,478.4847)"
   class="st51"
   width="1.8"
   height="38.299999"
   id="rect2570"
   style="display:inline;fill:#ffffff" />
	
		<rect
   x="268.29999"
   y="202"
   transform="matrix(0.02250106,-0.9997,0.9997,0.02250106,42.0092,485.232)"
   class="st51"
   width="1.8"
   height="38.299999"
   id="rect2572"
   style="display:inline;fill:#ffffff" />
	
		<rect
   x="268.10001"
   y="209.10001"
   transform="matrix(0.02270096,-0.9997,0.9997,0.02270096,34.6722,492.0263)"
   class="st51"
   width="1.8"
   height="38.299999"
   id="rect2574"
   style="display:inline;fill:#ffffff" />
	
		<rect
   x="267.89999"
   y="216.2"
   transform="matrix(0.02270096,-0.9997,0.9997,0.02270096,27.3825,498.8356)"
   class="st51"
   width="1.8"
   height="38.299999"
   id="rect2576"
   style="display:inline;fill:#ffffff" />
	
		<rect
   x="267.79999"
   y="223.39999"
   transform="matrix(0.02250106,-0.9997,0.9997,0.02250106,20.1466,505.6633)"
   class="st51"
   width="1.8"
   height="38.299999"
   id="rect2578"
   style="display:inline;fill:#ffffff" />
	
		<rect
   x="267.60001"
   y="230.5"
   transform="matrix(0.0224011,-0.9997,0.9997,0.0224011,12.8917,512.5433)"
   class="st51"
   width="1.8"
   height="38.299999"
   id="rect2580"
   style="display:inline;fill:#ffffff" />
	<circle
   class="st50"
   cx="326.39999"
   cy="166.8"
   r="21.5"
   id="circle2582"
   style="display:inline;fill:#53d267" />
	<polygon
   class="st51"
   points="318.7,166.3 325.5,174.5 337.2,157.2 338.6,158.2 325.6,177.3 317.5,167.3 "
   id="polygon2584"
   style="display:inline;fill:#ffffff" />
	<ellipse
   class="st48"
   cx="365.89999"
   cy="717.09998"
   rx="354.79999"
   ry="18.1"
   id="ellipse2586"
   style="display:inline;fill:#d0cde1" />
	<path
   class="st48"
   d="m 694.6,688.2 83.7,-124.5 -83.5,137.9 0.2,14 c -6.1,0 -12.2,-0.1 -18.2,-0.3 l 4.2,-180 -0.1,-1.4 0.2,-0.3 0.4,-17 -91.7,-133.1 91.5,120.3 0.3,3.6 3.1,-136 -79.2,-138 79.5,114.2 -0.8,-281.8 v -0.9 0.9 l 5.3,222.1 72.2,-90.2 -72,109.3 1.6,121.7 66.4,-118.7 -66.2,136.6 0.9,67.7 96.6,-165.4 -96.3,189 z"
   id="path2588"
   inkscape:connector-curvature="0"
   style="display:inline;fill:#d0cde1" />
	<path
   class="st50"
   d="m 319,604.3 -62.3,-40 c 22.5,-19.9 38.4,-42.2 43.8,-68.3 l 62.3,40 c -20.2,18.7 -35.2,42.2 -43.8,68.3 z"
   id="path2590"
   inkscape:connector-curvature="0"
   style="display:inline;fill:#53d267" />
	
		<rect
   x="322.29999"
   y="510"
   transform="matrix(0.5401,-0.8416,0.8416,0.5401,-296.7019,515.404)"
   class="st51"
   width="1.8"
   height="38.299999"
   id="rect2592"
   style="display:inline;fill:#ffffff" />
	
		<rect
   x="318.5"
   y="516"
   transform="matrix(0.5406,-0.8413,0.8413,0.5406,-303.4917,514.5339)"
   class="st51"
   width="1.8"
   height="38.299999"
   id="rect2594"
   style="display:inline;fill:#ffffff" />
	
		<rect
   x="314.60001"
   y="522"
   transform="matrix(0.5401,-0.8416,0.8416,0.5401,-310.3504,514.438)"
   class="st51"
   width="1.8"
   height="38.299999"
   id="rect2596"
   style="display:inline;fill:#ffffff" />
	
		<rect
   x="310.79999"
   y="528"
   transform="matrix(0.5401,-0.8416,0.8416,0.5401,-317.1757,513.9557)"
   class="st51"
   width="1.8"
   height="38.299999"
   id="rect2598"
   style="display:inline;fill:#ffffff" />
	
		<rect
   x="307"
   y="534"
   transform="matrix(0.5403,-0.8415,0.8415,0.5403,-323.95,513.3168)"
   class="st51"
   width="1.8"
   height="38.299999"
   id="rect2600"
   style="display:inline;fill:#ffffff" />
	
		<rect
   x="303.10001"
   y="540"
   transform="matrix(0.5401,-0.8416,0.8416,0.5401,-330.8268,512.9901)"
   class="st51"
   width="1.8"
   height="38.299999"
   id="rect2602"
   style="display:inline;fill:#ffffff" />
	
		<rect
   x="299.20001"
   y="546"
   transform="matrix(0.5399,-0.8417,0.8417,0.5399,-337.6196,512.6434)"
   class="st51"
   width="1.8"
   height="38.299999"
   id="rect2604"
   style="display:inline;fill:#ffffff" />
	
		<rect
   x="295.39999"
   y="552"
   transform="matrix(0.5406,-0.8413,0.8413,0.5406,-344.3978,511.6393)"
   class="st51"
   width="1.8"
   height="38.299999"
   id="rect2606"
   style="display:inline;fill:#ffffff" />
	<path
   class="st50"
   d="M 186.5,729.2 202.1,699 c 28.7,4.7 33.8,3.8 58.9,0.5 l 6.7,32.7 c -26.9,-4 -54.1,-5.1 -81.2,-3 z"
   id="path2608"
   inkscape:connector-curvature="0"
   style="display:inline;fill:#53d267" />
	<polygon
   class="st51"
   points="252.7,706.8 253.2,723.8 251.4,723.7 250.9,706.8 "
   id="polygon2610"
   style="display:inline;fill:#ffffff" />
	<polygon
   class="st51"
   points="245.6,706.6 246.1,723.5 244.3,723.5 243.8,706.5 "
   id="polygon2612"
   style="display:inline;fill:#ffffff" />
	<polygon
   class="st51"
   points="238.4,706.3 238.9,723.3 237.2,723.2 236.7,706.2 "
   id="polygon2614"
   style="display:inline;fill:#ffffff" />
	
		<rect
   x="222.7"
   y="713.59998"
   transform="matrix(0.0378993,-0.9993,0.9993,0.0378993,-491.4987,918.4418)"
   class="st51"
   width="17"
   height="1.8"
   id="rect2616"
   style="display:inline;fill:#ffffff" />
	
		<rect
   x="215.60001"
   y="713.40002"
   transform="matrix(0.03779944,-0.9993,0.9993,0.03779944,-498.0977,911.194)"
   class="st51"
   width="17"
   height="1.8"
   id="rect2618"
   style="display:inline;fill:#ffffff" />
	<polygon
   class="st51"
   points="219.3,705.5 217.5,722.5 215.8,722.4 217.5,705.4 "
   id="polygon2620"
   style="display:inline;fill:#ffffff" />
	<polygon
   class="st51"
   points="212.2,705.2 210.4,722.2 208.6,722.1 210.4,705.2 "
   id="polygon2622"
   style="display:inline;fill:#ffffff" />
	<polygon
   class="st51"
   points="205.1,705 203.3,721.9 201.5,721.8 203.3,704.9 "
   id="polygon2624"
   style="display:inline;fill:#ffffff" />
	<path
   class="st52"
   d="m 298.7,466.8 1.1,11.3 c 0,0 -9,32.8 4.5,30.5 13.6,-2.3 9,-30.5 9,-30.5 l -2.3,-9 z"
   id="path2626"
   inkscape:connector-curvature="0"
   style="display:inline;fill:#ffb8b8" />
	<path
   class="st52"
   d="m 443.3,467.9 -1.1,11.3 c 0,0 9,32.8 -4.5,30.5 -13.6,-2.3 -9,-30.5 -9,-30.5 l 2.3,-9 z"
   id="path2628"
   inkscape:connector-curvature="0"
   style="display:inline;fill:#ffb8b8" />
	<polygon
   class="st52"
   points="351.2,702.4 347.8,678.7 330.9,680.9 327.5,704.7 "
   id="polygon2630"
   style="display:inline;fill:#ffb8b8" />
	<polygon
   class="st52"
   points="436,702.4 439.4,678.7 456.3,680.9 459.7,704.7 "
   id="polygon2632"
   style="display:inline;fill:#ffb8b8" />
	<path
   class="st53"
   d="m 326.9,455.5 c 0,0 -5.6,2.3 0,88.1 l 2.3,140.1 h 22.6 l 9,-124.3 12.4,-75.7 35,98.3 28.2,105.1 L 459,681.5 429.8,547 c 0,0 5.6,-78 -14.7,-91.5 -20.4,-13.6 -88.2,0 -88.2,0 z"
   id="path2634"
   inkscape:connector-curvature="0"
   style="display:inline;fill:#2f2e41" />
	<path
   class="st53"
   d="m 332.6,697.3 c 0,0 -0.5,-10.3 -2.5,-10.8 -2,-0.5 -16.7,11.9 -16.7,11.9 0,0 -15.8,-2.3 -14.7,14.7 1.1,16.9 23.7,11.3 23.7,11.3 0,0 4.5,10.2 13.6,10.2 9.1,0 22.6,0 23.7,-6.8 1.1,-6.8 -5.6,-37.3 -7.9,-36.2 -2.3,1.1 -7.9,0 -7.9,0 z"
   id="path2636"
   inkscape:connector-curvature="0"
   style="display:inline;fill:#2f2e41" />
	<path
   class="st53"
   d="m 454.6,697.3 c 0,0 0.5,-10.3 2.5,-10.8 2,-0.5 16.7,11.9 16.7,11.9 0,0 15.8,-2.3 14.7,14.7 -1.1,16.9 -23.7,11.3 -23.7,11.3 0,0 -4.5,10.2 -13.6,10.2 -9,0 -22.6,0 -23.7,-6.8 -1.1,-6.8 5.6,-37.3 7.9,-36.2 2.3,1.1 7.9,0 7.9,0 z"
   id="path2638"
   inkscape:connector-curvature="0"
   style="display:inline;fill:#2f2e41" />
	<circle
   class="st52"
   cx="371"
   cy="262.29999"
   r="21.5"
   id="circle2640"
   style="display:inline;fill:#ffb8b8" />
	<path
   class="st52"
   d="m 385.7,265.7 c 0,0 1.1,30.5 6.8,33.9 5.7,3.4 -33.9,0 -33.9,0 l 4.5,-26 z"
   id="path2642"
   inkscape:connector-curvature="0"
   style="display:inline;fill:#ffb8b8" />
	<path
   class="st54"
   d="m 394.7,296.2 c 0,0 -20.3,-10.2 -39.5,-3.4 -19.2,6.8 -29.4,14.7 -29.4,14.7 l 12.4,65.5 c 0,0 -23.7,85.9 -17,88.1 6.8,2.3 87,-6.8 94.9,0 7.9,6.8 7.9,-7.9 7.9,-7.9 0,0 -11.3,-28.2 -9,-52 2.3,-23.7 2.3,-31.6 2.3,-31.6 l 12.4,-53.1 z"
   id="path2644"
   inkscape:connector-curvature="0"
   style="display:inline;fill:#575a89" />
	<path
   class="st54"
   d="m 333.7,307.5 h -7.9 c 0,0 -12.4,7.9 -12.4,19.2 0,11.3 -11.3,73.4 -11.3,73.4 l -6.8,70.1 19.2,3.4 16.9,-92.7 12.4,-24.9 z"
   id="path2646"
   inkscape:connector-curvature="0"
   style="display:inline;fill:#575a89" />
	<path
   class="st54"
   d="m 408.3,316.5 h 21.5 c 0,0 6.8,6.8 10.2,22.6 3.4,15.8 6.8,78 6.8,78 l -2.3,56.5 h -17 l -2.3,-73.4 -11.3,-47.5 z"
   id="path2648"
   inkscape:connector-curvature="0"
   style="display:inline;fill:#575a89" />
	<path
   class="st53"
   d="m 352.7,260.8 4.5,11.6 c 1.9,4.8 4,9.8 8.4,12.5 5.4,3.3 12.6,1.7 17.8,-1.9 12.7,-8.6 16,-25.9 7.3,-38.6 -4.6,-6.7 -11.8,-11.1 -19.8,-12 l -0.2,3.9 -4.8,-4 c -1.3,2.2 -4.1,3 -6.3,1.7 -0.3,-0.2 -0.6,-0.4 -0.9,-0.7 1.3,2.6 -0.2,5.8 -2.3,7.8 -2.6,2.4 -9.9,5.4 -9.6,9.8 0.3,2.9 4.7,6.9 5.9,9.9 z"
   id="path2650"
   inkscape:connector-curvature="0"
   style="display:inline;fill:#2f2e41" />
</g>
<g
   data-name="Layer 1"
   id="Layer_1-2"
   transform="scale(1.355424)"><rect
     style="fill:#fdfdfd"
     y="0"
     id="rect26"
     height="362.89999"
     width="524.90997"
     x="1"
     class="cls-1" /><rect
     style="fill:#c9dcf1"
     y="0"
     id="rect28"
     height="30.559999"
     width="524.90997"
     x="1"
     class="cls-2" /><circle
     style="fill:#fafafa"
     id="circle30"
     r="3.79"
     cy="15.7"
     cx="16.84"
     class="cls-3" /><circle
     style="fill:#fafafa"
     id="circle32"
     r="3.79"
     cy="15.7"
     cx="30.620001"
     class="cls-3" /><circle
     style="fill:#fafafa"
     id="circle34"
     r="3.79"
     cy="15.7"
     cx="44.400002"
     class="cls-3" /><rect
     style="fill:#d0d0d0"
     x="0"
     id="rect36"
     height="290.57001"
     width="24.35"
     y="72.330002"
     class="cls-4" /><rect
     style="fill:#cfcfcf"
     x="0"
     id="rect38"
     height="24.35"
     width="525.60999"
     y="72.330002"
     class="cls-5" /><path
     style="fill:#e1e1e1"
     inkscape:connector-curvature="0"
     id="path40-5"
     d="m 24.35,347.32 c -0.25,0 -0.45,-61.56 -0.45,-137.49 0,-75.93 0.2,-137.5 0.45,-137.5 0.25,0 0.45,61.55 0.45,137.5 0,75.95 -0.21,137.49 -0.45,137.49 z"
     class="cls-6" /><path
     style="fill:#e1e1e1"
     inkscape:connector-curvature="0"
     id="path42-8"
     d="m 120.06,362.9 c -0.25,0 -0.45,-65 -0.45,-145.28 0,-80.28 0.2,-145.29 0.45,-145.29 0.25,0 0.45,65 0.45,145.29 0,80.29 -0.2,145.28 -0.45,145.28 z"
     class="cls-6" /><path
     style="fill:#e1e1e1"
     inkscape:connector-curvature="0"
     id="path44-2"
     d="m 221.59,362.9 c -0.25,0 -0.45,-64.83 -0.45,-144.8 0,-79.97 0.2,-144.81 0.45,-144.81 0.25,0 0.45,64.82 0.45,144.81 0,79.99 -0.2,144.8 -0.45,144.8 z"
     class="cls-6" /><path
     style="fill:#e1e1e1"
     inkscape:connector-curvature="0"
     id="path46-3"
     d="m 320.71,362.9 c -0.24,0 -0.45,-64.83 -0.45,-144.8 0,-79.97 0.21,-144.81 0.45,-144.81 0.24,0 0.45,64.82 0.45,144.81 0,79.99 -0.16,144.8 -0.45,144.8 z"
     class="cls-6" /><path
     style="fill:#e1e1e1"
     inkscape:connector-curvature="0"
     id="path48-4"
     d="m 422.18,362.9 c -0.25,0 -0.45,-65 -0.45,-145.28 0,-80.28 0.2,-145.29 0.45,-145.29 0.25,0 0.45,65 0.45,145.29 0,80.29 -0.21,145.28 -0.45,145.28 z"
     class="cls-6" /><path
     style="fill:#e1e1e1"
     inkscape:connector-curvature="0"
     id="path50-8"
     d="m 521.93,118.88 c 0,0.25 -4.79,0.45 -188.75,0.45 C 149.22,119.33 0,119.13 0,118.88 c 0,-0.25 149.13,-0.45 333.16,-0.45 184.03,0 188.77,0.2 188.77,0.45 z"
     class="cls-6" /><path
     style="fill:#e1e1e1"
     inkscape:connector-curvature="0"
     id="path52-8"
     d="m 521.93,96.68 c 0,0.25 -4.79,0.45 -188.75,0.45 C 149.22,97.13 0,96.93 0,96.68 c 0,-0.25 149.13,-0.45 333.16,-0.45 184.03,0 188.77,0.2 188.77,0.45 z"
     class="cls-6" /><path
     style="fill:#e1e1e1"
     inkscape:connector-curvature="0"
     id="path54-6"
     d="m 521.93,142.27 c 0,0.25 -4.79,0.45 -188.75,0.45 C 149.22,142.72 0,142.52 0,142.27 c 0,-0.25 149.13,-0.45 333.16,-0.45 184.03,0 188.77,0.18 188.77,0.45 z"
     class="cls-6" /><path
     style="fill:#e1e1e1"
     inkscape:connector-curvature="0"
     id="path56-0"
     d="m 521.93,165.66 c 0,0.25 -4.79,0.45 -188.75,0.45 C 149.22,166.11 0,165.91 0,165.66 c 0,-0.25 149.13,-0.45 333.16,-0.45 184.03,0 188.77,0.2 188.77,0.45 z"
     class="cls-6" /><path
     style="fill:#e1e1e1"
     inkscape:connector-curvature="0"
     id="path58-7"
     d="m 521.93,189 c 0,0.25 -4.79,0.45 -188.75,0.45 C 149.22,189.45 0,189.29 0,189 c 0,-0.29 149.13,-0.45 333.16,-0.45 184.03,0 188.77,0.25 188.77,0.45 z"
     class="cls-6" /><path
     style="fill:#e1e1e1"
     inkscape:connector-curvature="0"
     id="path60-6"
     d="m 521.93,212.43 c 0,0.25 -4.79,0.45 -188.75,0.45 C 149.22,212.88 0,212.68 0,212.43 0,212.18 149.15,212 333.18,212 c 184.03,0 188.75,0.18 188.75,0.43 z"
     class="cls-6" /><path
     style="fill:#e1e1e1"
     inkscape:connector-curvature="0"
     id="path62-8"
     d="m 521.93,235.82 c 0,0.25 -4.79,0.45 -188.75,0.45 C 149.22,236.27 0,236.07 0,235.82 c 0,-0.25 149.13,-0.45 333.16,-0.45 184.03,0 188.77,0.2 188.77,0.45 z"
     class="cls-6" /><path
     style="fill:#e1e1e1"
     inkscape:connector-curvature="0"
     id="path64-0"
     d="m 521.93,259.21 c 0,0.25 -4.79,0.45 -188.75,0.45 C 149.22,259.66 0,259.46 0,259.21 c 0,-0.25 149.13,-0.45 333.16,-0.45 184.03,0 188.77,0.24 188.77,0.45 z"
     class="cls-6" /><path
     style="fill:#e1e1e1"
     inkscape:connector-curvature="0"
     id="path66-1"
     d="m 521.93,282.59 c 0,0.25 -4.79,0.45 -188.75,0.45 C 149.22,283.04 0,282.84 0,282.59 c 0,-0.25 149.13,-0.45 333.16,-0.45 184.03,0 188.77,0.21 188.77,0.45 z"
     class="cls-6" /><path
     style="fill:#e1e1e1"
     inkscape:connector-curvature="0"
     id="path68-2"
     d="m 521.93,306 c 0,0.25 -4.79,0.45 -188.75,0.45 C 149.22,306.45 0,306.23 0,306 c 0,-0.23 149.13,-0.45 333.16,-0.45 184.03,0 188.77,0.18 188.77,0.45 z"
     class="cls-6" /><path
     style="fill:#e1e1e1"
     inkscape:connector-curvature="0"
     id="path70-1"
     d="m 521.93,329.37 c 0,0.25 -4.79,0.45 -188.75,0.45 C 149.22,329.82 0,329.62 0,329.37 c 0,-0.25 149.13,-0.45 333.16,-0.45 184.03,0 188.77,0.2 188.77,0.45 z"
     class="cls-6" /><path
     style="fill:#e1e1e1"
     inkscape:connector-curvature="0"
     id="path72-8"
     d="m 521.93,352.76 c 0,0.25 -4.79,0.45 -188.75,0.45 C 149.22,353.21 0,353 0,352.76 c 0,-0.24 149.13,-0.45 333.16,-0.45 184.03,0 188.77,0.2 188.77,0.45 z"
     class="cls-6" /><rect
     style="fill:#c0dfff"
     id="rect74"
     height="21.75"
     width="501.26999"
     y="96.68"
     x="24.35"
     class="cls-7" /><rect
     style="fill:#ffc9cc"
     id="rect76"
     height="23.389999"
     width="100.33"
     y="165.66"
     x="220.39"
     class="cls-8" /><path
     style="fill:#e1e1e1"
     inkscape:connector-curvature="0"
     id="path78-3"
     d="m 221.59,283.45 c -0.25,0 -0.45,-21.33 -0.45,-47.63 0,-26.3 0.2,-47.63 0.45,-47.63 0.25,0 0.45,21.32 0.45,47.63 0,26.31 -0.2,47.63 -0.45,47.63 z"
     class="cls-6" /><rect
     style="fill:#f6f6f6"
     id="rect80"
     height="14.39"
     width="14.39"
     y="45.34"
     x="505.81"
     class="cls-9" /><rect
     style="fill:#f6f6f6"
     id="rect82"
     transform="rotate(180,489.625,52.54)"
     height="14.39"
     width="14.39"
     y="45.34"
     x="482.42999"
     class="cls-9" /><rect
     style="fill:#f6f6f6"
     id="rect84"
     height="14.39"
     width="14.39"
     y="45.34"
     x="459.04999"
     class="cls-9" /><rect
     style="fill:#f6f6f6"
     id="rect86"
     height="14.39"
     width="14.39"
     y="45.34"
     x="435.67001"
     class="cls-9" /><rect
     style="fill:#f6f6f6"
     id="rect88"
     height="14.69"
     width="188.5"
     y="45.200001"
     x="238.85001"
     class="cls-9" /><text
     style="font-size:11.14000034px;font-family:MyriadPro-Regular, 'Myriad Pro';fill:#fafafa"
     id="text98"
     transform="translate(40.62,88.95)"
     class="cls-10"><tspan
       style="letter-spacing:-0.01em"
       id="tspan90"
       class="cls-11">L</tspan><tspan
       id="tspan92"
       y="0"
       x="5.0999999">o</tspan><tspan
       style="letter-spacing:-0.01em"
       id="tspan94"
       y="0"
       x="11.22"
       class="cls-12">r</tspan><tspan
       id="tspan96"
       y="0"
       x="14.75">em ipsum</tspan></text>
<text
     style="font-size:11.14000034px;font-family:MyriadPro-Regular, 'Myriad Pro';fill:#cfcfcf"
     id="text108"
     transform="translate(40.62,135.92)"
     class="cls-13"><tspan
       style="letter-spacing:-0.01em"
       id="tspan100"
       class="cls-11">L</tspan><tspan
       id="tspan102"
       y="0"
       x="5.0999999">o</tspan><tspan
       style="letter-spacing:-0.01em"
       id="tspan104"
       y="0"
       x="11.22"
       class="cls-12">r</tspan><tspan
       id="tspan106"
       y="0"
       x="14.75">em ipsum</tspan></text>
<text
     style="font-size:11.14000034px;font-family:MyriadPro-Regular, 'Myriad Pro';fill:#cfcfcf"
     id="text110"
     transform="translate(163.61,135.92)"
     class="cls-13">10</text>
<text
     style="font-size:11.14000034px;font-family:MyriadPro-Regular, 'Myriad Pro';fill:#cfcfcf"
     id="text112"
     transform="translate(163.61,159.78)"
     class="cls-13">52</text>
<text
     style="font-size:11.14000034px;font-family:MyriadPro-Regular, 'Myriad Pro';fill:#cfcfcf"
     id="text114"
     transform="translate(163.61,183.65)"
     class="cls-13">38</text>
<text
     style="font-size:11.14000034px;font-family:MyriadPro-Regular, 'Myriad Pro';fill:#cfcfcf"
     id="text116"
     transform="translate(163.61,207.51)"
     class="cls-13">101</text>
<text
     style="font-size:11.14000034px;font-family:MyriadPro-Regular, 'Myriad Pro';fill:#cfcfcf"
     id="text118"
     transform="translate(163.61,231.38)"
     class="cls-13">25</text>
<text
     style="font-size:11.14000034px;font-family:MyriadPro-Regular, 'Myriad Pro';fill:#cfcfcf"
     id="text120"
     transform="translate(163.61,255.24)"
     class="cls-13">66</text>
<text
     style="font-size:11.14000034px;font-family:MyriadPro-Regular, 'Myriad Pro';fill:#cfcfcf"
     id="text122"
     transform="translate(163.61,279.1)"
     class="cls-13">43</text>
<text
     style="font-size:11.14000034px;font-family:MyriadPro-Regular, 'Myriad Pro';fill:#cfcfcf"
     id="text124"
     transform="translate(163.61,302.97)"
     class="cls-13">97</text>
<text
     style="font-size:11.14000034px;font-family:MyriadPro-Regular, 'Myriad Pro';fill:#cfcfcf"
     id="text134"
     transform="translate(40.62,159.78)"
     class="cls-13"><tspan
       style="letter-spacing:-0.01em"
       id="tspan126"
       class="cls-11">L</tspan><tspan
       id="tspan128"
       y="0"
       x="5.0999999">o</tspan><tspan
       style="letter-spacing:-0.01em"
       id="tspan130"
       y="0"
       x="11.22"
       class="cls-12">r</tspan><tspan
       id="tspan132"
       y="0"
       x="14.75">em ipsum</tspan></text>
<text
     style="font-size:11.14000034px;font-family:MyriadPro-Regular, 'Myriad Pro';fill:#cfcfcf"
     id="text144"
     transform="translate(40.62,183.65)"
     class="cls-13"><tspan
       style="letter-spacing:-0.01em"
       id="tspan136"
       class="cls-11">L</tspan><tspan
       id="tspan138"
       y="0"
       x="5.0999999">o</tspan><tspan
       style="letter-spacing:-0.01em"
       id="tspan140"
       y="0"
       x="11.22"
       class="cls-12">r</tspan><tspan
       id="tspan142"
       y="0"
       x="14.75">em ipsum</tspan></text>
<text
     style="font-size:11.14000034px;font-family:MyriadPro-Regular, 'Myriad Pro';fill:#cfcfcf"
     id="text154"
     transform="translate(40.62,207.51)"
     class="cls-13"><tspan
       style="letter-spacing:-0.01em"
       id="tspan146"
       class="cls-11">L</tspan><tspan
       id="tspan148"
       y="0"
       x="5.0999999">o</tspan><tspan
       style="letter-spacing:-0.01em"
       id="tspan150"
       y="0"
       x="11.22"
       class="cls-12">r</tspan><tspan
       id="tspan152"
       y="0"
       x="14.75">em ipsum</tspan></text>
<text
     style="font-size:11.14000034px;font-family:MyriadPro-Regular, 'Myriad Pro';fill:#cfcfcf"
     id="text164"
     transform="translate(40.62,231.38)"
     class="cls-13"><tspan
       style="letter-spacing:-0.01em"
       id="tspan156"
       class="cls-11">L</tspan><tspan
       id="tspan158"
       y="0"
       x="5.0999999">o</tspan><tspan
       style="letter-spacing:-0.01em"
       id="tspan160"
       y="0"
       x="11.22"
       class="cls-12">r</tspan><tspan
       id="tspan162"
       y="0"
       x="14.75">em ipsum</tspan></text>
<text
     style="font-size:11.14000034px;font-family:MyriadPro-Regular, 'Myriad Pro';fill:#cfcfcf"
     id="text174"
     transform="translate(40.62,255.24)"
     class="cls-13"><tspan
       style="letter-spacing:-0.01em"
       id="tspan166"
       class="cls-11">L</tspan><tspan
       id="tspan168"
       y="0"
       x="5.0999999">o</tspan><tspan
       style="letter-spacing:-0.01em"
       id="tspan170"
       y="0"
       x="11.22"
       class="cls-12">r</tspan><tspan
       id="tspan172"
       y="0"
       x="14.75">em ipsum</tspan></text>
<text
     style="font-size:11.14000034px;font-family:MyriadPro-Regular, 'Myriad Pro';fill:#cfcfcf"
     id="text184"
     transform="translate(40.62,279.1)"
     class="cls-13"><tspan
       style="letter-spacing:-0.01em"
       id="tspan176"
       class="cls-11">L</tspan><tspan
       id="tspan178"
       y="0"
       x="5.0999999">o</tspan><tspan
       style="letter-spacing:-0.01em"
       id="tspan180"
       y="0"
       x="11.22"
       class="cls-12">r</tspan><tspan
       id="tspan182"
       y="0"
       x="14.75">em ipsum</tspan></text>
<text
     style="font-size:11.14000034px;font-family:MyriadPro-Regular, 'Myriad Pro';fill:#cfcfcf"
     id="text194"
     transform="translate(40.62,302.97)"
     class="cls-13"><tspan
       style="letter-spacing:-0.01em"
       id="tspan186"
       class="cls-11">L</tspan><tspan
       id="tspan188"
       y="0"
       x="5.0999999">o</tspan><tspan
       style="letter-spacing:-0.01em"
       id="tspan190"
       y="0"
       x="11.22"
       class="cls-12">r</tspan><tspan
       id="tspan192"
       y="0"
       x="14.75">em ipsum</tspan></text>
<text
     style="font-size:11.14000034px;font-family:MyriadPro-Regular, 'Myriad Pro';fill:#fafafa"
     id="text204"
     transform="translate(140.71,88.95)"
     class="cls-10"><tspan
       style="letter-spacing:-0.01em"
       id="tspan196"
       class="cls-14">L</tspan><tspan
       id="tspan198"
       y="0"
       x="5.0999999">o</tspan><tspan
       style="letter-spacing:-0.01em"
       id="tspan200"
       y="0"
       x="11.22"
       class="cls-12">r</tspan><tspan
       id="tspan202"
       y="0"
       x="14.75">em ipsum</tspan></text>
<text
     style="font-size:11.14000034px;font-family:MyriadPro-Regular, 'Myriad Pro';fill:#fafafa"
     id="text214"
     transform="translate(240.8,88.95)"
     class="cls-10"><tspan
       style="letter-spacing:-0.01em"
       id="tspan206"
       class="cls-14">L</tspan><tspan
       id="tspan208"
       y="0"
       x="5.0999999">o</tspan><tspan
       style="letter-spacing:-0.01em"
       id="tspan210"
       y="0"
       x="11.22"
       class="cls-12">r</tspan><tspan
       id="tspan212"
       y="0"
       x="14.75">em ipsum</tspan></text>
<text
     style="font-size:11.14000034px;font-family:MyriadPro-Regular, 'Myriad Pro';fill:#fafafa"
     id="text224"
     transform="translate(340.9,88.95)"
     class="cls-10"><tspan
       style="letter-spacing:-0.01em"
       id="tspan216"
       class="cls-14">L</tspan><tspan
       id="tspan218"
       y="0"
       x="5.0999999">o</tspan><tspan
       style="letter-spacing:-0.01em"
       id="tspan220"
       y="0"
       x="11.22"
       class="cls-12">r</tspan><tspan
       id="tspan222"
       y="0"
       x="14.75">em ipsum</tspan></text>
<text
     style="font-size:11.14000034px;font-family:MyriadPro-Regular, 'Myriad Pro';fill:#cfcfcf"
     id="text226"
     transform="translate(296.03,56.77)"
     class="cls-13">000169872432</text>
<text
     style="font-size:11.14000034px;font-family:MyriadPro-Regular, 'Myriad Pro';fill:#fafafa"
     id="text236"
     transform="translate(440.99,88.95)"
     class="cls-10"><tspan
       style="letter-spacing:-0.01em"
       id="tspan228"
       class="cls-14">L</tspan><tspan
       id="tspan230"
       y="0"
       x="5.0999999">o</tspan><tspan
       style="letter-spacing:-0.01em"
       id="tspan232"
       y="0"
       x="11.22"
       class="cls-12">r</tspan><tspan
       id="tspan234"
       y="0"
       x="14.75">em ipsum</tspan></text>
<path
     style="fill:#b1b1b1"
     inkscape:connector-curvature="0"
     id="path238-0"
     d="m 45.82,44 a 1,1 0 1 1 0,1.35 1,1 0 0 1 0,-1.35 z"
     class="cls-15" /><path
     style="fill:#b1b1b1"
     inkscape:connector-curvature="0"
     id="path240-8"
     d="m 30.27,61.85 7.73,-7.68 6.18,6.18 a 2.28,2.28 0 1 0 0.93,-0.93 L 38.93,53.24 38,52.31 29.38,60.92 25.12,56.7 29.28,41.18 44.8,37 l 1,1 -13.72,13.67 a 2.25,2.25 0 1 0 0.94,0.93 L 46.7,38.92 56.16,48.38 52.91,60.51 42.27,49.86 45.43,46.7 A 2.27,2.27 0 1 0 44.5,45.77 L 40.41,49.86 52.52,62 52,63.9 36.48,68.06 Z"
     class="cls-15" /><path
     style="fill:#b1b1b1"
     inkscape:connector-curvature="0"
     id="path242-9"
     d="m 46.81,62.09 a 1,1 0 0 1 -1.34,0 1,1 0 0 1 0,-1.35 1,1 0 0 1 1.34,1.35 z"
     class="cls-15" /><path
     style="fill:#b1b1b1"
     inkscape:connector-curvature="0"
     id="path244-9"
     d="m 31.69,54.34 a 1,1 0 1 1 0,-1.35 1,1 0 0 1 0,1.35 z"
     class="cls-15" /><path
     style="fill:none"
     inkscape:connector-curvature="0"
     id="path246-5"
     d="m 615.66,225.63 -93.95,-54.24 -26,-15 -3.46,-2 -1.31,-0.75 -7.32,-4.23 -0.34,-0.19 -0.12,-0.07 -7.36,-4.25 v 0 l -2.47,-1.43 v 0 l -1.17,-0.68 c -0.59,-0.34 -1.18,-0.66 -1.78,-1 a 55.36,55.36 0 0 0 -25.85,-6.4 c -0.52,0 -1.05,0 -1.57,0 a 55.7,55.7 0 0 0 -10.63,1.33 l -1.21,0.28 v 0 c -1,0.26 -2,0.54 -3.05,0.86 -1.05,0.32 -2.25,0.74 -3.36,1.16 a 54.49,54.49 0 0 0 -7.83,3.73 l -8.47,4.89 -8.21,4.74 -2.56,1.47 v 0 l -0.89,0.51 -1.49,0.86 -24.47,14.13 -0.42,0.24 -1.27,0.73 -93.9,54.22 -1.85,1.07 v 0 a 54.42,54.42 0 0 0 -8.31,5.89 1.45,1.45 0 0 0 -0.19,0.17 c -0.19,0.15 -0.38,0.32 -0.57,0.49 a 54.34,54.34 0 0 0 -6.08,6.34 55.29,55.29 0 0 0 -7,11.14 c -0.14,0.27 -0.27,0.55 -0.4,0.83 -0.13,0.28 -0.31,0.7 -0.46,1.06 a 54.92,54.92 0 0 0 -4.53,19.7 c 0,0.24 0,0.47 0,0.71 v 0 c 0,0.51 0,1 0,1.54 v 165.78 a 55.4,55.4 0 0 0 27.65,47.88 l 1.07,0.61 v 0 l 17.45,10.08 52.83,30.5 6,3.48 2.86,1.65 2,1.16 15.63,9 1.95,1.12 11,6.35 7.36,4.25 v 0 l 4.57,2.64 h 0.05 l 4.45,2.57 6,3.49 10.21,5.9 a 54.84,54.84 0 0 0 10.27,4.58 l 0.38,0.12 v 0 l 0.92,0.29 c 0.61,0.19 1.23,0.37 1.85,0.53 l 0.64,0.17 0.83,0.2 c 0.22,0.06 0.44,0.1 0.66,0.15 0.72,0.17 1.45,0.31 2.17,0.44 l 0.55,0.11 v 0 l 0.4,0.06 a 4.29,4.29 0 0 0 0.5,0.07 c 0.24,0 0.48,0.08 0.72,0.11 L 438,577 h 0.26 l 0.7,0.07 0.85,0.08 1.5,0.11 h 0.34 0.6 0.85 3 1 c 1.3,-0.06 2.6,-0.17 3.89,-0.33 0.53,-0.06 1.05,-0.13 1.58,-0.21 0.31,0 0.63,-0.09 0.93,-0.15 h 0.31 l 0.3,-0.06 c 0.6,-0.1 1.2,-0.22 1.8,-0.34 l 0.79,-0.18 c 0.63,-0.14 1.27,-0.29 1.9,-0.46 l 0.95,-0.26 c 0.63,-0.18 1.25,-0.37 1.87,-0.57 h 0.05 l 0.69,-0.23 0.73,-0.25 c 0.35,-0.12 0.71,-0.24 1.06,-0.38 l 0.37,-0.13 1.22,-0.49 h 0.09 l 1.2,-0.52 c 0.49,-0.21 1,-0.44 1.47,-0.67 l 1.23,-0.61 1,-0.5 c 0,0 0,0 0,0 l 0.54,-0.28 1.05,-0.59 9.9,-5.73 10.74,-6.2 h 0.06 l 27.55,-15.9 0.3,-0.18 2.73,-1.58 10.77,-6.22 v 0 l 5,-2.89 6.12,-3.53 1.59,-0.92 52.73,-30.44 v 0 l 16,-9.25 a 55.46,55.46 0 0 0 27.65,-47.88 V 273.51 a 55.42,55.42 0 0 0 -27.6,-47.88 z"
     class="cls-16" /><path
     style="fill:none"
     inkscape:connector-curvature="0"
     id="path248-7"
     d="m 615.66,225.63 -93.95,-54.24 -26,-15 -3.46,-2 -1.31,-0.75 -7.32,-4.23 -0.34,-0.19 -0.12,-0.07 -7.36,-4.25 v 0 l -2.47,-1.43 v 0 l -1.17,-0.68 c -0.59,-0.34 -1.18,-0.66 -1.78,-1 a 55.36,55.36 0 0 0 -25.85,-6.4 c -0.52,0 -1.05,0 -1.57,0 a 55.7,55.7 0 0 0 -10.63,1.33 l -1.21,0.28 v 0 c -1,0.26 -2,0.54 -3.05,0.86 -1.05,0.32 -2.25,0.74 -3.36,1.16 a 54.49,54.49 0 0 0 -7.83,3.73 l -8.47,4.89 -8.21,4.74 -2.56,1.47 v 0 l -0.89,0.51 -1.49,0.86 -24.47,14.13 -0.42,0.24 -1.27,0.73 -93.9,54.22 -1.85,1.07 v 0 a 54.42,54.42 0 0 0 -8.31,5.89 1.45,1.45 0 0 0 -0.19,0.17 c -0.19,0.15 -0.38,0.32 -0.57,0.49 a 54.34,54.34 0 0 0 -6.08,6.34 55.29,55.29 0 0 0 -7,11.14 c -0.14,0.27 -0.27,0.55 -0.4,0.83 -0.13,0.28 -0.31,0.7 -0.46,1.06 a 54.92,54.92 0 0 0 -4.53,19.7 c 0,0.24 0,0.47 0,0.71 v 0 c 0,0.51 0,1 0,1.54 v 165.78 a 55.4,55.4 0 0 0 27.65,47.88 l 1.07,0.61 v 0 l 17.45,10.08 52.83,30.5 6,3.48 2.86,1.65 2,1.16 15.63,9 1.95,1.12 11,6.35 v 0 l 7.36,4.24 v 0 l 4.57,2.64 h 0.05 l 4.45,2.57 6,3.49 10.21,5.9 a 54.84,54.84 0 0 0 10.27,4.58 l 0.38,0.12 v 0 l 0.92,0.29 c 0.61,0.19 1.23,0.37 1.85,0.53 l 0.64,0.17 0.83,0.2 c 0.22,0.06 0.44,0.1 0.66,0.15 0.72,0.17 1.45,0.31 2.17,0.44 l 1,0.17 a 4.29,4.29 0 0 0 0.5,0.07 c 0.24,0 0.48,0.08 0.72,0.11 L 438,577 h 0.26 l 0.7,0.07 0.85,0.08 1.5,0.11 h 0.94 0.85 2.59 1.43 c 1.3,-0.06 2.6,-0.17 3.89,-0.33 0.53,-0.06 1.05,-0.13 1.58,-0.21 0.31,0 0.63,-0.09 0.93,-0.15 h 0.31 l 0.3,-0.06 c 0.6,-0.1 1.2,-0.22 1.8,-0.34 l 0.79,-0.18 c 0.63,-0.14 1.27,-0.29 1.9,-0.46 l 0.95,-0.26 c 0.63,-0.18 1.25,-0.37 1.87,-0.57 h 0.05 l 0.69,-0.23 0.73,-0.25 c 0.35,-0.12 0.71,-0.24 1.06,-0.38 l 0.37,-0.13 1.22,-0.49 h 0.09 l 1.2,-0.52 c 0.49,-0.21 1,-0.44 1.47,-0.67 l 1.23,-0.61 1,-0.5 c 0,0 0,0 0,0 l 0.54,-0.28 1.05,-0.59 9.9,-5.73 10.74,-6.2 h 0.06 l 27.55,-15.9 0.3,-0.18 2.73,-1.58 10.77,-6.22 v 0 l 5,-2.89 6.12,-3.53 1.59,-0.92 52.73,-30.44 v 0 l 16,-9.25 a 55.46,55.46 0 0 0 27.65,-47.88 V 273.51 a 55.42,55.42 0 0 0 -27.62,-47.88 z"
     class="cls-16" /><path
     style="fill:#e9d498"
     inkscape:connector-curvature="0"
     id="path250-9"
     d="m 570.23,124.94 -9.32,-5.38 a 3.71,3.71 0 0 1 -1.86,-3.21 V 105.6 a 3.71,3.71 0 0 1 1.86,-3.21 L 570.23,97 a 3.7,3.7 0 0 1 3.71,0 l 9.32,5.37 a 3.72,3.72 0 0 1 1.85,3.21 v 10.75 a 3.72,3.72 0 0 1 -1.85,3.21 l -9.32,5.38 a 3.76,3.76 0 0 1 -3.71,0 z m 1.4,-26.17 -9.91,5.71 a 0.92,0.92 0 0 0 -0.45,0.78 v 11.43 a 0.92,0.92 0 0 0 0.45,0.78 l 9.91,5.72 a 1,1 0 0 0 0.9,0 l 9.91,-5.72 a 0.9,0.9 0 0 0 0.45,-0.78 v -11.43 a 0.9,0.9 0 0 0 -0.45,-0.78 l -9.91,-5.71 a 0.89,0.89 0 0 0 -0.45,-0.12 0.92,0.92 0 0 0 -0.45,0.12 z"
     class="cls-17" /><path
     style="fill:#e9d498"
     inkscape:connector-curvature="0"
     id="path252-0"
     d="m 570.9,119.9 -6,-3.43 a 2.4,2.4 0 0 1 -1.19,-2.06 v -6.87 a 2.38,2.38 0 0 1 1.19,-2.05 l 6,-3.44 a 2.39,2.39 0 0 1 2.37,0 l 6,3.44 a 2.37,2.37 0 0 1 1.18,2.05 v 6.87 a 2.39,2.39 0 0 1 -1.18,2.06 l -6,3.43 a 2.35,2.35 0 0 1 -2.37,0 z m 0.91,-16.45 -6.11,3.55 a 0.55,0.55 0 0 0 -0.28,0.48 v 7 a 0.56,0.56 0 0 0 0.28,0.48 l 6.11,3.52 a 0.54,0.54 0 0 0 0.55,0 l 6.11,-3.52 a 0.55,0.55 0 0 0 0.27,-0.48 v -7 A 0.54,0.54 0 0 0 578.47,107 l -6.11,-3.53 a 0.55,0.55 0 0 0 -0.28,-0.07 0.64,0.64 0 0 0 -0.27,0.05 z"
     class="cls-17" /><path
     style="fill:#e9d498"
     inkscape:connector-curvature="0"
     id="path254-0"
     d="m 530.4,150.59 -11,-6.36 a 4.4,4.4 0 0 1 -2.19,-3.8 v -12.71 a 4.39,4.39 0 0 1 2.19,-3.8 l 11,-6.36 a 4.41,4.41 0 0 1 4.39,0 l 11,6.36 a 4.41,4.41 0 0 1 2.2,3.8 v 12.71 a 4.41,4.41 0 0 1 -2.2,3.8 l -11,6.36 a 4.47,4.47 0 0 1 -2.2,0.59 4.41,4.41 0 0 1 -2.19,-0.59 z m 1.66,-31 -11.72,6.76 a 1.07,1.07 0 0 0 -0.53,0.93 v 13.51 a 1.07,1.07 0 0 0 0.53,0.93 l 11.72,6.76 a 1.11,1.11 0 0 0 1.06,0 l 11.72,-6.76 a 1.08,1.08 0 0 0 0.54,-0.93 v -13.47 a 1.08,1.08 0 0 0 -0.54,-0.93 l -11.72,-6.76 a 1.08,1.08 0 0 0 -0.53,-0.14 1.1,1.1 0 0 0 -0.53,0.14 z"
     class="cls-17" /><path
     style="fill:#e9d498"
     inkscape:connector-curvature="0"
     id="path256-2"
     d="m 531.19,144.63 -7.05,-4.06 a 2.82,2.82 0 0 1 -1.4,-2.43 V 130 a 2.82,2.82 0 0 1 1.4,-2.43 l 7.05,-4.06 a 2.8,2.8 0 0 1 2.8,0 l 7,4.06 a 2.8,2.8 0 0 1 1.4,2.43 v 8.13 a 2.8,2.8 0 0 1 -1.4,2.43 l -7,4.06 a 2.77,2.77 0 0 1 -2.8,0 z m 1.07,-19.45 -7.26,4.16 a 0.68,0.68 0 0 0 -0.33,0.57 v 8.33 a 0.68,0.68 0 0 0 0.33,0.57 l 7.22,4.16 a 0.65,0.65 0 0 0 0.66,0 l 7.22,-4.16 a 0.68,0.68 0 0 0 0.33,-0.57 v -8.33 a 0.68,0.68 0 0 0 -0.33,-0.57 l -7.22,-4.16 a 0.65,0.65 0 0 0 -0.66,0 z"
     class="cls-17" /><path
     style="fill:#e9d498"
     inkscape:connector-curvature="0"
     id="path258-0"
     d="m 595.23,187.83 -13,-7.47 a 5.18,5.18 0 0 1 -2.58,-4.47 V 161 a 5.17,5.17 0 0 1 2.58,-4.46 l 13,-7.47 a 5.17,5.17 0 0 1 5.16,0 l 13,7.47 a 5.17,5.17 0 0 1 2.58,4.46 v 14.94 a 5.18,5.18 0 0 1 -2.58,4.47 l -13,7.47 a 5.16,5.16 0 0 1 -2.58,0.69 5.22,5.22 0 0 1 -2.58,-0.74 z m 2,-36.38 -13.78,8 a 1.26,1.26 0 0 0 -0.62,1.08 v 15.89 a 1.26,1.26 0 0 0 0.62,1.08 l 13.78,7.94 a 1.27,1.27 0 0 0 1.25,0 l 13.77,-7.94 a 1.25,1.25 0 0 0 0.63,-1.08 v -15.94 a 1.25,1.25 0 0 0 -0.63,-1.08 l -13.77,-8 a 1.3,1.3 0 0 0 -1.25,0 z"
     class="cls-17" /><path
     style="fill:#e9d498"
     inkscape:connector-curvature="0"
     id="path260-7"
     d="m 596.16,180.83 -8.28,-4.78 a 3.3,3.3 0 0 1 -1.64,-2.85 v -9.55 a 3.3,3.3 0 0 1 1.64,-2.85 l 8.28,-4.78 a 3.3,3.3 0 0 1 3.3,0 l 8.28,4.78 a 3.29,3.29 0 0 1 1.65,2.85 v 9.55 a 3.29,3.29 0 0 1 -1.65,2.85 l -8.28,4.78 a 3.31,3.31 0 0 1 -3.3,0 z m 1.27,-22.83 -8.49,4.89 a 0.78,0.78 0 0 0 -0.38,0.67 v 9.79 a 0.78,0.78 0 0 0 0.38,0.67 l 8.49,4.89 a 0.76,0.76 0 0 0 0.77,0 l 8.48,-4.89 a 0.79,0.79 0 0 0 0.39,-0.67 v -9.79 a 0.79,0.79 0 0 0 -0.39,-0.67 L 598.2,158 a 0.73,0.73 0 0 0 -0.77,0 z"
     class="cls-17" /><path
     style="fill:#5f6db3"
     inkscape:connector-curvature="0"
     id="path262-5"
     d="m 444.49,581.05 h -0.65 -0.87 l -1.79,-0.07 c -0.62,0 -1.15,-0.07 -1.67,-0.11 l -1.82,-0.18 h -0.16 l -1.31,-0.18 -0.7,-0.1 -0.6,-0.09 -1,-0.18 c -0.78,-0.14 -1.58,-0.3 -2.36,-0.48 h -0.13 c -0.22,-0.05 -0.44,-0.09 -0.65,-0.15 l -0.87,-0.21 -0.64,-0.17 c -0.59,-0.15 -1.27,-0.35 -1.93,-0.56 -0.24,-0.07 -0.52,-0.15 -0.8,-0.25 -0.28,-0.1 -0.36,-0.1 -0.54,-0.16 a 58.75,58.75 0 0 1 -11,-4.9 l -10.21,-5.9 -14.28,-8.36 v 0 l -10,-5.78 v 0 l -9.16,-5.29 -1.95,-1.12 -15.63,-9 -10.89,-6.29 L 290,501 272.17,490.7 271.48,490.31 A 59.08,59.08 0 0 1 242,439.26 V 273.51 c 0,-0.55 0,-1.08 0,-1.62 0,-0.26 0,-0.51 0,-0.77 a 58.88,58.88 0 0 1 4.84,-21 c 0.14,-0.35 0.31,-0.73 0.48,-1.12 0.17,-0.39 0.3,-0.63 0.45,-0.93 a 58.77,58.77 0 0 1 7.49,-11.82 57.73,57.73 0 0 1 6.49,-6.77 c 0.17,-0.16 0.36,-0.32 0.55,-0.48 a 3.15,3.15 0 0 1 0.29,-0.25 57.7,57.7 0 0 1 8.83,-6.25 l 0.84,-0.49 v 0 l 121.62,-70.22 1.83,-1.06 2.56,-1.48 16.73,-9.65 a 58,58 0 0 1 8.35,-4 c 1.23,-0.47 2.44,-0.88 3.58,-1.24 1.14,-0.36 2.06,-0.61 3.24,-0.91 l 0.44,-0.11 v 0 l 0.84,-0.19 a 59.53,59.53 0 0 1 11.33,-1.42 c 0.52,0 1.1,0 1.67,0 a 59.2,59.2 0 0 1 27.56,6.82 c 0.64,0.35 1.27,0.69 1.89,1 l 11.17,6.45 0.28,0.15 7.37,4.26 1.29,0.74 29.48,17 94,54.24 a 59.07,59.07 0 0 1 29.48,51 v 165.87 a 58.94,58.94 0 0 1 -29.48,51 l -15.55,9 -0.71,0.76 h -0.6 l -65.45,37.79 v 0 l -12.65,7.31 -0.26,0.15 -27.68,16 h -0.06 l -10.66,6.15 -8.77,5.08 c -0.27,0.15 -3.45,1.92 -3.9,2.14 l -1.26,0.63 c -0.58,0.27 -1.1,0.52 -1.63,0.74 l -1.16,0.5 -0.12,0.06 h -0.16 l -1.19,0.48 h -0.12 l -0.25,0.08 c -0.35,0.14 -0.7,0.26 -1.06,0.38 l -0.76,0.27 -0.07,0.06 -0.84,0.24 -2,0.61 -1,0.28 c -0.64,0.18 -1.34,0.34 -2,0.49 l -0.86,0.2 -1.86,0.35 -0.42,0.08 h -0.18 -0.1 c -0.34,0.07 -0.69,0.12 -1,0.17 -0.5,0.07 -1.06,0.15 -1.64,0.21 -1.34,0.17 -2.74,0.29 -4.13,0.35 h -1.52 -1.27 z"
     class="cls-18" /><path
     style="fill:#fcb216"
     inkscape:connector-curvature="0"
     id="path264-8"
     d="m 444.49,135.38 a 55.36,55.36 0 0 1 25.85,6.4 c 0.6,0.32 1.19,0.64 1.78,1 l 1.17,0.68 v 0 l 2.47,1.43 v 0 l 7.36,4.25 0.12,0.07 0.34,0.19 7.32,4.23 1.31,0.75 3.46,2 26,15 93.95,54.24 a 55.42,55.42 0 0 1 27.65,47.88 v 165.76 a 55.31,55.31 0 0 1 -27.65,47.88 l -16,9.25 v 0 l -52.72,30.45 -1.59,0.92 -6.12,3.53 -5,2.89 v 0 l -10.79,6.22 -2.73,1.6 -0.3,0.18 -27.55,15.9 h -0.06 l -10.76,6.21 -8.78,5.08 c -0.35,0.2 -3.38,1.88 -3.7,2 l -1.23,0.61 c -0.49,0.23 -1,0.46 -1.47,0.67 l -1.2,0.52 h -0.09 l -1.22,0.49 -0.37,0.13 c -0.35,0.14 -0.71,0.26 -1.06,0.38 l -0.73,0.25 -0.69,0.23 h -0.05 c -0.62,0.2 -1.24,0.39 -1.87,0.57 l -0.95,0.26 c -0.63,0.17 -1.27,0.32 -1.9,0.46 l -0.79,0.18 c -0.6,0.12 -1.2,0.24 -1.8,0.34 l -0.3,0.06 h -0.31 c -0.3,0.06 -0.62,0.11 -0.93,0.15 -0.53,0.08 -1.05,0.15 -1.58,0.21 -1.29,0.16 -2.59,0.27 -3.89,0.33 h -1.43 -2.59 -0.85 -0.94 l -1.5,-0.11 -0.85,-0.08 -0.7,-0.07 h -0.26 l -1.24,-0.17 c -0.24,0 -0.48,-0.06 -0.72,-0.11 a 4.29,4.29 0 0 1 -0.5,-0.07 l -1,-0.17 c -0.72,-0.13 -1.45,-0.27 -2.17,-0.44 -0.22,0 -0.44,-0.09 -0.66,-0.15 l -0.83,-0.2 -0.64,-0.17 c -0.62,-0.16 -1.24,-0.34 -1.85,-0.53 l -0.92,-0.29 v 0 l -0.38,-0.12 A 54.84,54.84 0 0 1 416.83,570 l -10.21,-5.9 -6,-3.49 -4.45,-2.57 h -0.05 l -4.57,-2.64 v 0 l -7.36,-4.24 v 0 l -11,-6.35 -1.95,-1.12 -15.63,-9 -2,-1.16 -2.86,-1.65 -6,-3.48 -52.83,-30.5 -17.45,-10.08 v 0 l -1.07,-0.61 A 55.4,55.4 0 0 1 245.75,439.33 V 273.51 c 0,-0.52 0,-1 0,-1.54 v 0 c 0,-0.24 0,-0.47 0,-0.71 a 54.92,54.92 0 0 1 4.53,-19.7 c 0.15,-0.36 0.3,-0.71 0.46,-1.06 0.16,-0.35 0.26,-0.56 0.4,-0.83 a 55.29,55.29 0 0 1 7,-11.14 54.34,54.34 0 0 1 6.08,-6.34 c 0.19,-0.17 0.38,-0.34 0.57,-0.49 a 1.45,1.45 0 0 1 0.19,-0.17 54.42,54.42 0 0 1 8.31,-5.89 v 0 l 1.85,-1.07 93.9,-54.22 1.27,-0.73 0.42,-0.24 24.47,-14.13 1.49,-0.86 0.89,-0.51 v 0 l 2.56,-1.47 8.21,-4.74 8.47,-4.89 a 54.49,54.49 0 0 1 7.83,-3.73 c 1.11,-0.42 2.23,-0.81 3.36,-1.16 1.13,-0.35 2,-0.6 3.05,-0.86 v 0 l 1.21,-0.28 a 55.7,55.7 0 0 1 10.63,-1.33 c 0.52,0 1.05,0 1.57,0 m 0,-7.3 c -0.55,0 -1.16,0 -1.81,0 a 63.13,63.13 0 0 0 -12,1.5 h -0.18 l -0.28,0.06 h -0.06 l -0.89,0.22 c -1.25,0.32 -2.38,0.64 -3.46,1 -1.08,0.36 -2.45,0.8 -3.74,1.29 a 62,62 0 0 0 -8.9,4.24 l -8.47,4.89 -8.21,4.74 -2.47,1.47 -3.67,2.1 v 0 l -23.2,13.4 -0.39,0.22 -1.29,0.74 -93.95,54.25 -0.89,0.51 -1,0.55 a 62.53,62.53 0 0 0 -9.35,6.62 l -0.36,0.31 -0.59,0.51 a 61.38,61.38 0 0 0 -6.87,7.17 62.85,62.85 0 0 0 -7.93,12.51 c -0.17,0.33 -0.32,0.66 -0.48,1 -0.16,0.34 -0.38,0.86 -0.55,1.28 a 62,62 0 0 0 -3.92,12.44 62.88,62.88 0 0 0 -1.19,9.82 v 0.04 0.81 c 0,0.56 0,1.12 0,1.7 v 165.75 a 62.7,62.7 0 0 0 31.31,54.2 l 0.74,0.42 0.33,0.2 17.45,10.08 52.8,30.5 6,3.48 2.86,1.65 2,1.15 15.64,9 2,1.13 7.32,4.23 v 0 l 3.66,2.11 7.36,4.24 1.69,1 v 0 l 2.86,1.65 h 0.05 0.05 l 4.45,2.57 6,3.48 10.21,5.91 a 62.67,62.67 0 0 0 11.64,5.19 c 0.2,0.07 0.42,0.14 0.68,0.21 l 0.81,0.25 c 0.73,0.23 1.4,0.42 2.06,0.59 l 0.41,0.11 h 0.13 0.12 0.11 l 0.51,0.12 0.29,0.07 0.73,0.17 h 0.11 c 0.91,0.22 1.77,0.38 2.49,0.51 0.33,0.06 0.69,0.13 1.05,0.18 0.17,0 0.4,0.07 0.67,0.11 l 0.78,0.11 1.26,0.17 h 0.11 0.48 0.18 0.46 0.48 0.28 0.2 l 1.64,0.12 h 0.21 0.35 0.59 0.83 0.94 0.71 0.67 0.75 0.7 0.65 0.19 c 1.47,-0.07 3,-0.2 4.41,-0.38 0.57,-0.06 1.13,-0.14 1.74,-0.23 0.36,0 0.72,-0.1 1,-0.16 v 0 h 0.24 l 0.35,-0.07 h 0.15 v 0 c 0.64,-0.11 1.28,-0.24 1.91,-0.37 h 0.11 0.1 l 0.73,-0.17 c 0.85,-0.19 1.54,-0.35 2.18,-0.53 l 1.06,-0.28 c 0.72,-0.21 1.41,-0.42 2.14,-0.66 l 0.53,-0.17 v 0 l 0.29,-0.1 0.8,-0.28 h 0.08 l 1.11,-0.4 h 0.08 0.14 l 0.25,-0.09 1.12,-0.45 h 0.13 l 0.27,-0.12 1.27,-0.55 c 0.55,-0.24 1.1,-0.49 1.64,-0.75 v 0 h 0.05 l 1.36,-0.68 c 0.74,-0.38 3.85,-2.12 4,-2.19 l 8.82,-5.11 10.54,-6.08 h 0.06 l 0.19,-0.11 27.73,-15.76 h 0.05 v 0 l 0.26,-0.15 2.68,-1.56 9.07,-5.23 v 0 l 1.71,-1 5,-2.89 6.12,-3.53 1.6,-0.93 51,-29.45 h 1 l 1.47,-1.46 15.2,-8.78 A 63.36,63.36 0 0 0 631,484.78 62.85,62.85 0 0 0 650.65,439.26 V 273.51 a 62.74,62.74 0 0 0 -31.3,-54.2 l -93.95,-54.24 -26,-15 -3.46,-2 -1.33,-0.76 -7.3,-4.22 v 0 h -0.05 l -0.28,-0.16 h -0.06 l -7.39,-4.27 -1.05,-0.6 -1.43,-0.84 -1.7,-1 v 0 l -1.48,-0.8 a 62.84,62.84 0 0 0 -29.28,-7.26 z"
     class="cls-19" /><path
     inkscape:connector-curvature="0"
     style="fill:url(#linear-gradient)"
     id="path266-2"
     d="m 615.66,225.63 -93.95,-54.24 -26,-15 -3.46,-2 -1.31,-0.75 -7.32,-4.23 -0.34,-0.19 -0.12,-0.07 -7.36,-4.25 v 0 l -2.47,-1.43 v 0 l -1.17,-0.68 c -0.59,-0.34 -1.18,-0.66 -1.78,-1 a 55.36,55.36 0 0 0 -25.85,-6.4 c -0.52,0 -1.05,0 -1.57,0 a 55.7,55.7 0 0 0 -10.63,1.33 l -1.21,0.28 v 0 c -1,0.26 -2,0.54 -3.05,0.86 -1.05,0.32 -2.25,0.74 -3.36,1.16 a 54.49,54.49 0 0 0 -7.83,3.73 l -8.47,4.89 -8.21,4.74 -2.56,1.47 v 0 l -0.89,0.51 -1.49,0.86 -24.47,14.13 -0.42,0.24 -1.27,0.73 -93.9,54.22 -1.85,1.07 v 0 a 54.42,54.42 0 0 0 -8.31,5.89 1.45,1.45 0 0 0 -0.19,0.17 c -0.19,0.15 -0.38,0.32 -0.57,0.49 a 54.34,54.34 0 0 0 -6.08,6.34 55.29,55.29 0 0 0 -7,11.14 c -0.14,0.27 -0.27,0.55 -0.4,0.83 -0.13,0.28 -0.31,0.7 -0.46,1.06 a 54.92,54.92 0 0 0 -4.53,19.7 c 0,0.24 0,0.47 0,0.71 v 0 c 0,0.51 0,1 0,1.54 v 165.78 a 55.4,55.4 0 0 0 27.65,47.88 l 1.07,0.61 v 0 l 17.45,10.08 52.83,30.5 6,3.48 2.86,1.65 2,1.16 15.63,9 1.95,1.12 11,6.35 v 0 l 7.36,4.24 v 0 l 4.57,2.64 h 0.05 l 4.45,2.57 6,3.49 10.21,5.9 a 54.84,54.84 0 0 0 10.27,4.58 l 0.38,0.12 v 0 l 0.92,0.29 c 0.61,0.19 1.23,0.37 1.85,0.53 l 0.64,0.17 0.83,0.2 c 0.22,0.06 0.44,0.1 0.66,0.15 0.72,0.17 1.45,0.31 2.17,0.44 l 1,0.17 a 4.29,4.29 0 0 0 0.5,0.07 c 0.24,0 0.48,0.08 0.72,0.11 L 438,577 h 0.26 l 0.7,0.07 0.85,0.08 1.5,0.11 h 0.94 0.85 2.59 1.43 c 1.3,-0.06 2.6,-0.17 3.89,-0.33 0.53,-0.06 1.05,-0.13 1.58,-0.21 0.31,0 0.63,-0.09 0.93,-0.15 h 0.31 l 0.3,-0.06 c 0.6,-0.1 1.2,-0.22 1.8,-0.34 l 0.79,-0.18 c 0.63,-0.14 1.27,-0.29 1.9,-0.46 l 0.95,-0.26 c 0.63,-0.18 1.25,-0.37 1.87,-0.57 h 0.05 l 0.69,-0.23 0.73,-0.25 c 0.35,-0.12 0.71,-0.24 1.06,-0.38 l 0.37,-0.13 1.22,-0.49 h 0.09 l 1.2,-0.52 c 0.49,-0.21 1,-0.44 1.47,-0.67 l 1.23,-0.61 c 0.32,-0.16 3.35,-1.84 3.7,-2 l 8.78,-5.08 10.74,-6.2 h 0.06 l 27.55,-15.9 0.3,-0.18 2.73,-1.58 10.77,-6.22 v 0 l 5,-2.89 6.12,-3.53 1.59,-0.92 52.73,-30.44 v 0 l 16,-9.25 a 55.46,55.46 0 0 0 27.65,-47.88 V 273.51 a 55.42,55.42 0 0 0 -27.61,-47.88 z"
     class="cls-20" /><path
     style="fill:#ffc19d"
     inkscape:connector-curvature="0"
     id="path268-7"
     d="m 479.88,132.88 1.82,-30.25 -4.39,-3.38 a 103.23,103.23 0 0 0 -103.61,-13 c 0,0 -5.14,68.06 -4.77,97.69 0.36,28.91 28.59,34 30,34.24 l -0.33,7.67 c -0.35,6.15 -0.92,14.85 -1.65,21.66 l -17.95,50.41 92.58,5.24 1.42,-55.71 5.1,-84.6 c 4.32,1 19.17,2 19.72,-15.28 0.5,-16.73 -12.95,-15.69 -17.94,-14.69 z"
     class="cls-21" /><path
     style="fill:#ab6651"
     inkscape:connector-curvature="0"
     id="path270-6"
     d="m 483.51,156.1 c 0.1,-0.07 0.39,0.3 1.06,0.63 a 4.07,4.07 0 0 0 3,0.16 c 2.47,-0.82 4.65,-4.63 4.9,-8.79 a 13.23,13.23 0 0 0 -0.94,-5.79 c -0.66,-1.71 -1.71,-2.93 -2.93,-3.19 a 2.07,2.07 0 0 0 -2.42,1 c -0.33,0.64 -0.2,1.1 -0.32,1.14 -0.12,0.04 -0.48,-0.41 -0.27,-1.35 a 2.53,2.53 0 0 1 1,-1.42 3.06,3.06 0 0 1 2.25,-0.52 c 1.77,0.18 3.33,1.87 4.09,3.72 a 13.64,13.64 0 0 1 1.19,6.48 c -0.3,4.65 -2.82,8.93 -6.2,9.78 a 4.28,4.28 0 0 1 -3.66,-0.73 c -0.73,-0.56 -0.83,-1.08 -0.75,-1.12 z"
     class="cls-22" /><path
     style="fill:#3a2416"
     inkscape:connector-curvature="0"
     id="path272-1"
     d="m 380.24,132.17 a 4.23,4.23 0 0 0 4.09,4.27 4,4 0 0 0 4.37,-3.81 4.25,4.25 0 0 0 -4.09,-4.28 4.06,4.06 0 0 0 -4.37,3.82 z"
     class="cls-23" /><path
     style="fill:#3a2416"
     inkscape:connector-curvature="0"
     id="path274-6"
     d="m 379.32,127.93 c 0.52,0.56 3.73,-1.82 8.29,-1.81 4.56,0.01 7.9,2.29 8.4,1.74 0.24,-0.25 -0.3,-1.25 -1.75,-2.31 a 11.63,11.63 0 0 0 -6.72,-2.06 11.18,11.18 0 0 0 -6.6,2.12 c -1.41,1.08 -1.88,2.08 -1.62,2.32 z"
     class="cls-23" /><path
     style="fill:#3a2416"
     inkscape:connector-curvature="0"
     id="path276-0"
     d="m 424.89,133.76 a 4.23,4.23 0 0 0 4.11,4.24 4,4 0 0 0 4.36,-3.81 4.24,4.24 0 0 0 -4.08,-4.28 4.06,4.06 0 0 0 -4.39,3.85 z"
     class="cls-23" /><path
     style="fill:#3a2416"
     inkscape:connector-curvature="0"
     id="path278-2"
     d="m 424.13,128.78 c 0.53,0.56 3.74,-1.82 8.3,-1.8 4.56,0.02 7.9,2.28 8.39,1.73 0.24,-0.25 -0.29,-1.25 -1.75,-2.31 a 11.67,11.67 0 0 0 -6.72,-2.07 11.18,11.18 0 0 0 -6.6,2.13 c -1.4,1.08 -1.88,2.08 -1.62,2.32 z"
     class="cls-23" /><path
     style="fill:#3a2416"
     inkscape:connector-curvature="0"
     id="path280-5"
     d="m 407.59,162.56 c 0,-0.26 -2.82,-0.75 -7.41,-1.34 -1.16,-0.12 -2.26,-0.35 -2.46,-1.14 -0.2,-0.79 0.21,-2.09 0.78,-3.45 l 3.44,-8.85 c 4.78,-12.61 8.24,-23 7.73,-23.17 -0.51,-0.17 -4.8,9.88 -9.58,22.49 l -3.3,8.91 c -0.44,1.32 -1.2,2.82 -0.6,4.56 a 2.92,2.92 0 0 0 1.91,1.7 8.1,8.1 0 0 0 2,0.28 c 4.6,0.25 7.47,0.27 7.49,0.01 z"
     class="cls-23" /><path
     style="fill:#3a2416"
     inkscape:connector-curvature="0"
     id="path282-5"
     d="m 430.25,112 c 0.19,1.3 4.76,1.66 9.86,3.39 5.1,1.73 9,4 10,3.11 0.42,-0.45 -0.08,-1.75 -1.53,-3.28 a 18.16,18.16 0 0 0 -15.1,-5 c -2.13,0.38 -3.29,1.13 -3.23,1.78 z"
     class="cls-23" /><path
     style="fill:#3a2416"
     inkscape:connector-curvature="0"
     id="path284-1"
     d="m 377.73,118 c 1.07,0.75 3.74,-1.22 7.33,-2.39 3.59,-1.17 6.87,-1.42 7.25,-2.68 0.15,-0.59 -0.64,-1.43 -2.27,-2 A 11.19,11.19 0 0 0 378.29,115 c -0.95,1.46 -1.05,2.6 -0.56,3 z"
     class="cls-23" /><path
     style="fill:#3a2416"
     inkscape:connector-curvature="0"
     id="path286-3"
     d="m 370.85,47.43 a 18.33,18.33 0 0 1 13.27,-4 c 4.16,0.54 8.09,2.78 12.27,2.47 6.5,-0.48 12.06,-7 18.4,-5.52 4.21,1 7.18,5.38 11.5,5.76 3,0.27 5.7,-1.45 8.55,-2.34 a 16,16 0 0 1 13.88,2.2 c 1.85,1.33 3.49,3.11 5.68,3.73 2.6,0.74 5.32,-0.31 8,-0.87 a 14.54,14.54 0 0 1 8.47,0.46 9.26,9.26 0 0 1 4.51,3.84 c 0.44,0.74 0.47,2 0.93,2.62 0.68,0.92 2.18,0.85 3.19,0.81 1.65,-0.07 3.69,-0.53 5.24,0.13 a 7.38,7.38 0 0 1 2.94,2.4 9.7,9.7 0 0 1 1.59,7.59 7.05,7.05 0 0 0 0.18,4.69 c 0.69,1.33 2,1.73 3.12,2.59 a 13,13 0 0 1 1.09,19.83 c -0.77,0.72 -1.86,1.14 -2.54,1.9 a 7.13,7.13 0 0 0 -1.12,2.11 19.13,19.13 0 0 0 -1.09,5.07 c -0.25,2.39 -0.08,4.74 -0.12,7.14 -0.15,8.08 -0.67,16.27 -2,22.48 -13.91,-1.3 -6.48,12.23 -10,12.42 -9.08,0.49 -6.32,-24.43 -6.32,-24.43 -14.88,-5.74 -9.34,-28 -13.06,-31.4 -3.72,-3.4 -11.51,-11.24 -42.68,4.68 -12.1,6.18 -28.19,6 -37,4 -0.25,0 -0.51,-0.09 -0.77,-0.16 h -0.18 c -0.1,0 -0.17,-0.08 -0.26,-0.11 a 27.93,27.93 0 0 1 -8,-3.38 15.84,15.84 0 0 1 -6.52,-7.36 c -1.2,-3.12 -0.75,-7 1.7,-9.28 a 21.44,21.44 0 0 1 -4.42,-10 c -2.07,-12.78 9.83,-18.73 11.57,-20.07 z"
     class="cls-23" /><path
     style="fill:#e89a83"
     inkscape:connector-curvature="0"
     id="path288-4"
     d="m 398.9,218.17 c 23.42,1.54 44.33,-5.53 49.58,-14.57 -4.13,16.11 -31,20.87 -49.84,20.58 z"
     class="cls-24" /><path
     style="fill:#ab6651"
     inkscape:connector-curvature="0"
     id="path290-1"
     d="m 412.51,185.07 c 7.52,-0.84 16.53,-7.14 14,-16.65 -2,3.34 -11.61,10 -20.75,12.51 v 0 a 6.43,6.43 0 0 0 6.75,4.14 z"
     class="cls-22" /><path
     style="fill:#3a2416"
     inkscape:connector-curvature="0"
     id="path292-2"
     d="m 407.17,184.59 a 14.43,14.43 0 0 0 7.3,-0.45 19.67,19.67 0 0 0 6.4,-3.3 13.25,13.25 0 0 0 4.26,-5.43 10.9,10.9 0 0 0 0.36,-6.71 l 2,0.28 a 18.1,18.1 0 0 1 -4.71,4.52 43.1,43.1 0 0 1 -5.33,3.28 45.2,45.2 0 0 1 -5.69,2.53 34.69,34.69 0 0 1 -6,1.62 q 2.86,-1.14 5.57,-2.54 c 1.81,-0.92 3.56,-1.95 5.27,-3 a 59.75,59.75 0 0 0 4.93,-3.48 c 0.79,-0.61 1.53,-1.27 2.24,-1.94 a 10.63,10.63 0 0 0 1.8,-2.08 1.1,1.1 0 0 1 1.5,-0.39 1.15,1.15 0 0 1 0.5,0.65 v 0 a 12.27,12.27 0 0 1 -0.48,8.08 14.34,14.34 0 0 1 -5.16,6.09 18.75,18.75 0 0 1 -7.22,3 12.76,12.76 0 0 1 -7.54,-0.73 z"
     class="cls-23" /><path
     style="fill:#efd8c5"
     inkscape:connector-curvature="0"
     id="path294-6"
     d="m 268.26,463.22 c 0,0 18,-74.06 28.21,-84.2 10.7,-10.65 26.52,13.24 26.52,13.24 l 8.11,-75.49 A 86.52,86.52 0 0 1 352,269 l 0.08,-0.1 v 0 a 48.53,48.53 0 0 1 9.26,-9.08 v 0 a 54.27,54.27 0 0 1 11.75,-6.67 c -3.92,3.46 -8,9.27 -11.42,17.62 l 6.17,204.9 c 0,0 -45.87,38.5 -87,18.08 -12.84,-6.38 -12.58,-30.53 -12.58,-30.53 z"
     class="cls-25" /><path
     style="fill:#0c858f"
     inkscape:connector-curvature="0"
     id="path296-1"
     d="m 393.83,247.61 h 0.27 z"
     class="cls-26" /><path
     style="fill:#0c858f"
     inkscape:connector-curvature="0"
     id="path298-2"
     d="M 396,247.35 Z"
     class="cls-26" /><path
     style="fill:#00b1af"
     inkscape:connector-curvature="0"
     id="path300-2"
     d="m 396.43,247.3 a 0.51,0.51 0 0 1 0.17,0 h -0.16 c 0,0 -0.01,0 -0.01,0 z"
     class="cls-27" /><path
     style="fill:#00b1af"
     inkscape:connector-curvature="0"
     id="path302-1"
     d="m 396,247.36 h -0.09 a 0.2,0.2 0 0 0 -0.11,0 z"
     class="cls-27" /><path
     inkscape:connector-curvature="0"
     style="fill:url(#linear-gradient-2)"
     id="path304-2"
     d="m 534.17,534.18 -10.77,6.22 -2.73,1.6 -0.3,0.18 -27.55,15.9 h -0.06 l -10.76,6.21 -9.9,5.73 -1.05,0.59 -0.54,0.28 c 0,0 0,0 0,0 l -1,0.5 -1.23,0.61 c -0.49,0.23 -1,0.46 -1.47,0.67 l -1.2,0.52 h -0.09 l -1.22,0.49 -0.37,0.13 c -0.35,0.14 -0.71,0.26 -1.06,0.38 l -0.73,0.25 -0.69,0.23 h -0.05 c -0.62,0.2 -1.24,0.39 -1.87,0.57 l -0.95,0.26 c -0.63,0.17 -1.27,0.32 -1.9,0.46 l -0.79,0.18 c -0.6,0.12 -1.2,0.24 -1.8,0.34 l -0.3,0.06 h -0.31 c -0.3,0.06 -0.62,0.11 -0.93,0.15 -0.53,0.08 -1.05,0.15 -1.58,0.21 -1.29,0.16 -2.59,0.27 -3.89,0.33 h -1 -3 -0.85 -0.6 -0.34 l -1.5,-0.11 -0.85,-0.08 -0.7,-0.07 h -0.26 l -1.24,-0.17 c -0.24,0 -0.48,-0.06 -0.72,-0.11 a 4.29,4.29 0 0 1 -0.5,-0.07 l -0.4,-0.06 v 0 l -0.55,-0.11 c -0.72,-0.13 -1.45,-0.27 -2.17,-0.44 -0.22,0 -0.44,-0.09 -0.66,-0.15 l -0.83,-0.2 -0.64,-0.17 c -0.62,-0.16 -1.24,-0.34 -1.85,-0.53 l -0.92,-0.29 v 0 l -0.38,-0.12 A 54.84,54.84 0 0 1 416.83,570 l -10.21,-5.9 -6,-3.49 c -1.1,-0.67 -2.18,-1.33 -3.24,-2 l -0.13,-0.08 c -1.27,-0.75 -2.51,-1.47 -3.7,-2.13 l -0.16,-0.09 c -0.61,-0.34 -1.23,-0.66 -1.84,-1 v 0 l -7.36,-4.24 v 0 l -11,-6.35 -1.95,-1.12 -15.63,-9 v -0.1 l -7.72,-4.44 0.65,-7.77 1,-34.54 1.17,-41.59 c 0,-0.09 0,-0.18 0,-0.27 l 0.13,-4.93 a 1.28,1.28 0 0 0 0,-0.19 v -0.48 c 0,0 0,-0.11 0,-0.11 v -0.13 c 0,-0.69 -0.14,-3.84 -0.12,-5.14 v -0.15 c 0.07,-18.35 1,-46.9 2,-70.09 0.09,-2.29 0.17,-4.52 0.26,-6.67 0.16,-4 0.33,-7.7 0.47,-11.12 a 8,8 0 0 1 0,-0.86 c 0,-0.82 0.07,-1.6 0.1,-2.35 0,-0.42 0,-0.83 0.05,-1.24 0.1,-2.41 0.2,-4.6 0.3,-6.5 0.26,-5.93 0.43,-9.51 0.43,-9.51 -1.17,-24.7 2.36,-43.05 7.52,-55.64 3.4,-8.35 7.5,-14.16 11.42,-17.62 a 76,76 0 0 1 13.55,-4.22 v 0 q 3.63,-0.81 7.55,-1.36 a 0.55,0.55 0 0 1 0.18,0 h 0.22 0.1 a 1,1 0 0 0 0.28,0 h 0.09 l 0.73,-0.09 a 0.2,0.2 0 0 0 -0.11,0 h 0.2 v 0 c 0,0 0,0 0.05,0 h 0.14 0.24 c 0,0 0,0 0,0 h 0.16 0.08 0.24 v 0 l 0.18,0.05 -0.21,0.22 v 0 l -0.21,0.6 -0.2,0.59 c -5,14.77 -3,23.57 2.19,28.77 5.19,5.2 12.4,14.68 20.34,22.72 0.27,0.25 0.54,0.52 0.8,0.79 0.26,0.27 0.31,0.32 0.47,0.47 v 0 c 0.31,-0.38 0.59,-0.76 0.88,-1.14 22,-28.22 49.89,-28.61 51.76,-52.59 a 0.17,0.17 0 0 0 0,-0.07 v -0.05 c 0,0 0,-0.1 0,-0.15 v 0 a 1.47,1.47 0 0 0 -0.1,-0.22 0.45,0.45 0 0 0 0.11,0 v 0 a 72.83,72.83 0 0 1 9.74,1.11 c 2.27,0.39 4.48,0.87 6.63,1.38 5.15,1.19 10.09,2.58 15.07,3.53 A 91.46,91.46 0 0 1 546,273.47 c -0.31,-0.12 -0.61,0 -0.9,0.4 -4.27,5.54 -6.92,62.53 -8.55,121.74 v 0.09 c 0,1 -0.06,2.07 -0.08,3.11 v 0 c -0.27,9.93 -0.5,19.89 -0.71,29.67 -0.51,23.33 -0.86,45.56 -1.11,63.53 0,3.75 -0.09,7.32 -0.13,10.67 V 503 c 0,1.94 -0.05,3.8 -0.07,5.58 -0.17,14.71 -0.24,24.16 -0.25,25.22 v 0.1 0.33 z"
     class="cls-28" /><path
     style="fill:#ffffff"
     inkscape:connector-curvature="0"
     id="path306-7"
     d="m 473.83,233 c -0.57,13.49 -3.31,18.79 -10.3,24.45 -7.27,5.88 -14.57,11.69 -21.79,17.67 -8.77,7.26 -16.65,15.67 -22.38,26.72 5.49,-0.92 8.42,-6.74 12.75,-9.92 5.81,-4.25 10.56,-4.88 15.78,1.87 6.46,8.36 10.32,8.49 17.4,1.36 10.21,-10.29 19.93,-21.21 23,-38 -3.89,-6 -7.87,-12 -10.63,-18.93 -0.98,-2.54 -0.94,-5.69 -3.83,-5.22 z"
     class="cls-29" /><path
     style="fill:#ffffff"
     inkscape:connector-curvature="0"
     id="path308-0"
     d="m 397.77,238.28 c -0.26,0.07 -0.52,0.14 -0.78,0.23 -11.72,4 -22.92,30.81 -3.21,56.85 a 1.19,1.19 0 0 0 1.86,0.08 0.78,0.78 0 0 0 0.14,-0.29 c 3.6,-13.27 3.4,-13.07 14.3,-1.74 2.92,3 4.53,9.34 10.23,8 -10.04,-15.85 -24.41,-43.04 -22.54,-63.13 z"
     class="cls-29" /><path
     style="fill:#ffc19d"
     inkscape:connector-curvature="0"
     id="path310-6"
     d="m 338.58,452.72 a 34.85,34.85 0 0 1 -69.27,5.39 L 247.46,319.47 c -2.15,-8.28 -9.16,-26.53 -9.16,-26.53 l -2.64,-8.14 v -0.12 c -0.23,0.18 -0.47,0.38 -0.69,0.58 l -0.6,0.61 c -0.27,0.28 -0.55,0.58 -0.84,0.85 a 4.65,4.65 0 0 1 -1.77,1.14 c -2,0.64 -4.07,-0.85 -5.29,-2.56 -0.14,-0.19 -0.27,-0.39 -0.39,-0.59 v -0.06 a 12.83,12.83 0 0 1 -1.57,-9.3 c 0,-0.07 0,-0.13 0,-0.19 a 12.18,12.18 0 0 1 0.81,-2.36 12.73,12.73 0 0 1 7.51,-6.53 12.46,12.46 0 0 1 2.35,-0.51 9.1,9.1 0 0 1 2.84,-2.21 c 7.32,-3.71 17.65,2.1 17.65,2.1 l -0.53,-3 c 0,0 -2.46,-15.34 -14.73,-24.07 v 0 c -0.41,-0.29 -0.83,-0.58 -1.26,-0.86 a 9.66,9.66 0 0 1 -4.2,-5.48 4.92,4.92 0 0 1 0.46,-4.19 c 2.18,-3.17 5,-2.46 13.42,2.76 8.42,5.22 13.35,11.46 15.9,19.45 l 3.02,11.74 q 0,0.18 0.09,0.33 l 0.14,0.53 a 0.45,0.45 0 0 0 0,0.11 c 0,0 -3.46,-33.22 -3.59,-35 0,-0.61 -0.05,-1.2 0,-1.79 0.14,-4.28 2,-7.78 5,-8.3 2.16,-0.38 5.15,0.74 5.78,6.63 0.54,5.1 12.75,56.63 12.75,56.63 l 4.08,23.1 44.89,137.68 a 35.64,35.64 0 0 1 1.73,10.8 z"
     class="cls-21" /><path
     style="fill:#ab6651"
     inkscape:connector-curvature="0"
     id="path312-5"
     d="m 285.66,282 a 11.68,11.68 0 0 0 -2.85,-1.56 c -1.88,-0.9 -4.62,-2.16 -8,-3.67 l -12,-5.24 -3.48,-1.49 c -1.14,-0.39 -2.45,-1.4 -4.42,-0.75 a 2.5,2.5 0 0 0 -1.47,2.41 5.17,5.17 0 0 0 0.69,2.35 19.79,19.79 0 0 0 2.65,3.52 c 4.1,4.29 9.07,6.72 12.8,9.78 a 22.43,22.43 0 0 1 4.69,4.83 c 1.19,1.74 2,3.61 3,5.25 1.74,3.4 4.56,5.48 6.73,5.83 2.17,0.35 3.33,-0.44 3.26,-0.47 a 8.57,8.57 0 0 1 -3.09,-0.17 c -1.94,-0.54 -4.29,-2.44 -5.84,-5.76 -0.85,-1.62 -1.61,-3.53 -2.84,-5.46 a 23.2,23.2 0 0 0 -4.88,-5.27 c -3.84,-3.23 -8.76,-5.74 -12.55,-9.73 a 18.37,18.37 0 0 1 -2.4,-3.17 c -0.62,-1.08 -0.68,-2.23 0,-2.42 0.68,-0.19 1.93,0.23 3.11,0.73 l 3.5,1.44 12.13,4.9 c 3.46,1.37 6.27,2.46 8.23,3.17 a 12.23,12.23 0 0 0 3.03,0.95 z"
     class="cls-22" /><path
     style="fill:#ab6651"
     inkscape:connector-curvature="0"
     id="path314-3"
     d="m 250.46,272.65 a 7.68,7.68 0 0 1 -1.67,-0.45 5.09,5.09 0 0 0 -4.26,0.25 2.74,2.74 0 0 0 -1.19,2.45 14.75,14.75 0 0 0 0.65,3.54 6.21,6.21 0 0 1 -0.19,4.39 5.26,5.26 0 0 1 -4,2.63 6,6 0 0 1 -4.52,-1.4 7.55,7.55 0 0 1 -2.46,-3.62 24.44,24.44 0 0 1 -0.65,-7.08 14.25,14.25 0 0 1 0.92,-4.69 c 0.46,-1.05 0.94,-1.5 1,-1.46 0.06,0.04 -0.27,0.57 -0.58,1.6 a 17.17,17.17 0 0 0 -0.54,4.57 26.1,26.1 0 0 0 0.84,6.77 c 0.7,2.23 3.13,4.56 5.87,4.22 a 4.21,4.21 0 0 0 3.16,-2.05 5.27,5.27 0 0 0 0.16,-3.66 14.1,14.1 0 0 1 -0.57,-3.8 3.56,3.56 0 0 1 1.68,-3.07 5.38,5.38 0 0 1 4.83,0 c 1.06,0.46 1.55,0.79 1.52,0.86 z"
     class="cls-22" /><path
     style="fill:#ab6651"
     inkscape:connector-curvature="0"
     id="path316-9"
     d="m 256.67,299.58 a 4.52,4.52 0 0 1 2.65,-0.25 10.35,10.35 0 0 1 6.12,2.86 l -0.9,0.37 a 31,31 0 0 1 0.22,-3.75 c 0.83,-7.28 4.25,-12.32 4.45,-12.13 0.2,0.19 -2.56,5.26 -3.36,12.26 -0.15,1.26 -0.23,2.49 -0.25,3.62 v 1.26 l -0.87,-0.89 a 10.94,10.94 0 0 0 -5.49,-2.95 c -1.58,-0.33 -2.56,-0.26 -2.57,-0.4 z"
     class="cls-22" /><path
     style="fill:#e89a83"
     inkscape:connector-curvature="0"
     id="path318-8"
     d="m 338.58,452.72 a 34.85,34.85 0 0 1 -69.27,5.39 L 247.46,319.47 c 12.15,48.68 40.7,130.69 90.53,127 a 33.64,33.64 0 0 1 0.59,6.25 z"
     class="cls-24" /><path
     style="fill:#3b5c64"
     inkscape:connector-curvature="0"
     id="path320-0"
     d="m 394.1,247.58 h -0.27 z"
     class="cls-30" /><path
     style="fill:#3b5c64"
     inkscape:connector-curvature="0"
     id="path322-8"
     d="m 394.79,247.49 h -0.27 -0.24 z"
     class="cls-30" /><path
     style="fill:#ffffff"
     inkscape:connector-curvature="0"
     id="path324-0"
     d="m 433.19,345.87 a 2.07,2.07 0 1 1 0,2.93 2.08,2.08 0 0 1 0,-2.93 z"
     class="cls-29" /><path
     style="fill:#ffffff"
     inkscape:connector-curvature="0"
     id="path326-7"
     d="m 399.36,384.66 16.73,-16.73 13.44,13.45 a 4.94,4.94 0 1 0 2,-2 l -13.42,-13.48 -2,-2 -18.76,18.75 -9.2,-9.19 9.06,-33.78 33.79,-9.07 2.11,2.1 -29.81,29.78 a 4.94,4.94 0 1 0 2,2 l 29.78,-29.77 20.59,20.6 -7.07,26.39 -23.16,-23.17 6.87,-6.87 a 4.93,4.93 0 1 0 -2,-2 l -8.9,8.9 26.36,26.36 -1.12,4.2 -33.78,9.05 z"
     class="cls-29" /><path
     style="fill:#ffffff"
     inkscape:connector-curvature="0"
     id="path328-5"
     d="m 435.35,385.17 a 2.07,2.07 0 1 1 0,-2.93 2.09,2.09 0 0 1 0,2.93 z"
     class="cls-29" /><path
     style="fill:#ffffff"
     inkscape:connector-curvature="0"
     id="path330-4"
     d="m 402.43,368.3 a 2.06,2.06 0 1 1 0,-2.92 2.06,2.06 0 0 1 0,2.92 z"
     class="cls-29" /><path
     style="fill:#c7961d"
     inkscape:connector-curvature="0"
     id="path332-0"
     d="M 534.47,508.55 468,487.4 429.89,483.9 c 0,0 -10.89,19.02 -20.58,18.1 A 40.58,40.58 0 0 1 393,497 c 0,0 -3.69,20 -13.4,18.53 -9.71,-1.47 -2,-61.22 -2,-61.22 l 98.52,-20.41 58.34,-1.68 z"
     class="cls-31" /><path
     style="fill:#ffc19d"
     inkscape:connector-curvature="0"
     id="path334-0"
     d="m 636.61,464.83 a 34.34,34.34 0 0 1 -16.26,24.65 c -40,25.06 -154.44,-16.39 -154.44,-16.39 l -36.28,-9.66 -10.47,23.4 a 9.37,9.37 0 0 1 -12.61,4.62 c -1.92,0.56 -8.43,-1.46 -9.84,-4.44 -4.4,0.63 -8.35,-2 -8.55,-4.39 0,0 -5.22,25.32 -6.76,26.31 -4.4,2.79 -9,-1.58 -8.28,-5 0.72,-3.42 2.63,-47.34 2.63,-47.34 v 0 a 48.81,48.81 0 0 1 -5.42,1.11 c -3.8,0.52 -8.13,0.44 -7.63,-2.73 0,0 -1.33,-4.26 8,-7.11 3.5,-1.07 5.1,-3.2 6.64,-5.74 l 0.22,-0.36 c 2.49,-4.17 5,-9.35 15.45,-12.82 12.8,-4.26 26.57,-12.23 64.31,-7.94 l 100.68,9.61 -7.87,-27.12 66.64,-5.32 c 0,0 24.59,37.43 19.84,66.66 z"
     class="cls-21" /><path
     style="fill:#e89a83"
     inkscape:connector-curvature="0"
     id="path336-9"
     d="m 377.57,441.77 c -1.82,3.81 -1.82,14.82 -1.82,14.82 v 0 a 48.81,48.81 0 0 1 -5.42,1.11 c 3.27,-1.39 4,-10.44 7,-15.58 z"
     class="cls-24" /><path
     style="fill:#e89a83"
     inkscape:connector-curvature="0"
     id="path338-9"
     d="m 636.61,464.83 a 34.34,34.34 0 0 1 -16.26,24.65 c -40,25.06 -154.44,-16.39 -154.44,-16.39 l -36.28,-9.66 c 67.06,12.29 155.51,33.94 191.4,9.88 a 133.79,133.79 0 0 1 15.58,-8.48 z"
     class="cls-24" /><path
     style="fill:#efd8c5"
     inkscape:connector-curvature="0"
     id="path340-8"
     d="m 627.53,483.68 c -16.67,-29.43 -40.1,-46.9 -71.14,-53.22 L 536.5,395.61 c -36.83,-51.88 -33.84,-103.82 9.45,-122.15 9.37,9.57 24.87,23.15 38.52,43.65 15.51,23.29 40,60.52 60.52,113 6.43,16.36 -8.62,45.89 -17.46,53.57 z"
     class="cls-25" /><path
     style="fill:#786c63"
     inkscape:connector-curvature="0"
     id="path342-4"
     d="m 567.16,428.59 c -0.16,0.68 12,3.54 25.27,11.73 13.27,8.19 22.07,18 22.48,17.47 0.17,-0.19 -1.79,-2.9 -5.51,-6.69 a 86.37,86.37 0 0 0 -16,-12.68 80.2,80.2 0 0 0 -18.2,-8.25 c -4.9,-1.45 -8,-1.83 -8.04,-1.58 z"
     class="cls-32" /><path
     style="fill:#ab6651"
     inkscape:connector-curvature="0"
     id="path344-5"
     d="m 407.33,491.51 c 0.14,-0.09 -0.54,-1 -1.18,-2.7 a 14.09,14.09 0 0 1 1.55,-13.09 c 1,-1.46 1.9,-2.22 1.78,-2.34 a 6.12,6.12 0 0 0 -2.36,2 12.82,12.82 0 0 0 -1.62,13.62 5.93,5.93 0 0 0 1.83,2.51 z"
     class="cls-22" /><path
     style="fill:#ab6651"
     inkscape:connector-curvature="0"
     id="path346-9"
     d="m 397,486.92 c 0.3,-0.07 -1.18,-4 -0.24,-8.79 0.94,-4.79 3.64,-7.95 3.39,-8.13 -0.08,-0.08 -0.9,0.57 -1.87,1.94 a 15.7,15.7 0 0 0 -2.33,12.51 5.35,5.35 0 0 0 1.05,2.47 z"
     class="cls-22" /><path
     style="fill:#ab6651"
     inkscape:connector-curvature="0"
     id="path348-6"
     d="m 391.11,468.39 c -0.1,-0.07 -0.82,0.56 -1.66,1.78 a 14,14 0 0 0 -2.13,5.16 11.52,11.52 0 0 0 0.18,5.25 c 0.37,1.27 0.84,1.94 1,1.88 0.31,-0.11 -0.88,-3.11 -0.09,-7.09 0.79,-3.98 2.96,-6.84 2.7,-6.98 z"
     class="cls-22" /><path
     style="fill:#786c63"
     inkscape:connector-curvature="0"
     id="path350-0"
     d="m 301.69,490.89 a 54.59,54.59 0 0 0 14.2,-2.26 38.46,38.46 0 0 0 12.39,-6.45 33.27,33.27 0 0 0 5,-4.82 12.1,12.1 0 0 0 1.1,-1.36 l 1.05,-1.4 a 16.11,16.11 0 0 0 0.94,-1.48 l 0.93,-1.5 a 41,41 0 0 0 4.58,-13.55 29.12,29.12 0 0 1 -2.49,14.6 c -0.57,1.12 -1.08,2.29 -1.75,3.36 l -1.05,1.58 a 14.49,14.49 0 0 1 -1.11,1.55 33.86,33.86 0 0 1 -5.39,5.38 29,29 0 0 1 -3.09,2.16 25.1,25.1 0 0 1 -3.35,1.8 26.53,26.53 0 0 1 -3.52,1.39 23.5,23.5 0 0 1 -3.65,1 35,35 0 0 1 -14.79,0 z"
     class="cls-32" /><path
     inkscape:connector-curvature="0"
     style="fill:url(#linear-gradient-3)"
     id="path352-8"
     d="m 480,514.71 a 3.6,3.6 0 0 1 -3.5,3.6 l -272.87,1.06 -47.11,-125 a 10.07,10.07 0 0 1 9.14,-13.62 l 156.82,-4.4 a 10.05,10.05 0 0 1 9.86,7 l 40.8,126.46 103.31,1.3 a 3.6,3.6 0 0 1 3.55,3.6 z"
     class="cls-33" /><path
     inkscape:connector-curvature="0"
     style="fill:url(#linear-gradient-4)"
     id="path354-0"
     d="m 367.63,509.81 -166.53,2.88 c -22.39,-60.2 -37.52,-98.47 -44,-116.75 a 16.62,16.62 0 0 1 -1.24,-6.47 c 0.31,-4.87 3.37,-7.6 6.6,-8.08 15.74,-2.3 155.47,-3.2 155.47,-3.2 6.35,0.43 8.18,3.29 13.12,17.41 4.94,14.12 36.58,114.21 36.58,114.21 z"
     class="cls-34" /><path
     style="fill:#ffffff"
     inkscape:connector-curvature="0"
     id="path356-1"
     d="m 263.8,455 a 11.77,11.77 0 0 1 -2.54,3.1 11.53,11.53 0 1 1 -9.56,-20.05 l 0.52,-0.08 c -0.39,1.09 -0.74,2.07 -1.12,3.1 -0.27,-0.12 -0.46,-0.22 -0.66,-0.29 a 0.71,0.71 0 0 0 -0.25,0 c 0,0.08 0,0.19 0,0.24 a 1.6,1.6 0 0 1 0.13,2.19 c 0,0.06 0,0.2 0,0.23 a 0.25,0.25 0 0 0 0.24,0 c 0.17,-0.1 0.3,-0.24 0.47,-0.34 a 1.58,1.58 0 0 1 1.72,-0.1 1,1 0 0 0 0.35,0 1,1 0 0 0 -0.09,-0.32 1.53,1.53 0 0 1 -0.17,-1.93 0.7,0.7 0 0 0 0.09,-0.17 1.22,1.22 0 0 0 0,-0.27 1.16,1.16 0 0 0 -0.28,0.05 4.23,4.23 0 0 0 -0.41,0.33 1.28,1.28 0 0 1 0,-0.3 c 0.2,-0.72 0.41,-1.44 0.61,-2.16 a 0.52,0.52 0 0 1 0.59,-0.42 11.37,11.37 0 0 1 7.58,2.68 11.49,11.49 0 0 1 1.36,1.34 7.39,7.39 0 0 0 1.42,13.17 z"
     class="cls-29" /><path
     style="fill:#ffffff"
     inkscape:connector-curvature="0"
     id="path358-5"
     d="m 259.46,431.13 a 5.38,5.38 0 0 0 -2.6,1 15,15 0 0 0 -3.62,3.58 L 253,436 h -0.16 c 0.24,-1 0.41,-1.88 0.7,-2.76 a 6.64,6.64 0 0 1 2,-3.13 5.26,5.26 0 0 1 4.12,-1.1 21.46,21.46 0 0 1 2.95,0.61 c 0.61,0.15 0.61,0.22 0.43,0.81 a 8.11,8.11 0 0 1 -3.9,5.09 8.22,8.22 0 0 1 -5.23,0.78 l -0.15,-0.08 a 11.66,11.66 0 0 1 5.7,-5.09 z"
     class="cls-29" /></g></svg>