<?xml version="1.0" encoding="UTF-8" standalone="no"?>
<!-- Generator: Adobe Illustrator 24.3.0, SVG Export Plug-In . SVG Version: 6.00 Build 0)  -->

<svg
   xmlns:dc="http://purl.org/dc/elements/1.1/"
   xmlns:cc="http://creativecommons.org/ns#"
   xmlns:rdf="http://www.w3.org/1999/02/22-rdf-syntax-ns#"
   xmlns:svg="http://www.w3.org/2000/svg"
   xmlns="http://www.w3.org/2000/svg"
   xmlns:sodipodi="http://sodipodi.sourceforge.net/DTD/sodipodi-0.dtd"
   xmlns:inkscape="http://www.inkscape.org/namespaces/inkscape"
   version="1.1"
   id="Layer_1"
   x="0px"
   y="0px"
   viewBox="0 0 800 800"
   style="enable-background:new 0 0 800 800;"
   xml:space="preserve"
   sodipodi:docname="ai-3SH_azul.svg"
   inkscape:version="0.92.4 (5da689c313, 2019-01-14)"><metadata
   id="metadata491"><rdf:RDF><cc:Work
       rdf:about=""><dc:format>image/svg+xml</dc:format><dc:type
         rdf:resource="http://purl.org/dc/dcmitype/StillImage" /></cc:Work></rdf:RDF></metadata><defs
   id="defs489" /><sodipodi:namedview
   pagecolor="#ffffff"
   bordercolor="#666666"
   borderopacity="1"
   objecttolerance="10"
   gridtolerance="10"
   guidetolerance="10"
   inkscape:pageopacity="0"
   inkscape:pageshadow="2"
   inkscape:window-width="1920"
   inkscape:window-height="1017"
   id="namedview487"
   showgrid="false"
   inkscape:zoom="0.44222458"
   inkscape:cx="254.36035"
   inkscape:cy="500.4309"
   inkscape:window-x="1912"
   inkscape:window-y="-8"
   inkscape:window-maximized="1"
   inkscape:current-layer="Layer_1" />
<style
   type="text/css"
   id="style2">
	.st0{display:none;}
	.st1{display:inline;fill:#D0CDE1;}
	.st2{display:inline;fill:#3F3D56;}
	.st3{display:inline;fill:#53D267;}
	.st4{display:inline;fill:#FFFFFF;}
	.st5{display:inline;fill:#FFB8B8;}
	.st6{display:inline;fill:#2F2E41;}
	.st7{display:inline;fill:#575A89;}
	.st8{fill:#99D1F1;}
	.st9{fill:#51A1D8;}
	.st10{fill:#FCB216;}
	.st11{fill:#E9D498;}
	.st12{fill:#D89481;}
	.st13{fill:#AB6651;}
	.st14{fill:#3A2416;}
	.st15{fill:#E24F3C;}
	.st16{fill:#F9FBFD;}
	.st17{fill:#A66653;}
	.st18{fill:#3B5C64;}
	.st19{fill:#B56E5B;}
	.st20{fill:#F4AF36;}
	.st21{fill:#DE981F;}
	.st22{fill:#B93629;}
	.st23{fill:#F7D86D;}
	.st24{fill:#FFFFFF;}
	.st25{fill:none;}
	.st26{fill:#131A20;}
	.st27{fill:#606366;}
	.st28{fill:url(#SVGID_1_);}
	.st29{fill:#040506;}
	.st30{fill:#303335;}
	.st31{fill:#5A5A5A;}
	.st32{fill:#F7DD6B;}
	.st33{fill:#6D6E70;}
	.st34{fill:#DFE4E5;}
	.st35{fill:#E1922B;}
	.st36{fill:#EC1C24;}
</style>


<g
   transform="matrix(1.940209,0,0,1.940209,-70.62722,-113.78772)"
   data-name="Layer 1"
   id="Layer_1-2"><path
     style="fill:#99d1f1"
     inkscape:connector-curvature="0"
     id="path6-1"
     d="m 69,192.38 v 179.13 a 60,60 0 0 0 29.92,51.76 l 74.38,42.89 8.34,4.82 20,11.55 0.33,0.19 41.48,23.92 10.72,6.19 c 0.57,0.32 1.14,0.64 1.72,0.95 0.58,0.31 1.06,0.56 1.6,0.82 a 3.84,3.84 0 0 0 0.35,0.18 l 1.14,0.53 a 51.85,51.85 0 0 0 5.44,2.18 c 0.44,0.16 0.87,0.3 1.31,0.44 0.63,0.2 1.25,0.39 1.89,0.57 0.64,0.18 1.5,0.43 2.27,0.6 0.32,0.09 0.63,0.16 0.95,0.23 0.6,0.14 1.2,0.27 1.81,0.38 0.37,0.08 0.75,0.15 1.14,0.2 a 0.53,0.53 0 0 0 0.17,0 l 1,0.16 c 0.33,0.06 0.68,0.11 1,0.15 0.32,0.04 0.71,0.1 1.06,0.13 0.35,0.03 0.89,0.11 1.34,0.15 0.45,0.04 0.69,0.06 1,0.09 h 0.72 0.88 c 0.37,0 0.72,0 1.09,0.06 h 0.22 1.2 1.12 1.22 0.61 0.19 0.49 0.52 c 0.44,0 0.9,-0.06 1.34,-0.1 l 1.05,-0.09 c 0.89,-0.09 1.77,-0.2 2.65,-0.34 l 1.35,-0.2 0.3,-0.05 0.88,-0.16 c 0.36,-0.06 0.7,-0.13 1.05,-0.21 0.68,-0.14 1.35,-0.29 2,-0.45 h 0.05 c 0.69,-0.17 1.37,-0.35 2.05,-0.54 0.68,-0.19 1.36,-0.4 2,-0.62 l 0.43,-0.14 A 59,59 0 0 0 314,512.83 l 11,-6.38 38.36,-22.11 19.07,-11 7.44,-4.29 2.16,-1.25 v 0 l 1.37,-0.79 75.84,-43.73 a 59.89,59.89 0 0 0 29.91,-51.76 V 192.38 a 59,59 0 0 0 -0.92,-10.41 c -0.29,-1.62 -0.65,-3.23 -1.07,-4.81 a 59.85,59.85 0 0 0 -27.91,-36.54 v 0 L 363.88,79.82 337.39,64.55 335.79,63.63 323.17,56.34 314,51.06 a 59.55,59.55 0 0 0 -7.49,-3.65 l -1.7,-0.65 c -1.35,-0.5 -2.71,-0.95 -4.09,-1.34 -0.71,-0.2 -1.41,-0.39 -2.13,-0.57 A 61.18,61.18 0 0 0 285.77,43.1 h -1.69 a 59.79,59.79 0 0 0 -28,6.92 c -0.65,0.35 -1.29,0.69 -1.92,1.06 l -12.07,7 -49.08,28.3 -3.59,2.08 v 0 l -24.73,14.27 -3.54,2 -15,8.66 -3.4,2 -29.75,17.1 -3.53,2 v 0 l -10.56,6.09 c -0.9,0.52 -1.77,1 -2.63,1.61 -1,0.66 -2,1.35 -3,2.08 A 59.67,59.67 0 0 0 78,160.93 c -0.63,1 -1.23,2 -1.78,3.09 A 59.52,59.52 0 0 0 69,192.38 Z"
     class="cls-1" /><path
     style="fill:#fcb216"
     inkscape:connector-curvature="0"
     id="path8-9"
     d="m 284.09,43.08 h 1.69 a 61.18,61.18 0 0 1 12.82,1.75 c 0.72,0.18 1.42,0.37 2.13,0.57 1.38,0.39 2.74,0.84 4.09,1.34 l 1.7,0.65 a 59.55,59.55 0 0 1 7.48,3.67 l 9.16,5.28 12.62,7.29 1.6,0.92 26.49,15.27 105.42,60.8 v 0 a 59.85,59.85 0 0 1 27.91,36.54 c 0.42,1.58 0.78,3.19 1.07,4.81 a 59,59 0 0 1 0.92,10.41 v 179.13 a 59.89,59.89 0 0 1 -29.91,51.76 l -75.82,43.73 -1.37,0.79 v 0 l -2.17,1.21 -7.44,4.29 -19.07,11 -38.36,22.11 -11,6.38 a 59,59 0 0 1 -11.11,4.95 l -0.43,0.14 c -0.68,0.22 -1.35,0.43 -2,0.62 -0.65,0.19 -1.36,0.37 -2.05,0.54 h -0.05 c -0.67,0.16 -1.34,0.32 -2,0.45 -0.35,0.08 -0.69,0.15 -1.05,0.21 l -0.88,0.16 -0.3,0.05 c -0.45,0.08 -0.9,0.15 -1.35,0.2 -0.88,0.14 -1.76,0.25 -2.65,0.34 l -1.05,0.09 c -0.44,0 -0.9,0.08 -1.34,0.1 h -1 -0.19 -0.61 -1.22 -1.12 -1.42 c -0.37,0 -0.72,0 -1.09,-0.06 h -0.88 l -1.75,-0.14 c -0.45,0 -0.89,-0.09 -1.34,-0.15 -0.45,-0.06 -0.7,-0.08 -1.06,-0.13 -0.36,-0.05 -0.69,-0.09 -1,-0.15 l -1,-0.16 a 0.53,0.53 0 0 1 -0.17,0 c -0.39,0 -0.77,-0.12 -1.14,-0.2 -0.61,-0.11 -1.21,-0.24 -1.81,-0.38 -0.32,-0.07 -0.63,-0.14 -0.95,-0.23 -0.77,-0.17 -1.52,-0.37 -2.27,-0.6 -0.75,-0.23 -1.26,-0.36 -1.89,-0.57 -0.44,-0.14 -0.87,-0.28 -1.31,-0.44 a 51.85,51.85 0 0 1 -5.44,-2.18 l -1.14,-0.53 a 3.84,3.84 0 0 1 -0.35,-0.18 c -0.54,-0.26 -1.07,-0.53 -1.6,-0.82 -0.53,-0.29 -1.15,-0.63 -1.72,-0.95 l -10.72,-6.19 -41.6,-23.85 -0.33,-0.19 -20,-11.55 -8.34,-4.82 -74.42,-42.89 A 59.92,59.92 0 0 1 69,371.51 V 192.38 A 59.52,59.52 0 0 1 76.19,164 c 0.55,-1.06 1.15,-2.08 1.78,-3.09 a 59.67,59.67 0 0 1 15.31,-16.62 c 1,-0.73 2,-1.42 3,-2.08 0.86,-0.56 1.73,-1.09 2.63,-1.61 l 10.56,-6.09 v 0 l 3.53,-2 29.75,-17.16 3.4,-2 15,-8.66 3.54,-2 24.76,-14.29 v 0 L 193.04,86.32 242.13,58 254.2,51 c 0.63,-0.37 1.27,-0.71 1.92,-1.06 a 59.79,59.79 0 0 1 28,-6.92 m 0,-8.37 a 68.41,68.41 0 0 0 -31.88,7.89 v 0 0 c -0.69,0.37 -1.41,0.76 -2.15,1.19 l -12,7 -49.08,28.3 -2.44,1.41 -1.16,0.67 -24.87,14.31 -3.53,2 -15,8.68 -3.39,2 -29.76,17.17 -1.59,0.92 v 0 l -1.95,1.12 -10.56,6.09 c -1,0.59 -2,1.19 -3,1.83 -1.15,0.73 -2.31,1.54 -3.45,2.39 a 67.71,67.71 0 0 0 -17.43,18.92 c -0.77,1.25 -1.44,2.41 -2,3.55 A 68.23,68.23 0 0 0 60.7,192.4 v 179.11 a 67.43,67.43 0 0 0 5.72,27.26 66,66 0 0 0 3.82,7.44 67.9,67.9 0 0 0 24.57,24.3 l 74.37,42.9 8.35,4.81 20,11.55 0.32,0.18 41.49,23.94 10.66,6.18 c 0.67,0.39 1.31,0.74 1.95,1.08 0.64,0.34 1.16,0.61 1.75,0.91 l 0.44,0.21 v 0 0 0 c 0.4,0.2 0.87,0.42 1.38,0.65 a 63,63 0 0 0 6.12,2.45 c 0.49,0.18 1,0.33 1.46,0.49 0.73,0.24 1.46,0.46 2.17,0.66 0.71,0.2 1.72,0.49 2.58,0.69 l 1.1,0.26 c 0.77,0.17 1.42,0.31 2.05,0.43 0.42,0.09 0.81,0.16 1.2,0.22 l 0.48,0.08 c 0.31,0.06 0.63,0.11 0.95,0.15 0.32,0.04 0.77,0.13 1.17,0.18 l 1.23,0.15 c 0.5,0.07 1,0.12 1.49,0.16 h 0.07 c 0.66,0.06 1.34,0.12 2,0.16 h 0.06 l 0.9,0.05 1.26,0.06 h 1.51 1.44 1.27 0.61 0.44 l 1,-0.05 c 0.5,0 1,-0.06 1.58,-0.12 l 1,-0.09 h 0.11 c 1.1,-0.11 2.07,-0.23 3,-0.37 0.49,-0.06 1,-0.13 1.49,-0.23 l 0.36,-0.05 h 0.12 l 1,-0.19 c 0.38,-0.06 0.77,-0.14 1.18,-0.23 0.79,-0.16 1.52,-0.33 2.1,-0.47 l 0.54,-0.14 c 0.62,-0.15 1.28,-0.32 2.05,-0.54 0.77,-0.22 1.58,-0.47 2.24,-0.68 l 0.64,-0.21 a 67.59,67.59 0 0 0 12.6,-5.62 l 11.06,-6.39 38.35,-22.11 19.07,-11 7.44,-4.29 0.23,-0.14 v 0 l 2,-1.12 1.36,-0.79 75.83,-43.73 a 68.28,68.28 0 0 0 34.09,-59 V 192.38 a 67.45,67.45 0 0 0 -1.05,-11.88 c -0.33,-1.86 -0.74,-3.72 -1.23,-5.52 a 68.42,68.42 0 0 0 -31.81,-41.6 l -1.94,-1.12 v 0 L 368.06,72.58 341.57,57.3 l -1.6,-0.92 -12.62,-7.28 -9.16,-5.29 a 68.82,68.82 0 0 0 -8.55,-4.16 l -1.92,-0.74 c -1.67,-0.61 -3.2,-1.11 -4.71,-1.54 -0.91,-0.26 -1.69,-0.46 -2.42,-0.64 a 68.89,68.89 0 0 0 -14.57,-2 c -0.63,0 -1.28,0 -1.93,0 z"
     class="cls-2" /><path
     style="fill:#2a88d1"
     inkscape:connector-curvature="0"
     id="path10-2"
     d="m 311.41,308.12 a 10.93,10.93 0 0 0 13.06,-1.37 l 74.41,44.65 10,40.08 52.88,31.74 2.61,-2.52 -52.45,-31.48 -10,-40.07 -75.3,-45.15 a 10.91,10.91 0 1 0 -15.21,4.17 z M 310.68,295 a 7.4,7.4 0 1 1 2.54,10.17 7.34,7.34 0 0 1 -2.54,-10.17 z"
     class="cls-3" /><path
     style="fill:#2a88d1"
     inkscape:connector-curvature="0"
     id="path12-8"
     d="m 299.12,39.77 1.61,5.65 3.42,12 94.85,56.93 9.68,38.74 a 11.11,11.11 0 1 0 14.49,15.65 11.1,11.1 0 0 0 -3.8,-15.24 11.09,11.09 0 0 0 -7.28,-1.48 l -10,-40 -94.9,-56.92 -2.37,-8.34 -1.69,-5.94 c -1.32,-0.4 -2.66,-0.74 -4.01,-1.05 z m 112.69,115.94 a 7.52,7.52 0 0 1 5.71,0.85 7.57,7.57 0 0 1 2.59,10.35 7.54,7.54 0 1 1 -8.3,-11.2 z"
     class="cls-3" /><path
     style="fill:#2a88d1"
     inkscape:connector-curvature="0"
     id="path14-4"
     d="m 286.8,147 c 0.18,1.54 0.4,3.06 0.7,4.58 L 339.55,182.81 376,164.3 a 11.35,11.35 0 0 0 3.23,2.93 11.1,11.1 0 1 0 -5.07,-6.83 c 0.06,0.24 0.14,0.48 0.22,0.72 l -34.64,17.57 z m 91.62,6.87 a 7.54,7.54 0 1 1 8.3,11.19 7.54,7.54 0 0 1 -8.3,-11.19 z"
     class="cls-3" /><path
     style="fill:#2a88d1"
     inkscape:connector-curvature="0"
     id="path16"
     d="m 4,194.5 0.23,4.74 64.77,38.81 32.76,19.63 10.56,29.7 23.14,13.87 34,-3 26.51,15.88 a 12.26,12.26 0 1 0 2.12,-3.33 l -27.7,-16.6 -34,3 L 115.55,284.71 105,255 69,233.46 Z m 195.52,121.35 1.3,-2.17 a 8.19,8.19 0 0 1 4.36,-2.78 8.33,8.33 0 1 1 -6.05,10.1 8.18,8.18 0 0 1 0.39,-5.15 z"
     class="cls-3" /><path
     style="fill:#2a88d1"
     inkscape:connector-curvature="0"
     id="path18-9"
     d="m 413.49,271.87 a 12,12 0 0 0 17.81,-13.2 c -0.07,-0.26 -0.16,-0.52 -0.23,-0.78 l 37.38,-19 30.76,18.63 1.25,0.76 -0.24,-4.63 -1,-0.61 -30.6,-18.55 -39.29,19.94 a 12.11,12.11 0 0 0 -3.48,-3.16 12,12 0 0 0 -12.35,20.57 z m -0.81,-14.48 a 8.14,8.14 0 1 1 -0.92,6.16 8.08,8.08 0 0 1 0.92,-6.16 z"
     class="cls-3" /><path
     style="fill:#2a88d1"
     inkscape:connector-curvature="0"
     id="path20-4"
     d="m 168.42,438.09 a 7,7 0 0 1 -12.81,-5.21 l -53.06,-31.83 -18.8,4.71 -57,-34.21 1.84,-1.18 c 0.6,-0.39 1.22,-0.75 1.84,-1.12 l 54,32.36 18.81,-4.7 54.26,32.59 a 7,7 0 0 1 10.92,8.59 z"
     class="cls-3" /><path
     style="fill:#2a88d1"
     inkscape:connector-curvature="0"
     id="path22-4"
     d="M 291.48,467.23 A 11.11,11.11 0 1 0 313,461.85 l -0.21,-0.73 34.63,-17.57 42.5,25.45 2.36,1.41 1.76,-1.14 1.58,-1 -2.16,-1.3 -45.87,-27.53 -36.39,18.5 a 11.12,11.12 0 0 0 -18.47,0.89 11,11 0 0 0 -1.25,8.4 z m 4.3,-6.57 a 7.57,7.57 0 1 1 -0.84,5.71 7.51,7.51 0 0 1 0.84,-5.71 z"
     class="cls-3" /><path
     style="fill:#2a88d1"
     inkscape:connector-curvature="0"
     id="path24-6"
     d="m 2,154.3 0.25,5 66.75,40 76,45.6 a 13,13 0 0 0 23,12 13,13 0 0 0 -14.32,-19.31 12.78,12.78 0 0 0 -6.42,3.82 L 69,194.45 Z m 147.36,91.35 a 8.82,8.82 0 1 1 3,12.12 8.81,8.81 0 0 1 -3,-12.12 z"
     class="cls-3" /><path
     style="fill:#2a88d1"
     inkscape:connector-curvature="0"
     id="path26-3"
     d="m 329.93,245.08 142.8,85.58 a 13,13 0 1 0 2.29,-3.5 L 329.67,240.06 Z M 477,331.4 a 8.82,8.82 0 1 1 -1,6.69 8.78,8.78 0 0 1 1,-6.69 z"
     class="cls-3" /><path
     style="fill:#2a88d1"
     inkscape:connector-curvature="0"
     id="path28-7"
     d="M 130.14,166.43 1.8,89.41 c 0.3,-1.1 0.64,-2.18 1,-3.26 l 130.46,78.28 1.91,17.27 26.89,16.11 a 6,6 0 1 1 -1.73,2.84 l -28.28,-17 z"
     class="cls-3" /><path
     style="fill:#2a88d1"
     inkscape:connector-curvature="0"
     id="path30-3"
     d="m 172.77,123.85 a 6.23,6.23 0 1 1 -9.25,3.93 l -47.15,-28.26 -16.7,4.19 -10.41,-6.81 3.12,-2 7.83,5.14 16.71,-4.19 48.27,28.93 a 6.23,6.23 0 0 1 7.58,-0.93 z"
     class="cls-3" /><path
     style="fill:#2a88d1"
     inkscape:connector-curvature="0"
     id="path32-7"
     d="m 428.75,193.3 a 11.1,11.1 0 0 0 19.06,4.7 l 25.07,15 26.33,-2.32 v -3.59 l -25.49,2.26 -24,-14.38 a 11.1,11.1 0 0 0 -12.9,-15.16 11.1,11.1 0 0 0 -8.08,13.46 z m 4.31,-6.57 a 7.54,7.54 0 0 1 13.78,2.06 7.37,7.37 0 0 1 -0.35,4.66 l -1.18,2 a 7.51,7.51 0 0 1 -9.67,1.67 7.55,7.55 0 0 1 -2.58,-10.35 z"
     class="cls-3" /><path
     style="fill:#2a88d1"
     inkscape:connector-curvature="0"
     id="path34-5"
     d="m 199.49,163.91 a 6.47,6.47 0 1 1 -9.6,4.08 L 140.94,138.66 123.6,143 53.42,101 q 1.15,-1.4 2.4,-2.73 l 68.35,41 17.34,-4.34 50.11,30 a 6.46,6.46 0 0 1 7.87,-1.02 z"
     class="cls-3" /><path
     style="fill:#2a88d1"
     inkscape:connector-curvature="0"
     id="path36-6"
     d="m 79.67,21.1 59.84,35.9 10.19,40.8 11.48,6.89 65.19,39.12 a 11.102974,11.102974 0 0 0 19.29,11 11.14,11.14 0 0 0 -3.81,-15.25 11.15,11.15 0 0 0 -13.3,1.41 L 164.72,102.66 152.81,95.5 142.62,54.72 83,19 Z m 150,124.12 a 7.53,7.53 0 1 1 -0.86,5.71 7.5,7.5 0 0 1 0.86,-5.71 z"
     class="cls-3" /><path
     style="fill:#2a88d1"
     inkscape:connector-curvature="0"
     id="path38-3"
     d="m 94.37,11.63 90.94,56.65 2.09,18.89 2,1.23 v 0 l 29.73,17.82 a 11.28,11.28 0 1 0 7.8,-6.93 11.14,11.14 0 0 0 -6,3.8 l -28,-16.77 -2.12,-1.32 -2.09,-18.89 -91,-56.66 -3,2 z m 128.78,94.68 a 7.68,7.68 0 1 1 2.64,10.53 7.63,7.63 0 0 1 -2.64,-10.53 z"
     class="cls-3" /><path
     style="fill:#2a88d1"
     inkscape:connector-curvature="0"
     id="path40"
     d="m 339.05,371.36 a 11.13,11.13 0 0 0 12.38,8.33 l 10,40.12 51.57,30.93 2.66,-2.57 -51.09,-30.67 -9.71,-38.88 a 11.14,11.14 0 1 0 -15.81,-7.26 z m 4.33,-6.6 a 7.57,7.57 0 0 1 10.38,-2.59 7.56,7.56 0 1 1 -10.38,2.59 z"
     class="cls-3" /><path
     style="fill:#2a88d1"
     inkscape:connector-curvature="0"
     id="path42"
     d="m 0,114.2 0.21,4.29 76,45.53 34.5,20.68 9.56,26.87 20.94,12.55 30.79,-2.71 24,14.37 a 11.07,11.07 0 1 0 1.92,-3 l -25.07,-15 L 142,220.47 123.15,209.17 113.6,182.29 78,160.93 Z m 199.18,123.12 1.17,-1.95 a 7.61,7.61 0 1 1 -1.17,1.95 z"
     class="cls-3" /><path
     style="fill:#2a88d1"
     inkscape:connector-curvature="0"
     id="path44-6"
     d="m 437.53,151 a 6.42,6.42 0 0 0 7.71,-0.82 L 498.29,182 c -0.29,-1.62 -0.65,-3.23 -1.07,-4.81 L 447.08,147.1 a 6.45,6.45 0 1 0 -9.55,3.89 z"
     class="cls-3" /><path
     style="fill:#ffc19d"
     inkscape:connector-curvature="0"
     id="path46-6"
     d="m 229.69,99.07 c -0.16,16.54 14,16.16 18.19,15.35 l 1.52,80.85 -0.93,53.17 88.47,-1.33 -10.81,-35.05 -4.23,-13.72 c -0.44,-6.52 -0.63,-14.84 -0.73,-20.72 v -7.33 c 1.32,-0.17 28.44,-3.9 29.92,-31.45 0.56,-10.5 0.61,-26.09 0.45,-41.53 0,-1.4 0,-2.8 0,-4.19 -0.06,-5.14 -0.15,-10.19 -0.26,-15 0,-0.9 0,-1.8 -0.05,-2.69 -0.16,-7.94 -0.35,-15 -0.49,-20.29 -0.18,-6 -0.3,-9.63 -0.3,-9.63 a 98.47,98.47 0 0 0 -99.28,8.3 l -4.32,3 0.28,15 0.07,3.78 0.18,9.82 v 0.28 c -0.52,-0.12 -1.13,-0.25 -1.82,-0.36 a 20.52,20.52 0 0 0 -4.68,-0.25 h -0.07 a 15.11,15.11 0 0 0 -3.16,0.57 c -4.18,1.35 -7.87,4.87 -7.95,13.42 z"
     class="cls-4" /><path
     style="fill:#ab6651"
     inkscape:connector-curvature="0"
     id="path48-4"
     d="m 243,107.77 c -0.1,-0.07 -0.39,0.27 -1,0.56 a 3.89,3.89 0 0 1 -2.88,0 c -2.32,-0.88 -4.25,-4.59 -4.32,-8.57 a 12.7,12.7 0 0 1 1.13,-5.48 c 0.69,-1.61 1.75,-2.73 2.92,-2.93 a 2,2 0 0 1 2.15,1.11 c 0.29,0.62 0.15,1.06 0.26,1.1 0.11,0.04 0.48,-0.37 0.31,-1.28 a 2.48,2.48 0 0 0 -0.85,-1.39 2.91,2.91 0 0 0 -2.13,-0.58 c -1.7,0.1 -3.25,1.65 -4,3.38 a 13,13 0 0 0 -1.4,6.13 c 0.1,4.44 2.34,8.62 5.52,9.57 a 4.09,4.09 0 0 0 3.52,-0.55 c 0.68,-0.53 0.77,-1.03 0.77,-1.07 z"
     class="cls-5" /><path
     style="fill:#3a2416"
     inkscape:connector-curvature="0"
     id="path50-5"
     d="m 315.08,116.93 c 0,-0.24 2.71,-0.6 7.11,-1 1.12,-0.06 2.18,-0.24 2.4,-1 0.22,-0.76 -0.12,-2 -0.61,-3.32 -0.93,-2.72 -1.9,-5.58 -2.93,-8.58 -4.06,-12.2 -6.95,-22.23 -6.45,-22.38 0.5,-0.15 4.18,9.6 8.24,21.81 1,3 1.91,5.88 2.79,8.63 0.37,1.27 1,2.73 0.4,4.37 a 2.8,2.8 0 0 1 -1.9,1.55 7.83,7.83 0 0 1 -1.89,0.18 c -4.42,0.08 -7.15,-0.01 -7.16,-0.26 z"
     class="cls-6" /><path
     style="fill:#3a2416"
     inkscape:connector-curvature="0"
     id="path52-1"
     d="m 295.48,67.8 c -0.23,1.24 -4.61,1.4 -9.54,2.85 -4.93,1.45 -8.77,3.51 -9.61,2.57 -0.39,-0.45 0.14,-1.66 1.59,-3.07 A 17.33,17.33 0 0 1 292.51,66 c 1.97,0.46 3.05,1.22 2.97,1.8 z"
     class="cls-6" /><path
     style="fill:#3a2416"
     inkscape:connector-curvature="0"
     id="path54-6"
     d="m 345.31,75.62 c -1.05,0.67 -3.52,-1.31 -6.9,-2.58 -3.38,-1.27 -6.48,-1.62 -6.8,-2.83 -0.11,-0.58 0.67,-1.34 2.24,-1.77 a 10.66,10.66 0 0 1 11,4.35 c 0.9,1.39 0.95,2.49 0.46,2.83 z"
     class="cls-6" /><path
     style="fill:#2e5389"
     inkscape:connector-curvature="0"
     id="path56-5"
     d="m 249,93.31 q 2.15,1.45 4.36,2.84 a 55.69,55.69 0 0 0 32.17,9 c 22.35,-0.33 26.67,-13.48 32.38,-12.08 a 5.36,5.36 0 0 1 2.09,1.16 13.22,13.22 0 0 1 1.42,1.4 c 8,9.08 22.33,10.09 30.08,1.68 0,-1.4 0,-2.8 0,-4.19 -0.06,-5.14 -0.15,-10.19 -0.26,-15 0,-0.9 0,-1.8 -0.05,-2.69 -15.66,-4.54 -83.05,-3.87 -104,0.23 l -0.51,0.1 0.69,9.72 v 0.32 c -0.52,-0.13 -1.14,-0.27 -1.83,-0.4 3.91,2.12 3.59,5.2 3.46,7.91 z"
     class="cls-7" /><polygon
     style="fill:#f9fbfd"
     id="polygon58-6"
     points="307.66,84.01 309.13,90.15 283.07,97.45 272.33,86.1 282.53,80.23 "
     class="cls-8" /><polygon
     style="fill:#f9fbfd"
     id="polygon60-9"
     points="324.54,84.8 323.86,89.88 341.76,94.42 348.41,84.59 341.25,80.36 "
     class="cls-8" /><path
     style="fill:#3a2416"
     inkscape:connector-curvature="0"
     id="path62-4"
     d="m 354.66,8.63 a 17.46,17.46 0 0 0 -12.5,-4.36 c -4,0.34 -7.81,2.32 -11.78,1.86 -6.18,-0.72 -11.22,-7.17 -17.33,-6 C 309,0.93 306,5 301.86,5.18 299.02,5.32 296.48,3.57 293.8,2.61 a 15.27,15.27 0 0 0 -13.32,1.6 C 278.66,5.41 277,7 274.92,7.55 272.41,8.15 269.86,7.04 267.36,6.4 a 13.93,13.93 0 0 0 -8.09,0.1 8.91,8.91 0 0 0 -4.46,3.5 c -0.44,0.69 -0.52,1.89 -1,2.46 -0.68,0.85 -2.11,0.73 -3.08,0.65 -1.57,-0.14 -3.5,-0.66 -5,-0.09 a 7,7 0 0 0 -2.89,2.17 9.25,9.25 0 0 0 -1.84,7.17 6.7,6.7 0 0 1 -0.36,4.46 c -0.7,1.24 -2,1.57 -3.07,2.35 A 12.36,12.36 0 0 0 235.78,48 c 0.71,0.71 1.73,1.16 2.35,1.91 a 7,7 0 0 1 1,2 18.21,18.21 0 0 1 0.83,4.87 c 0.14,2.29 -0.11,4.53 -0.16,6.81 -0.18,7.71 0,15.53 1,21.51 13.32,-0.69 5.69,11.92 9,12.24 8.64,0.83 7,-23 7,-23 14.42,-4.89 10,-26.35 13.7,-29.42 3.7,-3.07 11.4,-10.24 40.5,6.17 11.29,6.37 26.64,6.82 35.1,5.27 l 0.74,-0.12 h 0.18 c 0.09,0 0.15,-0.07 0.24,-0.09 a 26.81,26.81 0 0 0 7.74,-2.94 15.08,15.08 0 0 0 6.57,-6.72 c 1.26,-2.92 1,-6.64 -1.26,-8.91 a 20.42,20.42 0 0 0 4.61,-9.33 C 367.38,16.12 356.26,10 354.66,8.63 Z"
     class="cls-6" /><path
     style="fill:#e89a83"
     inkscape:connector-curvature="0"
     id="path64-4"
     d="m 274.47,154.44 c 1.82,8.55 10.35,14.08 20.65,17.41 a 95.75,95.75 0 0 0 26.05,4.15 v -5.75 a 89,89 0 0 1 -24.77,-2.8 c -10.94,-2.87 -19.13,-7.72 -21.93,-13.01 z"
     class="cls-9" /><path
     style="fill:#ab6651"
     inkscape:connector-curvature="0"
     id="path66-8"
     d="m 309.5,138.2 c -7.13,-1.1 -15.48,-7.46 -12.72,-16.42 1.74,3.26 10.67,10 19.29,12.74 v 0 a 6.14,6.14 0 0 1 -6.57,3.68 z"
     class="cls-5" /><path
     style="fill:#3a2416"
     inkscape:connector-curvature="0"
     id="path68-8"
     d="m 314.61,138 a 12.18,12.18 0 0 1 -7.25,0.35 18,18 0 0 1 -6.76,-3.09 13.71,13.71 0 0 1 -4.68,-6 11.69,11.69 0 0 1 -0.14,-7.72 v 0 a 1.05,1.05 0 0 1 1.32,-0.67 1.1,1.1 0 0 1 0.6,0.5 10.28,10.28 0 0 0 1.63,2.06 c 0.65,0.66 1.33,1.33 2.06,1.94 1.45,1.24 3,2.4 4.56,3.51 1.56,1.11 3.22,2.13 4.91,3.09 a 57.77,57.77 0 0 0 5.21,2.64 33.18,33.18 0 0 1 -5.63,-1.79 40.44,40.44 0 0 1 -5.32,-2.63 39.75,39.75 0 0 1 -4.95,-3.34 17.3,17.3 0 0 1 -4.31,-4.49 l 1.91,-0.19 a 10.39,10.39 0 0 0 0.08,6.41 12.66,12.66 0 0 0 3.84,5.34 18.79,18.79 0 0 0 6,3.4 13.65,13.65 0 0 0 6.92,0.68 z"
     class="cls-6" /><path
     style="fill:#3b5c64"
     inkscape:connector-curvature="0"
     id="path70-9"
     d="m 323.92,198.41 0.26,0.05 h 0.22 z"
     class="cls-10" /><path
     style="fill:#e89a83"
     inkscape:connector-curvature="0"
     id="path72-3"
     d="m 297.79,201.12 c 0.52,3 2.54,5.53 4.14,8.13 4.87,7.93 6.2,18.23 3.4,26.32 l 20.8,-23.51 -4.23,-13.72 c -0.44,-6.52 -0.63,-14.84 -0.73,-20.72 V 176 a 95.75,95.75 0 0 1 -26.05,-4.19 13.33,13.33 0 0 0 5.63,11.42 c 1.36,0.87 2.85,1.39 4.16,2.38 a 5.16,5.16 0 0 1 2.23,4.34 3.53,3.53 0 0 1 -2.49,2.76 c -1.18,0.42 -2.47,0.51 -3.61,1 -2.41,1.16 -3.79,4.29 -3.25,7.41 z"
     class="cls-9" /><path
     style="fill:#f4af36"
     inkscape:connector-curvature="0"
     id="path74-7"
     d="m 354.45,400.27 c 0,0 -36.63,43.83 -9.89,88.73 64.52,0 156.77,-44.86 190.58,-86.87 0,0 -41.76,4.7 -44,-25 -1.69,-22.4 12.94,-37.22 49.09,-48.75 38.56,-12.3 64.09,-42.18 79.82,-92.92 -40.1,22.09 -81.62,36.49 -134.93,0 C 431.81,198.97 378,184.38 332.75,193.6 l -3.64,7.4 -48.58,98.46 z"
     class="cls-11" /><path
     style="fill:#de981f"
     inkscape:connector-curvature="0"
     id="path76-2"
     d="m 329.11,201 c 2.21,6.45 1,24.32 10,29.69 21.28,-3.69 80.43,0.09 122,25.64 48.53,29.85 123.1,28.93 159,-20.79 -40.1,22.09 -81.62,36.49 -134.93,0 C 431.87,199.05 378,184.38 332.75,193.6 Z"
     class="cls-12" /><path
     style="fill:#426dc3"
     inkscape:connector-curvature="0"
     id="path78"
     d="m 69,361.18 c 11,10.75 23.1,20.12 30.48,24.32 17.13,9.77 22.9,10.93 22.9,10.93 13.14,3.49 30.19,9.44 30.72,9.62 v 0 c 0.19,-0.33 0.38,-0.66 0.55,-1 0.17,-0.34 0.48,-0.85 0.71,-1.29 0.71,-1.26 1.4,-2.53 2.09,-3.81 q 2.06,-3.81 4.05,-7.67 l 0.27,-0.53 c 0.57,-1.11 1.14,-2.22 1.7,-3.33 0.56,-1.11 1.23,-2.46 1.83,-3.69 0.6,-1.23 1.21,-2.47 1.81,-3.71 0.07,-0.16 0.15,-0.32 0.23,-0.48 0.52,-1.08 1,-2.16 1.54,-3.25 a 1.63,1.63 0 0 0 0.11,-0.23 c 0.56,-1.17 1.1,-2.33 1.64,-3.5 q 1.08,-2.37 2.15,-4.74 v 0 c -1.89,-2.26 -3.75,-4.52 -5.63,-6.79 -11.22,-9.89 -23.58,-18.18 -36.4,-25.8 l -1.3,-0.39 1.3,0.38 c 1.14,-3.38 2.22,-6.76 3.42,-10.1 0.82,-2.31 1.68,-4.48 4.62,-5.16 a 136.26,136.26 0 0 0 25.7,-8.96 110.54,110.54 0 0 0 23.86,-15 c 1.92,-1.56 3.93,-2.53 6.11,-1.93 4.24,1.15 4.06,9 5.15,13.56 1.19,5 2.27,10 3.31,15 0.16,0.8 0.32,1.58 0.49,2.37 1.3,6.39 2.53,12.77 3.77,19.17 0.09,0.44 0.19,0.89 0.26,1.34 0.36,1.79 0.71,3.58 1.07,5.38 1,4.95 2,9.92 3.09,14.9 a 49.25,49.25 0 0 0 -0.15,15.51 c 0,0 0,0 0,0.05 0.07,0.53 0.14,1 0.2,1.33 a 0.49,0.49 0 0 0 -0.06,0.23 0.69,0.69 0 0 0 0.14,0.39 c -1,3 -2.08,6.07 -3.12,9.1 a 24.88,24.88 0 0 1 -0.16,4 c -0.37,2 -0.75,4 -1.12,6.09 q -1.14,6.1 -2.27,12.24 c -0.62,3.34 -1.25,6.68 -1.86,10 -0.08,0.41 -0.15,0.82 -0.23,1.22 -0.5,2.64 -1,5.27 -1.48,7.89 q -2.22,11.83 -4.53,23.66 c -0.39,2 -0.69,3.94 -1,5.93 -0.31,1.99 -0.56,3.93 -0.89,5.89 0,0 0,0 0,0.06 -0.12,0.7 -0.24,1.41 -0.37,2.11 -0.16,0.87 -0.35,1.74 -0.55,2.62 -0.2,0.88 -0.35,1.47 -0.55,2.2 0,0 0,0 0,0 v 0.1 l 17.4,10.05 v 0 l 0.29,0.16 36.12,20.85 a 0.49,0.49 0 0 0 0,-0.11 c 10.08,-25.84 19.17,-52 26.83,-78.78 1.26,-4.4 3.27,-6.48 8,-5.92 3.08,0.36 6.25,0.17 9.38,0.24 2,24.5 3.69,56.57 5.65,81.07 0.33,4.2 0.72,9.37 1.08,14.33 0.33,-0.07 0.66,-0.14 1,-0.23 0.66,-0.16 1.31,-0.33 1.95,-0.52 0.38,-0.1 0.75,-0.2 1.13,-0.33 0.38,-0.13 0.67,-0.2 1,-0.31 l 0.43,-0.14 A 59,59 0 0 0 314,512.83 l 3.41,-2 7.63,-4.41 25.56,-14.73 c 0.18,-1.6 0.32,-2.81 0.32,-2.82 1.39,-6.89 2.55,-15.57 3.52,-25.14 2.49,-24.74 3.61,-55.32 3.63,-75.69 0,-10.44 -0.27,-18.21 -0.8,-21.13 0.54,-1.1 1.08,-2.19 1.61,-3.29 v 0 c 0.21,-0.43 0.42,-0.88 0.63,-1.32 q 2.81,-5.9 5.33,-11.87 c 0.2,-0.46 0.39,-0.93 0.57,-1.39 a 353.56,353.56 0 0 0 15.69,-46.72 c 1,-3.76 2,-4.74 5.17,-2.16 a 49.76,49.76 0 0 0 5.09,4 c 1,0.72 2,1.42 3.15,2.09 a 98.18,98.18 0 0 0 11.5,6.08 l 0.48,0.33 c 1.22,0.51 2.46,1 3.69,1.47 l 0.11,0.05 c 18.85,7.75 42.17,12.58 59.09,12.66 -8.54,2.19 -15.52,3.71 -22.32,5.77 a 103.71,103.71 0 0 0 -19.59,8.73 c -10.27,5.67 -19,13.36 -28,20.7 l -8.75,10.38 1,2.2 2,4.41 c 0.67,1.47 1.34,2.93 2,4.38 0.66,1.45 1.39,2.91 2.09,4.36 0.59,1.2 1.19,2.4 1.79,3.6 l 1.48,2.87 c 0.39,0.76 0.8,1.5 1.2,2.25 0.4,0.75 0.72,1.34 1.09,2 0.37,0.66 0.74,1.34 1.12,2 0,0.09 0.1,0.18 0.16,0.27 0.36,0.64 0.73,1.28 1.12,1.93 0.39,0.65 0.82,1.4 1.23,2.09 l 1.27,2.06 v 0 c 10.89,-2.51 28.57,-8.49 38.75,-12 a 82.72,82.72 0 0 0 14.84,-6.9 l 3.09,-1.83 a 145.41,145.41 0 0 0 26.74,-19.82 c 2.6,-2.47 5.1,-5.05 7.47,-7.75 A 110.36,110.36 0 0 0 512.1,340.6 c 1.3,-2.25 2.52,-4.56 3.68,-6.94 1.67,-3.43 3.14,-6.9 2.71,-10.85 -3.83,-11.13 -7.42,-22.31 -13,-32.8 -2,-3.7 -4.07,-7.26 -6.32,-10.68 -2,-3.08 -4.15,-6 -6.39,-8.92 v 0 c -10.38,-13.29 -23,-24.46 -37.14,-34.32 A 231,231 0 0 0 418.5,218 v 0 l -0.18,-0.06 c -2.43,-0.77 -30.34,-9.47 -57.73,-14.43 v 0 c -3.09,-0.56 -6.17,-1.07 -9.22,-1.51 l -1.7,-0.25 c -7.56,-1.26 -14.23,-2.43 -14.23,-2.43 a 11.3,11.3 0 0 1 -4.94,-1 19.39,19.39 0 0 1 -5.69,-3.93 l -0.06,-0.06 a 13.46,13.46 0 0 1 -3.27,-5.17 c -0.09,-0.25 -0.18,-0.49 -0.25,-0.74 -0.15,0.18 -0.28,0.38 -0.43,0.59 -4.27,6.26 -10,26 -14.6,45.72 -0.24,1 -0.49,2.08 -0.72,3.11 -17.75,-23.83 -38.29,-45.46 -56.35,-58 l -0.17,-0.12 -1.7,15 c -3.76,1 -8.14,1.81 -13.46,2.72 -5,0.85 -10.76,1.75 -17.63,2.9 l -4.46,0.76 -1.83,0.31 -3.62,0.64 -6.13,1.07 c -6.41,1.11 -13.22,2.51 -20.27,4.25 -0.57,0.14 -1.13,0.28 -1.71,0.44 -6,1.53 -12.27,3.32 -18.55,5.43 l -1.59,0.53 a 209.16,209.16 0 0 0 -37.58,16.93 v 0 C 108.36,237 91,249.83 81.33,259.47 A 151.3,151.3 0 0 0 69,273.34 C 55.59,290.5 50.68,305.5 45.72,319.94 42.15,330.31 54.51,347 69,361.18 Z"
     class="cls-13" /><path
     style="fill:#ffffff"
     inkscape:connector-curvature="0"
     id="path80"
     d="m 312.36,283 a 1.85,1.85 0 1 1 0,2.62 1.86,1.86 0 0 1 0,-2.62 z"
     class="cls-14" /><path
     style="fill:#ffffff"
     inkscape:connector-curvature="0"
     id="path82-0"
     d="m 282.12,317.69 14.95,-14.95 12,12 A 4.41,4.41 0 1 0 310.9,313 l -12,-12 -1.81,-1.81 -16.76,16.76 -8.22,-8.22 8.09,-30.19 30.19,-8.09 1.88,1.88 -26.61,26.62 a 4.41,4.41 0 1 0 1.81,1.81 l 26.61,-26.62 18.41,18.41 -6.32,23.59 -20.7,-20.7 6.14,-6.15 a 4.41,4.41 0 1 0 -1.81,-1.81 l -8,8 23.57,23.56 -1,3.75 -30.19,8.09 z"
     class="cls-14" /><path
     style="fill:#ffffff"
     inkscape:connector-curvature="0"
     id="path84-9"
     d="m 314.29,318.15 a 1.85,1.85 0 1 1 0,-2.62 1.86,1.86 0 0 1 0,2.62 z"
     class="cls-14" /><path
     style="fill:#ffffff"
     inkscape:connector-curvature="0"
     id="path86"
     d="m 284.87,303.07 a 1.85,1.85 0 1 1 0,-2.61 1.85,1.85 0 0 1 0,2.61 z"
     class="cls-14" /><path
     style="fill:#f4af36"
     inkscape:connector-curvature="0"
     id="path88"
     d="m 207.62,393.38 -0.58,-0.6 -1.37,-1.42 c -0.35,-0.36 -0.69,-0.73 -1,-1.08 q -6.83,-7.12 -13.68,-14.23 -4,-4.14 -7.95,-8.31 c -6.3,-6.61 -6.26,-6.65 -11.22,1.07 v 0 c -0.71,1.59 -1.42,3.17 -2.15,4.74 q -3.45,7.5 -7.16,14.87 c -0.64,1.29 -1.3,2.57 -2,3.86 q -2,3.85 -4.06,7.67 c -0.68,1.27 -1.37,2.55 -2.08,3.81 -0.42,0.76 -0.84,1.53 -1.27,2.28 a 17.21,17.21 0 0 1 -1.51,3.69 c -3.72,5.3 -3.19,8.16 3.86,9.86 9,2.15 17.65,5.56 27.79,8.87 -2.95,2.54 -5.12,4.11 -6.92,6 -9.6,10.16 -9.32,20.21 0.8,29.83 a 43,43 0 0 0 6.24,5 4,4 0 0 1 2,2.54 c -1.54,-1 -4.84,-3.25 -6.82,-4.7 -2.55,-1.87 -5.64,0.86 -7.58,3.64 -1.45,1.66 -2.65,4.25 -0.19,6.54 2,1.83 3.84,3.76 5.74,5.65 7.33,7.27 7.33,7.27 13.94,0.14 a 36.28,36.28 0 0 0 2.12,-5.76 c 1.74,-6.17 2.16,-12.65 3.38,-18.93 q 2.32,-11.82 4.54,-23.66 c 0.5,-2.62 1,-5.26 1.48,-7.89 0.08,-0.4 0.15,-0.81 0.22,-1.22 q 0.95,-5 1.87,-10 1.13,-6.12 2.27,-12.24 c 0.37,-2 0.75,-4.06 1.12,-6.09 a 26.11,26.11 0 0 0 0.17,-3.93 z"
     class="cls-11" /><path
     style="fill:#f7d86d"
     inkscape:connector-curvature="0"
     id="path90"
     d="m 354.45,463.76 c 2.13,2.73 3.61,4.38 6,7.21 2,2.33 3.92,4.62 5.69,6.8 10.93,13.56 10.87,13.46 22.73,0.87 2.94,-3.12 2.84,-5.66 0,-8.87 -1.91,-2.89 -4.64,-4.65 -7.3,-2.7 -1.86,1.37 -4.38,3.42 -5.71,4.5 0.6,-1.36 2,-2.66 3.93,-4.1 14.75,-11 15.34,-23.15 2.36,-35.3 -1.24,-1.16 -3.24,-1.74 -3.45,-4.2 6.87,-1.69 21.86,-7 22.67,-7.34 9.92,-4.3 9.92,-4.3 6.94,-13.76 v 0 c -0.43,-0.68 -0.86,-1.37 -1.28,-2.06 -0.42,-0.69 -0.83,-1.38 -1.24,-2.09 -0.41,-0.71 -0.76,-1.28 -1.11,-1.93 a 1.83,1.83 0 0 1 -0.16,-0.26 c -0.38,-0.67 -0.76,-1.34 -1.12,-2 -0.36,-0.66 -0.74,-1.33 -1.1,-2 -0.36,-0.67 -0.8,-1.5 -1.19,-2.26 -0.51,-0.94 -1,-1.9 -1.48,-2.86 -0.6,-1.2 -1.2,-2.4 -1.79,-3.6 -0.71,-1.46 -1.4,-2.91 -2.09,-4.36 -0.69,-1.45 -1.37,-2.92 -2,-4.39 -0.63,-1.47 -1.34,-2.93 -2,-4.4 -0.34,-0.73 -0.67,-1.46 -1,-2.2 a 20.61,20.61 0 0 1 -1.51,-2.17 c -2.05,-4.06 -3.39,-6.58 -4.5,-7.85 -2.39,-2.73 -3.76,0.29 -9,6.26 -1.53,1.77 -3.08,3.51 -4.65,5.24 -0.3,0.34 -0.62,0.68 -0.93,1 -4,4.45 -8.15,8.81 -12.21,13.23 -0.2,2.87 -0.57,5.75 -0.59,8.61 -0.16,14.45 -2.73,61.92 -2.91,66.98 z"
     class="cls-15" /><path
     style="fill:#2e5389"
     inkscape:connector-curvature="0"
     id="path92-7"
     d="m 290.66,423.9 v 0 c 2,24.5 3.69,56.57 5.65,81.07 0.33,4.2 0.72,9.37 1.08,14.33 0.33,-0.07 0.66,-0.14 1,-0.23 0.66,-0.16 1.31,-0.33 1.95,-0.52 0.38,-0.1 0.75,-0.2 1.13,-0.33 0.38,-0.13 0.67,-0.2 1,-0.31 l 0.43,-0.14 a 59,59 0 0 0 11.1,-4.94 l 3.41,-2 c 0,-0.35 0,-0.67 0,-0.94 0.06,-2.63 0.13,-5.26 0.19,-7.9 0.05,-2 0.34,-11.66 0.38,-13.69 0.06,-2.59 0.11,-5.18 0.17,-7.77 0.39,-19.47 0.11,-39 0.14,-58.44 a 117.51,117.51 0 0 1 0.8,-22.73 v 0 a 3.79,3.79 0 0 0 -2.69,2.72 c -3.4,13.43 -13.65,18.7 -25.74,21.82 z"
     class="cls-7" /><path
     style="fill:#2e5389"
     inkscape:connector-curvature="0"
     id="path94"
     d="m 241.34,376.45 a 34,34 0 0 1 -0.67,7.08 21.17,21.17 0 0 1 -0.59,2.21 q -6,20.38 -12,40.78 -6,20.4 -12,40.81 l -0.32,1.1 c -0.16,0.57 -0.34,1.17 -0.52,1.82 -0.31,1.06 -0.64,2.2 -1,3.43 -1.14,4 -2.49,8.74 -3.94,13.95 l -0.29,-0.16 -17.43,-10.07 c 1.74,-6.17 2.16,-12.65 3.38,-18.93 q 2.32,-11.82 4.54,-23.66 c 0.5,-2.62 1,-5.26 1.48,-7.89 0.08,-0.4 0.15,-0.81 0.22,-1.22 q 0.95,-5 1.87,-10 1.13,-6.12 2.27,-12.24 c 0.37,-2 0.75,-4.06 1.12,-6.09 a 26.11,26.11 0 0 0 0.16,-4 l 3.13,-9.09 c 0,-0.16 -0.06,-0.38 -0.1,-0.63 -0.04,-0.25 -0.12,-0.81 -0.2,-1.34 0,0 0,0 0,0 a 49.26,49.26 0 0 1 0.15,-15.51 q -1.64,-7.49 -3.09,-14.9 c -0.36,-1.79 -0.71,-3.59 -1.06,-5.38 l -0.27,-1.34 c -1.24,-6.4 -2.47,-12.78 -3.77,-19.17 -0.17,-0.79 -0.33,-1.57 -0.49,-2.36 -1,-5 -2.12,-10 -3.31,-15 -1.09,-4.59 -0.91,-12.41 -5.15,-13.56 -2.18,-0.59 -4.19,0.37 -6.11,1.92 a 110,110 0 0 1 -23.87,14.99 135.77,135.77 0 0 1 -25.71,9 c -2.93,0.68 -3.78,2.85 -4.61,5.16 -1.2,3.34 -2.29,6.72 -3.42,10.1 -7.22,-2.06 -14.24,-4.83 -21.53,-6.82 -0.66,-0.19 -1.33,-0.36 -2,-0.52 -0.67,-0.16 -1.34,-0.34 -2,-0.48 -1.34,-0.31 -2.7,-0.57 -4.07,-0.8 l -1,-0.16 -1,-0.14 c 1.2,-0.24 2.42,-0.46 3.62,-0.67 8.52,-1.51 17,-2.76 25,-6.65 q 4.35,-2.13 8.57,-4.42 c 3.52,-1.9 7,-3.91 10.36,-6 q 10.17,-6.27 19.63,-13.49 l 1.89,-1.46 c 1.25,-1 2.5,-2 3.73,-3 q 5.58,-4.5 10.92,-9.3 3.57,-3.19 7,-6.53 c 0.77,-0.75 1.43,-1.38 2,-1.9 l 0.64,-0.56 c 0.3,-0.25 0.57,-0.47 0.82,-0.64 l 0.47,-0.28 c 1.37,-0.7 2.08,0.2 3.6,2.77 l 1.37,2.35 a 57.24,57.24 0 0 0 19.41,19.88 64.68,64.68 0 0 0 13.48,6.27 c 0.62,0.2 1.2,0.41 1.73,0.62 a 7.41,7.41 0 0 1 2.44,1.5 4.39,4.39 0 0 1 0.63,0.78 c 0,0.08 0.09,0.15 0.13,0.22 a 4.64,4.64 0 0 1 0.34,0.75 l 0.18,0.57 c 0.05,0.19 0.09,0.4 0.13,0.62 0.04,0.22 0.09,0.68 0.12,1.06 0.15,2.36 0.3,4.74 0.46,7.1 0.16,2.36 0.31,4.74 0.47,7.1 0.19,2.75 0.39,5.49 0.58,8.23 0.23,3.11 0.45,6.2 0.68,9.3 l 0.28,3.78 q 0.56,7.62 1.12,15.26 v 0 c 0.13,1.69 0.41,3.76 0.68,6 a 79,79 0 0 1 0.72,9.85 z"
     class="cls-7" /><path
     style="fill:#688acf"
     inkscape:connector-curvature="0"
     id="path96"
     d="m 304.05,340.73 a 4.32,4.32 0 0 0 4.33,4.32 4.26,4.26 0 0 0 2.56,-0.85 l 9.53,9.53 v 0.16 0 l -1,7 5.93,5.93 h 2 l -6.4,-6.38 0.67,-4.93 0.31,-2.28 -10,-10 a 4.6,4.6 0 0 0 0.31,-0.53 4.22,4.22 0 0 0 0.47,-1.95 4.32,4.32 0 0 0 -4.32,-4.33 4.17,4.17 0 0 0 -0.71,0.06 v 0 a 4.26,4.26 0 0 0 -2.34,1.2 4.31,4.31 0 0 0 -1.34,3.05 z m 1.39,0 a 2.94,2.94 0 0 1 2.94,-2.94 h 0.27 a 2.9,2.9 0 0 1 2.66,2.92 4.2,4.2 0 0 1 -0.06,0.61 2.92,2.92 0 0 1 -2.87,2.32 2.94,2.94 0 0 1 -2.94,-2.93 z"
     class="cls-16" /><path
     style="fill:#688acf"
     inkscape:connector-curvature="0"
     id="path98"
     d="m 336,324.73 a 4.33,4.33 0 0 0 6.71,3.61 l 22.11,22.11 c 0.2,-0.46 0.39,-0.93 0.57,-1.39 L 343.76,327.4 a 4.34,4.34 0 0 0 -0.34,-5.73 4.33,4.33 0 0 0 -7.39,3.06 z m 1.4,0 a 2.93,2.93 0 0 1 5,-2.07 2.88,2.88 0 0 1 0.86,2.07 2.92,2.92 0 0 1 -2.94,2.93 2.94,2.94 0 0 1 -2.93,-2.93 z"
     class="cls-16" /><path
     style="fill:#688acf"
     inkscape:connector-curvature="0"
     id="path100"
     d="m 341.78,340.91 a 2.52,2.52 0 0 0 3,0.42 l 9.28,9.29 -1,7.2 5.82,5.82 c 0.21,-0.44 0.43,-0.88 0.64,-1.33 l -5,-5 1,-7.21 -9.77,-9.76 a 2.5,2.5 0 0 0 -0.4,-3 2.5208382,2.5208382 0 1 0 -3.57,3.56 z"
     class="cls-16" /><path
     style="fill:#688acf"
     inkscape:connector-curvature="0"
     id="path102"
     d="m 325.75,350.29 a 2.55,2.55 0 0 0 3.07,0.37 l 16.08,16.08 h 7 l 0.18,0.18 h 2 l -1.56,-1.57 h -7 l -15.71,-15.71 a 2.51,2.51 0 0 0 -4,-2.93 2.53,2.53 0 0 0 -0.06,3.58 z"
     class="cls-16" /><path
     style="fill:#688acf"
     inkscape:connector-curvature="0"
     id="path104-6"
     d="m 256.4,256.78 10.89,10.89 a 4.7,4.7 0 0 0 7.17,6 4.62,4.62 0 0 0 1.37,-3.32 4.68,4.68 0 0 0 -4.7,-4.7 4.73,4.73 0 0 0 -2.79,0.92 L 258,256.24 l 1.07,-7.83 -47.38,-47.41 -1.83,0.31 47.6,47.6 z m 12.48,11.34 a 3.13,3.13 0 0 1 2.25,-0.94 3.19,3.19 0 1 1 -2.25,0.94 z"
     class="cls-16" /><path
     style="fill:#688acf"
     inkscape:connector-curvature="0"
     id="path106-3"
     d="m 158,213.71 20.55,20.56 v 6.93 l 11.7,11.7 6.58,-0.89 42.77,42.79 a 4.74,4.74 0 0 0 -1,2.9 4.73,4.73 0 0 0 4.7,4.71 4.71,4.71 0 0 0 3.33,-8 4.66,4.66 0 0 0 -3.33,-1.41 4.73,4.73 0 0 0 -2.58,0.76 l -43.36,-43.35 -6.59,0.89 -10.72,-10.73 v -6.94 l -20.47,-20.46 z m 82.12,84 a 3.22,3.22 0 0 1 0.94,-2.26 3.2,3.2 0 0 1 5.45,2.27 3.19,3.19 0 0 1 -3.2,3.18 3.19,3.19 0 0 1 -3.19,-3.19 z"
     class="cls-16" /><path
     style="fill:#688acf"
     inkscape:connector-curvature="0"
     id="path108-1"
     d="m 191.84,224.37 25,25 -1.07,7.83 10.08,10.08 a 2.74,2.74 0 1 1 -1.07,1.06 l -10.61,-10.61 1.07,-7.82 -24.47,-24.47 z"
     class="cls-16" /><path
     style="fill:#688acf"
     inkscape:connector-curvature="0"
     id="path110-9"
     d="m 178.13,207.75 11.09,11.08 h 6.93 L 223.29,246 h 7.56 l 17.07,17 a 2.73,2.73 0 1 0 1,-1.11 l -17.48,-17.47 h -7.56 l -27.14,-27.14 h -6.94 l -10,-10 c -0.53,0.17 -1.1,0.31 -1.67,0.47 z"
     class="cls-16" /><path
     style="fill:#f4af36"
     inkscape:connector-curvature="0"
     id="path112-7"
     d="m 357,383.26 c -8.73,12.88 -32.29,40.66 -66.38,40.64 a 109.68,109.68 0 0 1 -11.44,-0.68 C 244.91,399.39 220.08,401.53 210.69,383.51 262.92,379.35 357,383.26 357,383.26 Z"
     class="cls-11" /><rect
     style="fill:#ffffff"
     id="rect114-2"
     transform="rotate(-180,283.075,375.2)"
     rx="6.04"
     height="16.540001"
     width="156.42"
     y="366.92999"
     x="204.87"
     class="cls-14" /><path
     style="fill:#ffffff"
     inkscape:connector-curvature="0"
     id="path116-2"
     d="m 298.13,144.69 c -5.18,-2.16 -10.08,-4.92 -14,-9.07 -5.15,-5.52 -4.74,-13.52 0.66,-17.58 5.23,-3.93 12.12,-2.34 16,4.56 3.44,6.17 8.61,8.35 15,8.7 4.26,0.22 7.73,1.44 8.07,6.26 0.34,4.82 -2.91,6.83 -6.86,7.93 -6.3,1.75 -12.59,0.96 -18.87,-0.8 z"
     class="cls-14" /><path
     style="fill:#f4af36"
     inkscape:connector-curvature="0"
     id="path118-6"
     d="m 214.84,200.17 c 0.43,0 0.87,0.06 1.31,0.11 45.69,4.9 80.94,48.16 90.23,56 0,0 42.08,-39.47 45.05,-54.21 a 1.42,1.42 0 0 1 -0.08,-0.18 c -5.69,-12.73 -12.71,-11.19 -16.33,-7.47 a 11.56,11.56 0 0 0 -11.16,-8 4.23,4.23 0 0 0 -2.65,1.82 c -4.54,5.8 -11.17,25.54 -16.06,47 -17.81,-23.9 -37.29,-43.88 -55.4,-56.39 l -1.07,-0.74 c -4.41,-0.75 -12.81,-0.36 -17,8.6 -8.54,-2.2 -15.8,3.51 -16.84,13.46 z"
     class="cls-11" /><path
     style="fill:none"
     inkscape:connector-curvature="0"
     id="path120-2"
     d="m 324.18,198.46 h 0.22 l -0.48,-0.09 z"
     class="cls-17" /><path
     style="fill:#131a20"
     inkscape:connector-curvature="0"
     id="path122-3"
     d="m 220.57,387.08 c 4,-26.23 5.69,-44.43 5.69,-44.43 -0.61,-2.32 -2.77,-6 -4.2,-6 -1.43,0 -1.39,-1.7 -22.63,5.24 -3.62,0.93 -4.47,1.9 -5.78,14.13 -1.31,12.23 -5.76,44.31 -6.87,62.13 -1.1,17.66 6.9,16.07 8.33,16.17 l 12.14,-0.1 c 3.4,-0.17 6,-0.87 7.18,-6.4 1.18,-5.53 6.14,-40.74 6.14,-40.74 z"
     class="cls-18" /><path
     style="fill:#606366"
     inkscape:connector-curvature="0"
     id="path124-9"
     d="m 192.84,366.89 -2,14.88 c -0.65,5 -1.28,9.93 -1.86,14.9 -0.58,4.97 -1.09,10 -1.48,15 -0.19,2.5 -0.34,5 -0.42,7.52 a 49.41,49.41 0 0 0 0.24,7.58 0.54,0.54 0 0 0 0.59,0.46 0.52,0.52 0 0 0 0.45,-0.59 v 0 a 49.29,49.29 0 0 1 -0.28,-7.41 c 0.06,-2.49 0.2,-5 0.38,-7.47 0.35,-5 0.84,-10 1.38,-14.93 0.54,-4.93 1.14,-9.94 1.77,-14.9 l 1.9,-14.93 a 0.33,0.33 0 0 0 -0.29,-0.38 0.34,0.34 0 0 0 -0.38,0.29 z"
     class="cls-19" /><path
     style="fill:#606366"
     inkscape:connector-curvature="0"
     id="path126-4"
     d="m 218,386.65 a 0.37,0.37 0 0 1 0,-0.14 v 0 c -0.62,-1.63 -0.57,-1.89 -1.72,-5.08 -0.74,4.29 -4,32 -4.6,35.05 -0.6,3.05 -1.77,7.79 -0.84,10.32 a 4.89,4.89 0 0 1 0.41,3 c 0.2,-0.65 0.34,-1.31 0.5,-2 0.2,-0.91 0.38,-1.82 0.55,-2.72 0.35,-1.82 0.67,-3.65 1,-5.48 q 0.92,-5.48 1.73,-11 0.81,-5.52 1.57,-11 c 0.5,-3.66 1,-7.34 1.39,-11 z"
     class="cls-19" /><path
     style="fill:#606366"
     inkscape:connector-curvature="0"
     id="path128-7"
     d="m 217.07,379.54 a 0.4,0.4 0 0 0 0.42,-0.35 c 0,-0.08 3.7,-30.63 4.26,-37 a 0.41,0.41 0 0 0 -0.36,-0.43 0.39,0.39 0 0 0 -0.43,0.36 c -0.55,6.4 -4.25,36.94 -4.26,37 a 0.41,0.41 0 0 0 0.35,0.44 z"
     class="cls-19" /><path
     style="fill:#606366"
     inkscape:connector-curvature="0"
     id="path130-5"
     d="m 206.8,433.15 c -3.45,0.4 -14.21,0.77 -16.16,-0.28 1,1.24 4.35,1.49 6.53,1.56 2.18,0.07 9.94,-0.13 9.94,-0.13 z"
     class="cls-19" /><path
     style="fill:#233138"
     inkscape:connector-curvature="0"
     id="path132-8"
     d="m 192.36,388.7 22.07,-3.36 4.12,-41.34 a 2.2,2.2 0 0 0 -2.73,-2.35 L 202,345.2 a 6.65,6.65 0 0 0 -4.93,5.62 z"
     class="cls-20" /><polygon
     style="fill:#040506"
     id="polygon134-2"
     points="215.15,378.54 193.15,382.11 192.36,388.7 214.43,385.34 "
     class="cls-21" /><path
     style="fill:#ffffff"
     inkscape:connector-curvature="0"
     id="path136-2"
     d="m 196.57,385.8 0.55,-0.1 c 0,0 0,0 0,-0.05 a 1.92,1.92 0 0 0 0.11,-0.31 0.11,0.11 0 0 1 0.11,-0.08 l 0.56,-0.09 c 0.05,0 0.07,0 0.08,0 0.01,0 0.06,0.18 0.07,0.26 0.01,0.08 0,0.06 0.09,0.06 l 1.07,-0.2 c 0,0 0.07,0 0.09,-0.07 l 0.17,-0.28 c 0.1,-0.15 0.19,-0.31 0.28,-0.46 v 0 l -0.06,0.77 v 0 l 0.52,-0.09 0.16,-2.07 c -0.29,0 -0.57,0.08 -0.86,0.14 a 1.31,1.31 0 0 0 -0.33,0.12 0.68,0.68 0 0 0 -0.35,0.34 0.79,0.79 0 0 0 -0.08,0.57 v 0 a 0.39,0.39 0 0 0 0.08,0.14 0.73,0.73 0 0 0 0.22,0.16 c 0,0 0,0 0,0 v 0 l -0.5,0.8 a 1.23,1.23 0 0 1 -0.06,-0.22 c -0.16,-0.55 -0.32,-1.09 -0.47,-1.64 a 0.09,0.09 0 0 0 0,-0.06 0.12,0.12 0 0 0 -0.09,0 l -0.59,0.1 c -0.19,0.79 -0.47,1.52 -0.77,2.26 z m 2.8,-1.79 a 0.36,0.36 0 0 1 0.21,-0.34 l 0.32,-0.09 v 0.59 h -0.22 A 0.22,0.22 0 0 1 199.37,384 Z m -1.89,0.84 c 0.08,-0.24 0.17,-0.46 0.27,-0.71 l 0.15,0.63 z"
     class="cls-14" /><path
     style="fill:#ffffff"
     inkscape:connector-curvature="0"
     id="path138-7"
     d="m 200.57,384.58 a 0.38,0.38 0 0 0 0.28,0.44 0.66,0.66 0 0 0 0.28,0 c 0.32,0 0.65,-0.11 1,-0.16 l 0.15,-2.08 -0.38,0.06 -0.69,0.15 a 0.64,0.64 0 0 0 -0.46,0.43 0.43,0.43 0 0 0 0.1,0.54 l 0.16,0.08 v 0 a 0.6,0.6 0 0 0 -0.44,0.54 z m 1.11,-0.83 h -0.33 c -0.09,0 -0.12,-0.08 -0.12,-0.19 a 0.24,0.24 0 0 1 0.14,-0.22 1.93,1.93 0 0 1 0.34,-0.11 z m -0.56,0.7 a 0.3,0.3 0 0 1 0.21,-0.27 l 0.32,-0.06 v 0.49 h -0.28 c -0.19,0.04 -0.26,-0.02 -0.25,-0.16 z"
     class="cls-14" /><path
     style="fill:#ffffff"
     inkscape:connector-curvature="0"
     id="path140-2"
     d="m 207,383.64 h 0.3 v -0.37 a 2,2 0 0 0 0,-0.23 0.44,0.44 0 0 1 0.17,-0.38 0.61,0.61 0 0 0 0.13,-0.15 v 0 l -0.08,1.07 0.31,-0.05 0.1,-1.38 0.3,-0.05 a 2.83,2.83 0 0 0 0,0.29 c 0,0.32 0,0.65 -0.08,1 a 0.31,0.31 0 0 1 -0.05,0.12 c 0,0 0,0 -0.06,0.06 -0.06,0.06 -0.18,0.15 -0.2,0.23 a 1.78,1.78 0 0 0 0,0.41 l 0.37,-0.4 a 1.35,1.35 0 0 0 0.26,-0.28 0.91,0.91 0 0 0 0,-0.33 l 0.09,-1.2 a 0.21,0.21 0 0 1 0.07,-0.16 l 0.76,-0.8 -0.21,-0.1 a 0.15,0.15 0 0 0 -0.08,0 l -0.74,0.76 a 0.2,0.2 0 0 1 -0.08,0.08 l 0.07,-0.89 a 0.58,0.58 0 0 0 -0.51,0.39 0.39,0.39 0 0 0 0.28,0.55 h -0.23 a 0.12,0.12 0 0 0 -0.09,0 l -0.28,0.29 0.43,-0.08 c -0.12,0.13 -0.22,0.24 -0.33,0.34 -0.11,0.1 -0.1,0 -0.15,0 a 0.59,0.59 0 0 0 -0.48,0.26 l -0.11,0.12 0.39,-0.07 v 0 l -0.16,0.18 a 0.36,0.36 0 0 0 -0.15,0.31 c 0,0.11 0,0.23 0,0.34 z"
     class="cls-14" /><path
     style="fill:#ffffff"
     inkscape:connector-curvature="0"
     id="path142-4"
     d="m 202.46,383.58 v 0.41 l 0.7,-0.12 v 0.43 l -0.7,0.12 v 0.41 l 1.24,-0.21 0.15,-2.07 -1.24,0.21 v 0.4 l 0.71,-0.11 v 0.41 z"
     class="cls-14" /><path
     style="fill:#ffffff"
     inkscape:connector-curvature="0"
     id="path144-1"
     d="m 205.55,382.66 c -0.06,-0.13 -0.12,-0.24 -0.18,-0.35 h -0.06 l -1.33,0.22 v 0 l 0.78,1.5 -0.82,0.13 c 0.07,0.13 0.13,0.25 0.2,0.36 h 0.06 l 1.36,-0.23 -0.79,-1.51 z"
     class="cls-14" /><path
     style="fill:#ffffff"
     inkscape:connector-curvature="0"
     id="path146-9"
     d="m 209.15,382.37 v 0 a 1.08,1.08 0 0 1 0,-0.36 1.24,1.24 0 0 1 0.27,-0.3 l 0.27,-0.28 c 0,0 0.05,-0.07 0,-0.11 l -0.12,-0.17 -0.24,0.25 -0.45,0.48 a 0.27,0.27 0 0 0 -0.06,0.1 l -0.09,1.17 h 0.06 c 0.33,-0.36 0.67,-0.71 1,-1.06 a 0.16,0.16 0 0 0 0.05,-0.1 c 0,-0.1 0,-0.19 0,-0.31 l -0.7,0.76 z"
     class="cls-14" /><path
     style="fill:#ffffff"
     inkscape:connector-curvature="0"
     id="path148-5"
     d="m 209.85,382.39 -0.23,0.26 -1.75,1.82 a 0.27,0.27 0 0 0 -0.08,0.18 c 0,0.09 0,0.19 0,0.3 l 0.07,-0.07 1.92,-2 a 0.21,0.21 0 0 0 0.07,-0.15 c -0.02,-0.11 -0.01,-0.21 0,-0.34 z"
     class="cls-14" /><path
     style="fill:#ffffff"
     inkscape:connector-curvature="0"
     id="path150-6"
     d="m 207,383.64 -0.29,0.07 v -0.37 c -0.16,0 -0.31,0 -0.44,0.18 -0.13,0.18 -0.17,0.17 -0.25,0.26 a 0.21,0.21 0 0 0 0,0.1 0.38,0.38 0 0 0 0.46,0.34 0.69,0.69 0 0 0 0.53,-0.53 v -0.05 z"
     class="cls-14" /><path
     style="fill:#303335"
     inkscape:connector-curvature="0"
     id="path152-3"
     d="m 215.41,381.58 c 2.66,-20.93 4.86,-39.93 4.86,-39.93 0.17,-2.37 0.61,-4.3 -1.8,-4.22 -2.41,0.08 -18,5 -18,5 l 2.07,2.6 c 4.75,-1.29 12,-3.13 12,-3.13 1.25,-0.31 3.67,-1.09 4,1.53 0.33,2.62 -3.46,31.25 -3.46,31.25 z"
     class="cls-22" /><polygon
     style="fill:#606366"
     id="polygon154-3"
     points="211.84,413.71 211.84,413.72 "
     class="cls-19" /><polygon
     style="fill:#606366"
     id="polygon156-0"
     points=""
     class="cls-19" /><polygon
     style="fill:#606366"
     id="polygon158-7"
     points=""
     class="cls-19" /><polygon
     style="fill:#606366"
     id="polygon160-9"
     points="212.59,409.29 212.59,409.28 212.6,409.28 "
     class="cls-19" /><polygon
     style="fill:#606366"
     id="polygon162-4"
     points=""
     class="cls-19" /><polygon
     style="fill:#606366"
     id="polygon164-0"
     points="212.27,411.75 212.27,411.76 "
     class="cls-19" /><path
     style="fill:#606366"
     inkscape:connector-curvature="0"
     id="path166-0"
     d="m 208.28,425.19 c 1.1,-2 0.77,-4.28 1.64,-10 0.22,-1.44 0.51,-3.45 0.85,-5.81 v 0 a 0.7,0.7 0 0 1 0,-0.25 l 0.12,-0.17 c 0.71,-4.9 8.31,-67 8.49,-67 0.13,0.3 -7.63,76.63 -9.29,82.37 a 9.27,9.27 0 0 1 -1.07,2 z"
     class="cls-19" /><path
     style="fill:#606366"
     inkscape:connector-curvature="0"
     id="path168-6"
     d="m 187.1,425 c 0.34,4.52 2.13,4.7 4.2,4.77 a 82.46,82.46 0 0 0 13.51,-0.82 c 5.86,-0.86 6.43,-9.28 6.72,-11.78 l -0.76,-2.71 c -0.45,3.94 -0.67,12.08 -6.23,13 a 81.48,81.48 0 0 1 -12.72,0.77 c -2.1,-0.14 -2.82,-0.73 -3.52,-3.79 -0.51,-2.2 -0.16,-6 -0.13,-7.44 l -0.87,0.32 a 35.56,35.56 0 0 0 -0.2,7.68 z"
     class="cls-19" /><path
     style="fill:#606366"
     inkscape:connector-curvature="0"
     id="path170-4"
     d="m 206.8,433.15 0.31,1.15 c 5.17,-0.28 5.3,-1.91 5.75,-3.95 0.45,-2.04 7.89,-51.35 7.89,-51.35 l 4,-34.8 a 3.87,3.87 0 0 0 -0.52,-2.44 l -1.62,-2.78 -3.61,34.26 1.34,4.84 c 0,0 -2.42,16.42 -2.95,19.72 q -0.89,5.49 -1.83,11 c -0.64,3.65 -1.29,7.3 -2,10.94 q -0.53,2.73 -1.11,5.45 c -0.19,0.91 -0.4,1.81 -0.62,2.71 a 18.54,18.54 0 0 1 -0.8,2.66 3.52,3.52 0 0 0 0.15,-0.42 c -0.83,2.04 -3.51,3 -4.38,3.01 z"
     class="cls-19" /><path
     style="fill:#303335"
     inkscape:connector-curvature="0"
     id="path172-0"
     d="m 197.32,345.19 c -0.94,0.66 -1.06,2.31 -1.25,3.71 -0.19,1.4 -2.4,19.15 -2.4,19.15 L 191,386.57 c 0,0 -1.56,13.7 -1.7,15.06 -0.14,1.36 -1.25,16.52 -1.27,19.66 0,1.28 0,4.88 1.3,5.94 -0.58,-1.78 -0.29,-7.69 -0.09,-10.4 0.22,-2.93 3.08,-28.13 3.08,-28.13 l 3.22,-25.41 1.7,-13.38 c 0.42,-2.4 1,-2.94 1,-2.94 z"
     class="cls-22" /><path
     style="fill:#040506"
     inkscape:connector-curvature="0"
     id="path174-1"
     d="m 198,350.17 c -0.21,1.38 -0.44,2.75 -0.62,4.13 q -1.76,13.33 -3.5,26.66 c -0.21,1.57 -0.42,3.15 -0.62,4.72 a 8.73,8.73 0 0 1 -0.26,1.37 c -0.18,0.56 0.2,1.33 -0.62,1.65 0.17,-1.47 0.31,-2.94 0.51,-4.4 q 2.32,-17.7 4.68,-35.39 c 0.25,-1.44 0.42,-2.29 3.46,-3.35 3.04,-1.06 14.81,-3.93 14.81,-3.93 -0.22,0.68 -12.88,3.78 -14.93,4.68 -2.05,0.9 -2.6,1.69 -2.91,3.86 z"
     class="cls-21" /><path
     style="fill:#131a20"
     inkscape:connector-curvature="0"
     id="path176-0"
     d="m 203.13,417.53 0.38,0.21 z"
     class="cls-18" /><path
     style="fill:#303335"
     inkscape:connector-curvature="0"
     id="path178-6"
     d="m 199.86,423.79 -0.32,-0.22 z"
     class="cls-22" /><path
     style="fill:#131a20"
     inkscape:connector-curvature="0"
     id="path180-6"
     d="m 197.52,421.83 0.39,0.21 z"
     class="cls-18" /><path
     style="fill:#5a5a5a"
     inkscape:connector-curvature="0"
     id="path182-6"
     d="m 214,385.28 c -1.67,13.92 -3.55,31.66 -3.55,31.66 -0.54,4.05 -1.22,9.63 -7.08,10.19 -5.86,0.56 -6.78,0.59 -9.11,0.66 -2,0 -5.67,0.53 -5.34,-5.9 0.33,-6.43 2.62,-31.63 2.79,-33.12 3.49,-0.5 22.29,-3.49 22.29,-3.49 z"
     class="cls-23" /><path
     style="fill:#f7dd6b"
     inkscape:connector-curvature="0"
     id="path184-3"
     d="m 200.39,394.75 2.7,-0.31 a 3.52,3.52 0 0 0 2.94,-3.1 v 0 a 2.15,2.15 0 0 0 -2.42,-2.49 l -2.7,0.31 a 3.55,3.55 0 0 0 -2.95,3.1 v 0 a 2.16,2.16 0 0 0 2.43,2.49 z"
     class="cls-24" /><path
     style="fill:#6d6e70"
     inkscape:connector-curvature="0"
     id="path186-9"
     d="m 194.15,394.34 1.27,-0.14 a 1.67,1.67 0 0 0 1.39,-1.46 v 0 a 1,1 0 0 0 -1.14,-1.18 l -1.27,0.15 a 1.66,1.66 0 0 0 -1.39,1.46 v 0 a 1,1 0 0 0 1.14,1.17 z"
     class="cls-25" /><path
     style="fill:#6d6e70"
     inkscape:connector-curvature="0"
     id="path188-7"
     d="m 208.23,392.81 1.27,-0.15 a 1.66,1.66 0 0 0 1.39,-1.46 v 0 a 1,1 0 0 0 -1.14,-1.17 l -1.28,0.14 a 1.67,1.67 0 0 0 -1.39,1.46 v 0 a 1,1 0 0 0 1.15,1.18 z"
     class="cls-25" /><path
     style="fill:#dfe4e5"
     inkscape:connector-curvature="0"
     id="path190-6"
     d="m 208.17,398.29 2.05,-0.23 a 1.56,1.56 0 0 0 1.11,-1.33 v -0.34 c 0.11,-0.68 -0.22,-1.18 -0.73,-1.12 l -2.09,0.24 a 1.51,1.51 0 0 0 -1.1,1.32 v 0.34 c -0.08,0.67 0.25,1.17 0.76,1.12 z"
     class="cls-26" /><path
     style="fill:#dfe4e5"
     inkscape:connector-curvature="0"
     id="path192-3"
     d="m 202.91,398.87 2.05,-0.22 a 1.49,1.49 0 0 0 1.07,-1.32 v -0.34 c 0.09,-0.68 -0.26,-1.17 -0.77,-1.12 l -2.09,0.24 a 1.42,1.42 0 0 0 -1.05,1.32 v 0.33 c -0.07,0.67 0.28,1.17 0.79,1.11 z"
     class="cls-26" /><path
     style="fill:#dfe4e5"
     inkscape:connector-curvature="0"
     id="path194-6"
     d="m 197.65,399.46 2,-0.23 a 1.4,1.4 0 0 0 1,-1.31 v -0.34 c 0.07,-0.66 -0.3,-1.16 -0.81,-1.1 l -2.09,0.24 a 1.35,1.35 0 0 0 -1,1.3 v 0.34 c 0.03,0.64 0.4,1.16 0.9,1.1 z"
     class="cls-26" /><path
     style="fill:#dfe4e5"
     inkscape:connector-curvature="0"
     id="path196-5"
     d="m 192.4,400 2,-0.22 a 1.34,1.34 0 0 0 1,-1.31 v -0.33 c 0,-0.66 -0.34,-1.15 -0.85,-1.09 l -2.09,0.23 a 1.3,1.3 0 0 0 -1,1.3 V 399 c 0.04,0.61 0.43,1.1 0.94,1 z"
     class="cls-26" /><path
     style="fill:#dfe4e5"
     inkscape:connector-curvature="0"
     id="path198-9"
     d="m 207.5,403 2,-0.21 a 1.55,1.55 0 0 0 1.09,-1.33 l 0.05,-0.34 c 0.11,-0.68 -0.2,-1.18 -0.7,-1.13 l -2,0.23 a 1.49,1.49 0 0 0 -1.07,1.32 v 0.34 c -0.18,0.66 0.13,1.12 0.63,1.12 z"
     class="cls-26" /><path
     style="fill:#dfe4e5"
     inkscape:connector-curvature="0"
     id="path200-3"
     d="m 202.4,403.54 2,-0.21 a 1.48,1.48 0 0 0 1,-1.32 v -0.34 c 0.09,-0.67 -0.24,-1.17 -0.74,-1.12 l -2,0.23 a 1.41,1.41 0 0 0 -1,1.31 v 0.33 c -0.09,0.67 0.25,1.17 0.74,1.12 z"
     class="cls-26" /><path
     style="fill:#dfe4e5"
     inkscape:connector-curvature="0"
     id="path202-9"
     d="m 197.3,404.09 2,-0.21 a 1.39,1.39 0 0 0 1,-1.31 v -0.34 c 0.07,-0.66 -0.29,-1.16 -0.79,-1.1 l -2,0.22 a 1.35,1.35 0 0 0 -1,1.3 v 0.33 c -0.05,0.67 0.31,1.16 0.79,1.11 z"
     class="cls-26" /><path
     style="fill:#dfe4e5"
     inkscape:connector-curvature="0"
     id="path204-6"
     d="m 192.21,404.64 2,-0.22 a 1.31,1.31 0 0 0 1,-1.29 v -0.33 c 0,-0.67 -0.33,-1.16 -0.83,-1.1 l -2,0.22 a 1.29,1.29 0 0 0 -0.95,1.29 v 0.33 c -0.09,0.66 0.29,1.15 0.78,1.1 z"
     class="cls-26" /><path
     style="fill:#dfe4e5"
     inkscape:connector-curvature="0"
     id="path206-1"
     d="m 206.81,407.69 1.93,-0.2 c 0.47,-0.05 0.94,-0.64 1.06,-1.31 v -0.35 c 0.12,-0.67 -0.19,-1.18 -0.67,-1.13 l -2,0.21 a 1.47,1.47 0 0 0 -1,1.31 l -0.05,0.34 c -0.08,0.68 0.26,1.18 0.73,1.13 z"
     class="cls-26" /><path
     style="fill:#dfe4e5"
     inkscape:connector-curvature="0"
     id="path208-4"
     d="m 201.89,408.21 1.92,-0.2 a 1.44,1.44 0 0 0 1,-1.31 l 0.05,-0.34 c 0.09,-0.67 -0.24,-1.18 -0.72,-1.13 l -2,0.21 a 1.41,1.41 0 0 0 -1,1.31 v 0.33 c -0.05,0.67 0.27,1.18 0.75,1.13 z"
     class="cls-26" /><path
     style="fill:#dfe4e5"
     inkscape:connector-curvature="0"
     id="path210-4"
     d="m 197,408.72 1.92,-0.2 a 1.37,1.37 0 0 0 1,-1.3 v -0.33 c 0.07,-0.67 -0.27,-1.17 -0.76,-1.12 l -2,0.21 a 1.32,1.32 0 0 0 -0.95,1.29 v 0.34 c -0.07,0.66 0.28,1.16 0.79,1.11 z"
     class="cls-26" /><path
     style="fill:#dfe4e5"
     inkscape:connector-curvature="0"
     id="path212-0"
     d="m 192,409.23 2,-0.23 a 1.3,1.3 0 0 0 0.92,-1.29 v -0.33 c 0,-0.66 -0.32,-1.16 -0.8,-1.11 l -2,0.21 a 1.26,1.26 0 0 0 -0.91,1.29 v 0.33 c -0.01,0.69 0.35,1.18 0.79,1.13 z"
     class="cls-26" /><path
     style="fill:#dfe4e5"
     inkscape:connector-curvature="0"
     id="path214-1"
     d="m 206.12,412.4 1.86,-0.19 c 0.45,0 0.92,-0.63 1,-1.31 l 0.06,-0.34 c 0.11,-0.68 -0.18,-1.19 -0.64,-1.14 l -1.9,0.19 a 1.47,1.47 0 0 0 -1,1.31 l -0.05,0.34 c -0.08,0.67 0.22,1.18 0.67,1.14 z"
     class="cls-26" /><path
     style="fill:#dfe4e5"
     inkscape:connector-curvature="0"
     id="path216-6"
     d="m 201.37,412.87 1.85,-0.18 c 0.46,-0.05 0.9,-0.63 1,-1.3 v -0.34 c 0.08,-0.68 -0.22,-1.18 -0.69,-1.13 l -1.89,0.19 c -0.47,0.05 -0.9,0.63 -1,1.3 v 0.33 c -0.04,0.67 0.28,1.18 0.73,1.13 z"
     class="cls-26" /><path
     style="fill:#dfe4e5"
     inkscape:connector-curvature="0"
     id="path218-2"
     d="m 196.62,413.35 1.85,-0.19 c 0.46,0 0.88,-0.62 0.94,-1.29 v -0.33 c 0.06,-0.67 -0.27,-1.17 -0.73,-1.13 l -1.9,0.2 a 1.31,1.31 0 0 0 -0.92,1.29 v 0.33 c -0.03,0.66 0.31,1.16 0.76,1.12 z"
     class="cls-26" /><path
     style="fill:#dfe4e5"
     inkscape:connector-curvature="0"
     id="path220-2"
     d="m 191.88,413.82 1.85,-0.18 c 0.45,-0.05 0.85,-0.62 0.89,-1.28 v -0.34 c 0,-0.66 -0.31,-1.16 -0.78,-1.11 l -1.89,0.2 c -0.47,0 -0.86,0.62 -0.88,1.27 v 0.33 c -0.01,0.66 0.35,1.16 0.81,1.11 z"
     class="cls-26" /><path
     style="fill:#dfe4e5"
     inkscape:connector-curvature="0"
     id="path222-0"
     d="m 205.42,417.1 1.78,-0.17 c 0.44,0 0.89,-0.62 1,-1.3 l 0.06,-0.34 c 0.11,-0.68 -0.16,-1.2 -0.61,-1.15 l -1.82,0.18 c -0.45,0 -0.89,0.62 -1,1.3 v 0.34 c -0.13,0.67 0.17,1.19 0.59,1.14 z"
     class="cls-26" /><path
     style="fill:#dfe4e5"
     inkscape:connector-curvature="0"
     id="path224-4"
     d="m 200.85,417.54 1.78,-0.17 c 0.44,0 0.87,-0.62 1,-1.3 v -0.33 c 0.08,-0.68 -0.21,-1.19 -0.66,-1.14 l -1.82,0.18 c -0.45,0 -0.87,0.62 -0.94,1.29 v 0.33 c -0.09,0.67 0.2,1.18 0.64,1.14 z"
     class="cls-26" /><path
     style="fill:#dfe4e5"
     inkscape:connector-curvature="0"
     id="path226-5"
     d="m 196.29,418 1.78,-0.17 c 0.44,-0.05 0.84,-0.62 0.91,-1.29 v -0.33 c 0.06,-0.67 -0.25,-1.18 -0.7,-1.13 l -1.82,0.18 c -0.45,0 -0.85,0.61 -0.89,1.28 v 0.33 c -0.04,0.65 0.28,1.13 0.72,1.13 z"
     class="cls-26" /><path
     style="fill:#dfe4e5"
     inkscape:connector-curvature="0"
     id="path228-8"
     d="m 191.73,418.41 1.78,-0.17 c 0.43,0 0.82,-0.61 0.85,-1.27 l 0.28,-5 c 0,-0.66 -0.37,-0.91 -0.82,-0.86 l -1.82,0.18 a 1,1 0 0 0 -0.91,1 L 191,417.3 c 0,0.7 0.29,1.16 0.73,1.11 z"
     class="cls-26" /><path
     style="fill:#e1922b"
     inkscape:connector-curvature="0"
     id="path230-3"
     d="m 204.71,421.81 1.7,-0.16 c 0.42,0 0.86,-0.62 1,-1.29 l 0.06,-0.35 c 0.12,-0.67 -0.14,-1.19 -0.57,-1.15 l -1.75,0.16 c -0.43,0 -0.86,0.62 -1,1.3 v 0.34 c -0.15,0.67 0.14,1.19 0.56,1.15 z"
     class="cls-27" /><path
     style="fill:#dfe4e5"
     inkscape:connector-curvature="0"
     id="path232-2"
     d="m 200.33,422.21 1.71,-0.16 c 0.42,0 0.83,-0.61 0.92,-1.29 v -0.33 c 0.09,-0.68 -0.19,-1.19 -0.62,-1.15 l -1.75,0.16 c -0.43,0 -0.84,0.62 -0.91,1.29 v 0.34 c -0.05,0.66 0.23,1.18 0.65,1.14 z"
     class="cls-26" /><path
     style="fill:#dfe4e5"
     inkscape:connector-curvature="0"
     id="path234-2"
     d="m 196,422.61 1.71,-0.16 c 0.41,0 0.81,-0.61 0.87,-1.28 v -0.33 c 0.06,-0.67 -0.24,-1.18 -0.67,-1.14 l -1.75,0.17 c -0.43,0 -0.81,0.61 -0.85,1.27 v 0.33 c -0.08,0.67 0.23,1.17 0.69,1.14 z"
     class="cls-26" /><path
     style="fill:#ec1c24"
     inkscape:connector-curvature="0"
     id="path236-4"
     d="m 191.59,423 1.71,-0.15 c 0.41,0 0.78,-0.61 0.82,-1.27 v -0.33 c 0,-0.66 -0.29,-1.17 -0.72,-1.13 l -1.75,0.17 c -0.43,0 -0.79,0.6 -0.8,1.26 v 0.33 c -0.01,0.66 0.32,1.12 0.74,1.12 z"
     class="cls-28" /></g></svg>