<?xml version="1.0" encoding="UTF-8" standalone="no"?>
<!-- Generator: Adobe Illustrator 24.3.0, SVG Export Plug-In . SVG Version: 6.00 Build 0)  -->

<svg
   xmlns:dc="http://purl.org/dc/elements/1.1/"
   xmlns:cc="http://creativecommons.org/ns#"
   xmlns:rdf="http://www.w3.org/1999/02/22-rdf-syntax-ns#"
   xmlns:svg="http://www.w3.org/2000/svg"
   xmlns="http://www.w3.org/2000/svg"
   xmlns:sodipodi="http://sodipodi.sourceforge.net/DTD/sodipodi-0.dtd"
   xmlns:inkscape="http://www.inkscape.org/namespaces/inkscape"
   version="1.1"
   id="Layer_1"
   x="0px"
   y="0px"
   viewBox="0 0 800 800"
   style="enable-background:new 0 0 800 800;"
   xml:space="preserve"
   sodipodi:docname="ai-3.svg"
   inkscape:version="0.92.4 (5da689c313, 2019-01-14)"><metadata
   id="metadata491"><rdf:RDF><cc:Work
       rdf:about=""><dc:format>image/svg+xml</dc:format><dc:type
         rdf:resource="http://purl.org/dc/dcmitype/StillImage" /></cc:Work></rdf:RDF></metadata><defs
   id="defs489" /><sodipodi:namedview
   pagecolor="#ffffff"
   bordercolor="#666666"
   borderopacity="1"
   objecttolerance="10"
   gridtolerance="10"
   guidetolerance="10"
   inkscape:pageopacity="0"
   inkscape:pageshadow="2"
   inkscape:window-width="1920"
   inkscape:window-height="1017"
   id="namedview487"
   showgrid="false"
   inkscape:zoom="0.59"
   inkscape:cx="262.48306"
   inkscape:cy="393.06564"
   inkscape:window-x="-8"
   inkscape:window-y="-8"
   inkscape:window-maximized="1"
   inkscape:current-layer="Layer_1" />
<style
   type="text/css"
   id="style2">
	.st0{display:none;}
	.st1{display:inline;fill:#D0CDE1;}
	.st2{display:inline;fill:#3F3D56;}
	.st3{display:inline;fill:#53D267;}
	.st4{display:inline;fill:#FFFFFF;}
	.st5{display:inline;fill:#FFB8B8;}
	.st6{display:inline;fill:#2F2E41;}
	.st7{display:inline;fill:#575A89;}
	.st8{fill:#99D1F1;}
	.st9{fill:#51A1D8;}
	.st10{fill:#FCB216;}
	.st11{fill:#E9D498;}
	.st12{fill:#D89481;}
	.st13{fill:#AB6651;}
	.st14{fill:#3A2416;}
	.st15{fill:#E24F3C;}
	.st16{fill:#F9FBFD;}
	.st17{fill:#A66653;}
	.st18{fill:#3B5C64;}
	.st19{fill:#B56E5B;}
	.st20{fill:#F4AF36;}
	.st21{fill:#DE981F;}
	.st22{fill:#B93629;}
	.st23{fill:#F7D86D;}
	.st24{fill:#FFFFFF;}
	.st25{fill:none;}
	.st26{fill:#131A20;}
	.st27{fill:#606366;}
	.st28{fill:url(#SVGID_1_);}
	.st29{fill:#040506;}
	.st30{fill:#303335;}
	.st31{fill:#5A5A5A;}
	.st32{fill:#F7DD6B;}
	.st33{fill:#6D6E70;}
	.st34{fill:#DFE4E5;}
	.st35{fill:#E1922B;}
	.st36{fill:#EC1C24;}
</style>


<g
   id="g1325"
   transform="matrix(1.1645123,0,0,1.1645123,-1144.173,-50.460423)"><path
     style="fill:#99d1f1"
     inkscape:connector-curvature="0"
     id="path6"
     d="m 1624.6372,274.3386 c -0.64,-1.21 -1.33,-2.39 -2,-3.55 a 68.46,68.46 0 0 0 -17.59,-19.09 c -1.12,-0.84 -2.27,-1.64 -3.45,-2.39 -1,-0.65 -2,-1.26 -3,-1.85 l -12.13,-7 v 0 l -4.06,-2.34 -34.18,-19.72 -3.91,-2.25 -17.26,-10 -4.15,-2.27 -28.41,-16.39 v 0 l -4.13,-2.39 -56.4,-32.55 -13.87,-8 c -0.72,-0.42 -1.46,-0.82 -2.2,-1.22 a 68.81,68.81 0 0 0 -32.14,-8 q -1,0 -2,0 a 69.39,69.39 0 0 0 -14.73,2 c -0.82,0.2 -1.63,0.42 -2.44,0.65 -1.59,0.45 -3.15,1 -4.7,1.54 -0.65,0.24 -1.31,0.49 -2,0.75 a 67.6,67.6 0 0 0 -8.6,4.19 l -10.53,6.07 -14.5,8.37 -1.84,1.06 -30.34,17.64 -121.13,69.86 v 0 a 68.73,68.73 0 0 0 -32.07,42 c -0.49,1.82 -0.9,3.67 -1.23,5.53 a 67.85,67.85 0 0 0 -1.06,12 v 205.76 a 68.8,68.8 0 0 0 34.37,59.47 l 87.14,50.25 1.57,0.91 v 0 l 2.49,1.44 8.55,4.93 21.91,12.64 44.1,25.41 12.69,7.33 a 68.06,68.06 0 0 0 12.76,5.69 l 0.5,0.16 c 0.78,0.25 1.55,0.49 2.34,0.71 0.79,0.22 1.56,0.43 2.36,0.62 h 0.06 c 0.77,0.19 1.54,0.36 2.32,0.52 0.4,0.09 0.79,0.17 1.2,0.24 l 1,0.19 0.35,0.05 c 0.51,0.09 1,0.17 1.55,0.24 1,0.16 2,0.28 3,0.38 l 1.21,0.11 c 0.51,0.05 1,0.09 1.54,0.11 h 0.6 0.56 0.22 0.7 c 0.47,0 0.93,0 1.4,0 h 1.29 1.38 0.25 c 0.42,0 0.83,0 1.25,-0.06 l 1,-0.05 0.83,-0.06 1.19,-0.1 c 0.51,-0.05 1,-0.1 1.53,-0.17 0.53,-0.07 0.81,-0.09 1.22,-0.15 0.41,-0.06 0.79,-0.11 1.18,-0.18 0.39,-0.07 0.76,-0.11 1.13,-0.18 a 0.71,0.71 0 0 0 0.2,0 c 0.44,-0.06 0.88,-0.14 1.31,-0.23 0.7,-0.13 1.39,-0.28 2.08,-0.44 0.36,-0.08 0.72,-0.16 1.09,-0.26 q 1.32,-0.3 2.61,-0.69 c 0.73,-0.21 1.45,-0.43 2.17,-0.66 0.5,-0.16 1,-0.32 1.5,-0.5 a 61.27,61.27 0 0 0 6.25,-2.51 c 0.44,-0.19 0.88,-0.4 1.31,-0.61 l 0.41,-0.2 c 0.62,-0.31 1.23,-0.62 1.84,-0.95 0.61,-0.33 1.32,-0.72 2,-1.09 l 12.32,-7.11 47.66,-27.49 0.38,-0.22 23,-13.27 9.59,-5.53 85.46,-49.29 a 68.38,68.38 0 0 0 24.77,-24.53 65.94,65.94 0 0 0 3.84,-7.48 68.27,68.27 0 0 0 5.77,-27.46 v -205.75 a 68.44,68.44 0 0 0 -8.25,-32.59 z"
     class="cls-1" /><path
     style="fill:#fcb216"
     inkscape:connector-curvature="0"
     id="path8"
     d="m 1385.7172,135.3786 a 68.81,68.81 0 0 1 32.14,8 c 0.74,0.4 1.48,0.8 2.2,1.22 l 13.87,8 56.39,32.52 4.13,2.39 v 0 l 28.46,16.37 4.07,2.34 17.26,10 3.91,2.25 34.18,19.72 4.06,2.34 v 0 l 12.13,7 c 1,0.59 2,1.2 3,1.85 1.18,0.75 2.33,1.55 3.45,2.39 a 68.46,68.46 0 0 1 17.59,19.09 c 0.72,1.16 1.41,2.34 2,3.55 a 68.44,68.44 0 0 1 8.27,32.59 v 205.75 a 68.27,68.27 0 0 1 -5.77,27.46 65.94,65.94 0 0 1 -3.84,7.48 68.38,68.38 0 0 1 -24.77,24.53 l -85.46,49.29 -9.59,5.53 -23,13.27 -0.38,0.22 -47.6,27.49 -12.32,7.11 c -0.65,0.37 -1.31,0.74 -2,1.09 -0.69,0.35 -1.22,0.64 -1.84,0.95 l -0.41,0.2 c -0.43,0.21 -0.87,0.42 -1.31,0.61 a 61.27,61.27 0 0 1 -6.25,2.51 c -0.5,0.18 -1,0.34 -1.5,0.5 -0.72,0.24 -1.44,0.46 -2.17,0.66 -0.73,0.2 -1.73,0.49 -2.61,0.69 -0.37,0.1 -0.73,0.18 -1.09,0.26 -0.69,0.16 -1.38,0.31 -2.08,0.44 -0.43,0.09 -0.87,0.17 -1.31,0.23 a 0.71,0.71 0 0 1 -0.2,0 c -0.37,0.07 -0.75,0.13 -1.13,0.18 -0.38,0.05 -0.79,0.13 -1.18,0.18 -0.39,0.05 -0.81,0.11 -1.22,0.15 -0.41,0.04 -1,0.12 -1.53,0.17 -0.67,0.06 -1.35,0.12 -2,0.16 l -1,0.05 c -0.42,0 -0.83,0 -1.25,0.06 -0.42,0.06 -1.08,0 -1.63,0 h -1.29 c -0.47,0 -0.93,0 -1.4,0 h -0.7 -0.22 c -0.39,0 -0.78,0 -1.16,-0.06 -0.38,-0.06 -1,-0.06 -1.54,-0.11 l -1.21,-0.11 c -1,-0.1 -2,-0.22 -3,-0.38 -0.52,-0.06 -1,-0.14 -1.55,-0.24 l -0.35,-0.05 -1,-0.19 c -0.41,-0.07 -0.8,-0.15 -1.2,-0.24 -0.78,-0.15 -1.55,-0.33 -2.32,-0.52 h -0.06 c -0.8,-0.19 -1.58,-0.4 -2.36,-0.62 -0.78,-0.22 -1.56,-0.46 -2.34,-0.71 l -0.5,-0.16 a 68.06,68.06 0 0 1 -12.76,-5.69 l -12.71,-7.34 -44.1,-25.41 -21.9,-12.64 -8.55,-4.93 -2.45,-1.44 v 0 l -1.57,-0.91 -87.14,-50.25 a 68.8,68.8 0 0 1 -34.37,-59.47 v -205.82 a 67.85,67.85 0 0 1 1.06,-12 c 0.33,-1.86 0.74,-3.71 1.23,-5.53 a 68.73,68.73 0 0 1 32.07,-42 v 0 l 121.08,-69.8 30.43,-17.55 1.84,-1.06 14.5,-8.37 10.53,-6.07 a 67.6,67.6 0 0 1 8.6,-4.19 c 0.65,-0.26 1.31,-0.51 2,-0.75 1.55,-0.57 3.11,-1.09 4.7,-1.54 0.81,-0.23 1.62,-0.45 2.44,-0.65 a 69.39,69.39 0 0 1 14.73,-2 q 1,0 2,0 m 0,-9.61 c -0.74,0 -1.5,0 -2.25,0 a 79.36,79.36 0 0 0 -16.74,2.29 c -0.81,0.2 -1.7,0.43 -2.75,0.73 -1.73,0.49 -3.5,1.07 -5.4,1.77 -0.74,0.27 -1.48,0.55 -2.21,0.84 a 77.76,77.76 0 0 0 -9.84,4.8 l -10.52,6.06 -14.5,8.37 -1.92,1.05 -30.44,17.55 -119.3,68.8 -1.84,1.06 a 78.72,78.72 0 0 0 -36.55,47.83 c -0.56,2.06 -1,4.19 -1.41,6.33 a 77.64,77.64 0 0 0 -1.21,13.64 v 205.82 a 78.43,78.43 0 0 0 39.18,67.79 l 87.14,50.25 1.55,0.9 2.24,1.3 v 0 l 0.26,0.15 8.56,4.93 21.91,12.64 44.07,25.41 12.68,7.33 a 78.2,78.2 0 0 0 14.5,6.43 c 0.25,0.09 0.49,0.17 0.75,0.24 0.75,0.24 1.64,0.52 2.59,0.79 0.95,0.27 1.62,0.44 2.34,0.62 l 0.6,0.15 c 0.67,0.16 1.51,0.36 2.42,0.54 l 1.36,0.27 1.14,0.21 h 0.1 l 0.44,0.07 c 0.58,0.1 1.15,0.19 1.72,0.26 1,0.16 2.16,0.3 3.41,0.42 h 0.13 l 1.19,0.11 c 0.64,0.06 1.24,0.11 1.8,0.13 l 1.2,0.07 h 0.51 0.7 c 0.49,0 1,0 1.46,0 h 1.65 c 0.59,0 1.16,0 1.75,0 l 1.44,-0.06 1,-0.06 h 0.05 c 0.79,-0.05 1.52,-0.11 2.32,-0.18 h 0.08 c 0.51,0 1.08,-0.1 1.71,-0.19 0.46,0 0.92,-0.1 1.41,-0.17 l 1.34,-0.2 c 0.38,-0.06 0.74,-0.11 1.1,-0.18 l 0.54,-0.09 c 0.45,-0.07 0.91,-0.15 1.39,-0.25 0.72,-0.14 1.47,-0.3 2.34,-0.5 l 1.28,-0.3 c 1,-0.23 2,-0.5 3,-0.79 1,-0.29 1.66,-0.48 2.49,-0.76 0.51,-0.16 1.08,-0.34 1.68,-0.56 a 68.27,68.27 0 0 0 7,-2.82 c 0.59,-0.26 1.13,-0.52 1.59,-0.74 v 0 l 0.54,-0.26 c 0.59,-0.3 1.29,-0.65 2,-1 0.71,-0.35 1.59,-0.87 2.18,-1.21 v 0 0 l 12.32,-7.11 47.76,-27.45 0.4,-0.23 23,-13.26 9.59,-5.53 85.46,-49.29 a 78.24,78.24 0 0 0 28.24,-28 78.3,78.3 0 0 0 10.95,-39.84 v -205.8 a 78.2,78.2 0 0 0 -9.41,-37.12 c -0.69,-1.32 -1.46,-2.65 -2.36,-4.09 a 77.6,77.6 0 0 0 -20,-21.73 c -1.32,-1 -2.65,-1.91 -4,-2.75 -1.12,-0.73 -2.25,-1.43 -3.46,-2.12 l -12.11,-7 -2.21,-1.24 v 0 l -1.83,-1.06 -34.18,-19.72 -3.92,-2.25 -17.25,-10 -4.07,-2.33 -28.4,-16.39 -2.25,-1.25 v 0 l -1.9,-1.1 -56.4,-32.53 -13.87,-8 c -0.82,-0.47 -1.64,-0.92 -2.43,-1.35 v 0 0 a 78.62,78.62 0 0 0 -36.75,-9.13 z"
     class="cls-2" /><path
     style="fill:#2a88d1"
     inkscape:connector-curvature="0"
     id="path10"
     d="m 1358.6572,422.7086 a 12.53,12.53 0 0 0 -21.77,12.41 l -86.54,51.94 -11.5,46 -60.26,36.17 3,2.9 60.76,-36.47 11.51,-46.05 85.5,-51.31 a 12.54,12.54 0 0 0 19.3,-15.63 z m -6.37,13.76 a 8.51,8.51 0 1 1 2.92,-11.69 8.53,8.53 0 0 1 -2.92,11.69 z"
     class="cls-3" /><path
     style="fill:#2a88d1"
     inkscape:connector-curvature="0"
     id="path12"
     d="m 1363.8772,132.7786 -1.94,6.83 -2.73,9.58 -109,65.43 -11.49,45.94 a 12.86,12.86 0 1 0 3.91,1.23 l 11.09,-44.52 109,-65.39 3.93,-13.8 1.85,-6.49 c -1.56,0.34 -3.1,0.74 -4.62,1.19 z m -119.55,136 a 8.67,8.67 0 1 1 -14.86,8.92 8.67,8.67 0 0 1 14.86,-8.92 z"
     class="cls-3" /><path
     style="fill:#2a88d1"
     inkscape:connector-curvature="0"
     id="path14"
     d="m 1321.8672,291.1986 -39.8,-20.19 c 0.09,-0.28 0.18,-0.55 0.25,-0.83 a 12.76,12.76 0 1 0 -5.82,7.85 13,13 0 0 0 3.71,-3.36 l 41.82,21.21 59.81,-35.89 c 0.34,-1.74 0.6,-3.49 0.8,-5.26 z m -43.53,-22 a 8.66,8.66 0 1 1 -1,-6.56 8.6,8.6 0 0 1 1,6.54 z"
     class="cls-3" /><path
     style="fill:#2a88d1"
     inkscape:connector-curvature="0"
     id="path16-2"
     d="m 1632.9072,354.1286 -41.36,24.75 -12.13,34.15 -23.94,14.35 -39,-3.46 -31.82,19.07 a 14.21,14.21 0 1 0 2.43,3.83 l 30.46,-18.25 39.05,3.45 26.59,-15.94 12.13,-34.12 37.64,-22.56 74.42,-44.59 0.27,-5.44 z m -149.53,100.58 a 9.64,9.64 0 1 1 -1.94,-8.41 l 1.49,2.5 a 9.41,9.41 0 0 1 0.45,5.91 z"
     class="cls-3" /><path
     style="fill:#2a88d1"
     inkscape:connector-curvature="0"
     id="path18"
     d="m 1241.7972,379.3486 a 13.79,13.79 0 0 0 -22.91,-1.09 l -45.17,-22.91 -35.16,21.31 -1.16,0.7 -0.27,5.32 1.43,-0.87 35.34,-21.41 43,21.8 c -0.09,0.3 -0.19,0.6 -0.27,0.9 a 13.78,13.78 0 1 0 25.19,-3.75 z m -2.74,9.36 a 9.36,9.36 0 1 1 -1.06,-7.08 9.3,9.3 0 0 1 1.06,7.08 z"
     class="cls-3" /><path
     style="fill:#2a88d1"
     inkscape:connector-curvature="0"
     id="path20"
     d="m 1518.6572,589.2486 a 8,8 0 0 0 14.72,-6 l 61,-36.57 21.61,5.4 65.51,-39.3 -2.11,-1.36 c -0.7,-0.45 -1.41,-0.87 -2.12,-1.29 l -62,37.19 -21.61,-5.41 -62.44,37.47 a 8,8 0 0 0 -12.56,9.87 z"
     class="cls-3" /><path
     style="fill:#2a88d1"
     inkscape:connector-curvature="0"
     id="path22"
     d="m 1375.8272,613.0786 a 12.78,12.78 0 0 0 -21.22,-1 l -41.82,-21.2 -52.7,31.63 -2.48,1.49 1.81,1.17 2,1.31 2.71,-1.62 48.8,-29.29 39.79,20.15 c -0.08,0.28 -0.17,0.55 -0.25,0.83 a 12.77,12.77 0 1 0 23.33,-3.47 z m -2.54,8.67 a 8.66,8.66 0 1 1 -1,-6.56 8.6,8.6 0 0 1 1,6.56 z"
     class="cls-3" /><path
     style="fill:#2a88d1"
     inkscape:connector-curvature="0"
     id="path24"
     d="m 1632.9072,309.3086 -90,53.94 a 15,15 0 1 0 2.63,4 l 87.37,-52.37 76.7,-46 0.28,-5.77 z m -91.19,66.51 a 10.16,10.16 0 1 1 -1.15,-7.68 10.12,10.12 0 0 1 1.15,7.68 z"
     class="cls-3" /><path
     style="fill:#2a88d1"
     inkscape:connector-curvature="0"
     id="path26"
     d="m 1333.3772,361.7186 -167,100.07 a 15,15 0 1 0 2.63,4 l 164.08,-98.31 z m -168.17,112.63 a 10.12,10.12 0 1 1 -1.14,-7.68 10.09,10.09 0 0 1 1.14,7.68 z"
     class="cls-3" /><path
     style="fill:#2a88d1"
     inkscape:connector-curvature="0"
     id="path28"
     d="m 1562.6472,277.1086 147.47,-88.49 c -0.35,-1.27 -0.74,-2.52 -1.16,-3.76 l -149.9,90 -2.19,19.84 -30.9,18.52 a 6.92,6.92 0 1 0 2,3.26 l 32.51,-19.48 z"
     class="cls-3" /><path
     style="fill:#2a88d1"
     inkscape:connector-curvature="0"
     id="path30"
     d="m 1513.7172,228.1786 a 7.16,7.16 0 1 0 10.62,4.52 l 54.18,-32.46 19.19,4.81 12,-7.83 -3.68,-2.34 -9,5.9 -19.19,-4.81 -55.47,33.25 a 7.14,7.14 0 0 0 -8.65,-1.04 z"
     class="cls-3" /><path
     style="fill:#2a88d1"
     inkscape:connector-curvature="0"
     id="path32"
     d="m 1218.1072,298.3286 a 12.76,12.76 0 0 0 -22.67,11.61 l -27.57,16.52 -29.29,-2.58 v 4.12 l 30.26,2.67 28.8,-17.26 a 12.77,12.77 0 0 0 20.47,-15.07 z m -2.54,8.67 a 8.63,8.63 0 0 1 -15.06,3.41 l -1.35,-2.25 a 8.6,8.6 0 0 1 3.56,-10.69 8.67,8.67 0 0 1 12.87,9.53 z"
     class="cls-3" /><path
     style="fill:#2a88d1"
     inkscape:connector-curvature="0"
     id="path34"
     d="m 1482.9672,274.2086 a 7.43,7.43 0 1 0 11,4.69 l 56.23,-33.7 19.93,5 80.67,-48.32 c -0.89,-1.07 -1.8,-2.11 -2.75,-3.13 l -78.54,47.06 -19.93,-5 -57.58,34.5 a 7.41,7.41 0 0 0 -9.03,-1.1 z"
     class="cls-3" /><path
     style="fill:#2a88d1"
     inkscape:connector-curvature="0"
     id="path36"
     d="m 1616.7972,107.6586 -68.49,41.1 -11.71,46.87 -13.69,8.25 -73.34,44 a 12.78,12.78 0 0 0 -15.28,-1.62 12.77,12.77 0 1 0 18.95,14 12.65,12.65 0 0 0 -1.16,-9.15 l 74.9,-44.95 13.19,-7.91 11.71,-46.88 68.76,-41.27 z m -167.53,151.64 a 8.67,8.67 0 0 1 -15.84,2.36 8.67,8.67 0 1 1 15.84,-2.36 z"
     class="cls-3" /><path
     style="fill:#2a88d1"
     inkscape:connector-curvature="0"
     id="path38"
     d="m 1603.3172,98.958601 -3.47,-2.24 -104.51,65.099999 -2.4,21.71 -2.58,1.54 -32.13,19.26 a 13,13 0 0 0 -22.62,5.09 13,13 0 1 0 24.72,-1.49 l 34.16,-20.47 v 0 l 2.36,-1.42 2.4,-21.7 104.47,-65.099999 z m -150.6,121.169999 a 8.82,8.82 0 1 1 -9,-15.12 8.82,8.82 0 1 1 9,15.12 z"
     class="cls-3" /><path
     style="fill:#2a88d1"
     inkscape:connector-curvature="0"
     id="path40-6"
     d="m 1321.1572,502.8786 a 12.81,12.81 0 1 0 -16.72,18 l -11.16,44.68 -58.69,35.32 3.06,3 59.21,-35.54 11.52,-46.1 a 12.8,12.8 0 0 0 12.78,-19.36 z m -2.55,8.7 a 8.69,8.69 0 1 1 -1,-6.58 8.66,8.66 0 0 1 1,6.58 z"
     class="cls-3" /><path
     style="fill:#2a88d1"
     inkscape:connector-curvature="0"
     id="path42-3"
     d="m 1622.5872,270.7886 -41,24.55 -11,30.88 -21.66,13 -35.34,-3.13 -28.8,17.26 a 12.84,12.84 0 1 0 2.2,3.47 l 27.57,-16.52 35.34,3.12 24.06,-14.42 11,-30.88 39.65,-23.76 87.3,-52.31 0.24,-4.93 z m -138.87,93.15 a 8.76,8.76 0 1 1 -1.76,-7.61 l 1.35,2.24 a 8.66,8.66 0 0 1 0.41,5.37 z"
     class="cls-3" /><path
     style="fill:#2a88d1"
     inkscape:connector-curvature="0"
     id="path44"
     d="m 1209.4472,259.3386 a 7.39,7.39 0 0 1 -8.86,-1 l -61,36.58 c 0.33,-1.86 0.74,-3.71 1.23,-5.53 l 57.66,-34.51 a 7.41,7.41 0 1 1 11,4.47 z"
     class="cls-3" /><path
     style="fill:#d89481"
     inkscape:connector-curvature="0"
     id="path46"
     d="m 1448.2672,199.7086 c 0.18,19 -16.13,18.57 -20.9,17.64 l -1.75,92.9 1.1,61.09 -101.65,-1.53 12.42,-40.27 4.86,-15.77 c 0.5,-7.49 0.72,-17 0.83,-23.81 v -1.81 c 0,-3.46 0,-6.61 0,-6.61 -1.52,-0.19 -32.68,-4.48 -34.38,-36.14 -0.65,-12.06 -0.71,-30 -0.52,-47.71 0,-1.61 0,-3.22 0,-4.82 0.07,-5.9 0.17,-11.71 0.29,-17.22 q 0,-1.56 0.06,-3.09 c 0.19,-9.12 0.4,-17.25 0.57,-23.31 0.2,-6.86 0.34,-11.07 0.34,-11.07 a 113.13,113.13 0 0 1 114.07,9.54 l 5,3.5 -0.32,17.26 -0.08,4.34 -0.21,11.28 v 0.33 c 0.59,-0.14 1.3,-0.29 2.09,-0.42 a 23.57,23.57 0 0 1 5.37,-0.28 h 0.08 a 17.08,17.08 0 0 1 3.64,0.65 c 4.75,1.5 8.99,5.5 9.09,15.33 z"
     class="cls-4" /><path
     style="fill:#ab6651"
     inkscape:connector-curvature="0"
     id="path48"
     d="m 1433.0172,209.7086 c 0.11,-0.08 0.44,0.31 1.19,0.64 a 4.4,4.4 0 0 0 3.31,0 c 2.67,-1 4.88,-5.28 5,-9.85 a 14.52,14.52 0 0 0 -1.3,-6.3 c -0.79,-1.85 -2,-3.13 -3.35,-3.36 a 2.26,2.26 0 0 0 -2.6,1.24 c -0.33,0.71 -0.16,1.21 -0.3,1.26 -0.14,0.05 -0.55,-0.42 -0.35,-1.47 a 2.86,2.86 0 0 1 1,-1.6 3.37,3.37 0 0 1 2.44,-0.67 c 2,0.12 3.73,1.9 4.65,3.89 a 15,15 0 0 1 1.6,7 c -0.12,5.11 -2.69,9.91 -6.34,11 a 4.75,4.75 0 0 1 -4.05,-0.64 c -0.85,-0.52 -0.99,-1.09 -0.9,-1.14 z"
     class="cls-5" /><path
     style="fill:#3a2416"
     inkscape:connector-curvature="0"
     id="path50"
     d="m 1350.1472,220.2386 c 0,-0.29 -3.12,-0.69 -8.18,-1.13 -1.28,-0.08 -2.49,-0.28 -2.74,-1.14 -0.25,-0.86 0.13,-2.3 0.69,-3.81 q 1.6,-4.69 3.37,-9.86 c 4.66,-14 8,-25.54 7.41,-25.72 -0.59,-0.18 -4.8,11 -9.47,25.07 q -1.68,5.17 -3.2,9.9 c -0.43,1.47 -1.19,3.15 -0.46,5 a 3.21,3.21 0 0 0 2.18,1.78 8.75,8.75 0 0 0 2.17,0.21 c 5.08,0.09 8.22,-0.02 8.23,-0.3 z"
     class="cls-6" /><path
     style="fill:#3a2416"
     inkscape:connector-curvature="0"
     id="path52"
     d="m 1372.7172,163.7886 c 0.26,1.42 5.28,1.61 11,3.27 5.72,1.66 10.08,4 11,2.95 0.44,-0.51 -0.16,-1.91 -1.83,-3.52 a 19.9,19.9 0 0 0 -16.77,-4.75 c -2.3,0.5 -3.55,1.38 -3.4,2.05 z"
     class="cls-6" /><path
     style="fill:#3a2416"
     inkscape:connector-curvature="0"
     id="path54"
     d="m 1315.4072,172.7586 c 1.21,0.77 4.05,-1.5 7.93,-2.95 3.88,-1.45 7.45,-1.87 7.81,-3.26 0.14,-0.66 -0.77,-1.54 -2.57,-2 a 12.21,12.21 0 0 0 -12.68,5 c -0.99,1.56 -1.04,2.82 -0.49,3.21 z"
     class="cls-6" /><path
     style="fill:#2e5389"
     inkscape:connector-curvature="0"
     id="path56"
     d="m 1426.0672,193.0886 c -1.65,1.12 -3.31,2.21 -5,3.26 -9.63,6 -20.5,10.58 -37,10.34 -25.69,-0.37 -30.65,-15.48 -37.21,-13.88 a 6.16,6.16 0 0 0 -2.44,1.34 15.26,15.26 0 0 0 -1.63,1.61 c -9.13,10.43 -25.66,11.59 -34.56,1.93 0,-1.61 0,-3.22 0,-4.82 0.07,-5.9 0.17,-11.71 0.29,-17.22 q 0,-1.56 0.06,-3.09 c 18,-5.22 95.43,-4.45 119.55,0.26 l 0.58,0.12 -0.79,11.16 v 0.37 c 0.6,-0.15 1.31,-0.31 2.11,-0.46 -4.47,2.43 -4.1,5.97 -3.96,9.08 z"
     class="cls-7" /><polygon
     style="fill:#f9fbfd"
     id="polygon58"
     points="357.27,103.58 387.21,111.97 399.54,98.93 387.83,92.18 358.96,96.53 "
     class="cls-8"
     transform="translate(999.7172,85.878602)" /><polygon
     style="fill:#f9fbfd"
     id="polygon60"
     points="340.34,103.28 319.77,108.49 312.13,97.19 320.36,92.33 339.56,97.44 "
     class="cls-8"
     transform="translate(999.7172,85.878602)" /><path
     style="fill:#3a2416"
     inkscape:connector-curvature="0"
     id="path62"
     d="m 1304.7172,95.798602 c 4,-3.33 9.12,-5.47 14.36,-5 4.57,0.4 9,2.67 13.54,2.14 7.1,-0.82 12.89,-8.23 19.91,-6.87 4.66,0.9 8.11,5.56 12.86,5.78 3.26,0.16 6.18,-1.85 9.25,-2.95 a 17.55,17.55 0 0 1 15.32,1.84 c 2.09,1.38 4,3.25 6.39,3.83 2.88,0.69 5.81,-0.58 8.68,-1.32 a 16,16 0 0 1 9.29,0.12 10.28,10.28 0 0 1 5.13,3.999999 c 0.5,0.8 0.6,2.18 1.12,2.829999 0.79,1 2.44,0.84 3.54,0.75 1.8,-0.16 4,-0.76 5.75,-0.1 a 7.94,7.94 0 0 1 3.32,2.49 10.62,10.62 0 0 1 2.09,8.25 7.69,7.69 0 0 0 0.42,5.12 c 0.8,1.43 2.25,1.81 3.53,2.7 a 14.2,14.2 0 0 1 2.09,21.67 c -0.81,0.83 -2,1.34 -2.7,2.2 a 7.89,7.89 0 0 0 -1.09,2.33 21.29,21.29 0 0 0 -1,5.6 c -0.16,2.63 0.13,5.2 0.19,7.82 0.21,8.86 0,17.85 -1.16,24.72 -15.3,-0.79 -6.54,13.7 -10.37,14.06 -9.92,1 -8,-26.47 -8,-26.47 -16.57,-5.61 -11.5,-30.27 -15.74,-33.81 -4.24,-3.54 -13.11,-11.78 -46.53,7.07 -13,7.32 -30.61,7.84 -40.33,6.06 -0.28,-0.05 -0.57,-0.08 -0.85,-0.14 h -0.2 c -0.11,0 -0.18,-0.08 -0.29,-0.1 a 31.13,31.13 0 0 1 -8.91,-3.35 c -3.17,-1.83 -6.09,-4.36 -7.55,-7.72 -1.46,-3.36 -1.13,-7.64 1.44,-10.24 a 23.44,23.44 0 0 1 -5.29,-10.72 c -2.87,-13.99 9.9,-21.049999 11.79,-22.589998 z"
     class="cls-6" /><path
     style="fill:#a66653"
     inkscape:connector-curvature="0"
     id="path64"
     d="m 1396.8072,263.3286 c -2.09,9.82 -11.89,16.18 -23.72,20 a 109.91,109.91 0 0 1 -29.94,4.82 c 0,-3.46 0,-6.61 0,-6.61 a 102.39,102.39 0 0 0 28.46,-3.22 c 12.58,-3.34 21.99,-8.91 25.2,-14.99 z"
     class="cls-9" /><path
     style="fill:#ab6651"
     inkscape:connector-curvature="0"
     id="path66"
     d="m 1356.5572,244.6786 c 8.2,-1.27 17.79,-8.58 14.62,-18.88 -2,3.75 -12.27,11.47 -22.17,14.65 v 0 a 7.06,7.06 0 0 0 7.55,4.23 z"
     class="cls-5" /><path
     style="fill:#3a2416"
     inkscape:connector-curvature="0"
     id="path68"
     d="m 1350.7172,244.3886 a 15.76,15.76 0 0 0 8,-0.83 21.37,21.37 0 0 0 6.86,-3.9 14.59,14.59 0 0 0 4.42,-6.15 11.93,11.93 0 0 0 0.08,-7.36 l 2.21,0.22 a 20,20 0 0 1 -4.95,5.16 48.9,48.9 0 0 1 -5.69,3.84 48.27,48.27 0 0 1 -6.12,3 38.94,38.94 0 0 1 -6.47,2.06 q 3.09,-1.4 6,-3 c 1.94,-1.1 3.82,-2.3 5.64,-3.55 1.82,-1.25 3.58,-2.61 5.24,-4 0.84,-0.71 1.62,-1.47 2.37,-2.23 a 11.86,11.86 0 0 0 1.87,-2.36 1.2,1.2 0 0 1 1.62,-0.5 1.16,1.16 0 0 1 0.58,0.69 v 0 a 13.56,13.56 0 0 1 -0.16,8.87 15.71,15.71 0 0 1 -5.38,6.91 20.57,20.57 0 0 1 -7.77,3.56 14,14 0 0 1 -8.35,-0.43 z"
     class="cls-6" /><path
     style="fill:#3b5c64"
     inkscape:connector-curvature="0"
     id="path70"
     d="m 1339.9872,313.8786 a 1.5,1.5 0 0 1 -0.29,0.06 h -0.26 z"
     class="cls-10" /><path
     style="fill:#b56e5b"
     inkscape:connector-curvature="0"
     id="path72"
     d="m 1370.0172,316.9686 c -0.6,3.45 -2.92,6.35 -4.76,9.34 -5.59,9.11 -7.12,20.94 -3.91,30.24 l -23.89,-27 4.86,-15.77 c 0.5,-7.49 0.72,-17 0.83,-23.81 v -1.81 a 109.91,109.91 0 0 0 29.94,-4.82 c 0.26,5 -2.38,10.54 -6.47,13.13 -1.56,1 -3.28,1.59 -4.78,2.73 -1.5,1.14 -2.81,3.11 -2.57,5 a 4.06,4.06 0 0 0 2.87,3.17 c 1.35,0.48 2.84,0.58 4.15,1.18 2.76,1.23 4.35,4.84 3.73,8.42 z"
     class="cls-11" /><path
     style="fill:#f4af36"
     inkscape:connector-curvature="0"
     id="path74"
     d="m 1304.9072,545.7886 c 0,0 42.09,50.36 11.36,102 -74.13,0 -180.13,-51.55 -219,-99.81 0,0 48,5.39 50.56,-28.7 1.94,-25.73 -14.88,-42.76 -56.41,-56 -44.29,-14.14 -73.62,-48.47 -91.7,-106.78 46.08,25.39 93.78,41.93 155,0 61.22,-41.93 123,-58.77 175.09,-48.17 l 4.18,8.49 55.82,113.13 z"
     class="cls-12" /><path
     style="fill:#de981f"
     inkscape:connector-curvature="0"
     id="path76"
     d="m 1334.0272,316.8186 c -2.55,7.41 -1.19,27.94 -11.5,34.11 -24.46,-4.24 -92.42,0.11 -140.16,29.47 -55.76,34.29 -141.45,33.23 -182.65,-23.9 46.08,25.39 93.78,41.93 155,0 61.22,-41.93 123,-58.77 175.09,-48.17 z"
     class="cls-13" /><path
     style="fill:#426dc3"
     inkscape:connector-curvature="0"
     id="path78-3"
     d="m 1632.9072,500.8786 c -12.58,12.36 -26.54,23.12 -35,27.95 -19.69,11.22 -26.32,12.56 -26.32,12.56 -15.1,4 -34.69,10.84 -35.3,11.05 v 0 c -0.22,-0.38 -0.43,-0.76 -0.63,-1.15 -0.2,-0.39 -0.55,-1 -0.82,-1.48 -0.81,-1.45 -1.6,-2.91 -2.39,-4.38 q -2.37,-4.38 -4.66,-8.81 l -0.31,-0.61 c -0.66,-1.27 -1.31,-2.55 -2,-3.83 -0.69,-1.28 -1.42,-2.82 -2.11,-4.24 -0.69,-1.42 -1.39,-2.84 -2.07,-4.26 l -0.27,-0.55 c -0.6,-1.24 -1.19,-2.48 -1.77,-3.73 l -0.13,-0.27 c -0.64,-1.34 -1.26,-2.68 -1.88,-4 -0.83,-1.82 -1.65,-3.63 -2.47,-5.45 v 0 c 2.17,-2.6 4.31,-5.19 6.47,-7.8 12.89,-11.36 27.09,-20.89 41.82,-29.65 l 1.5,-0.45 -1.5,0.44 c -1.3,-3.88 -2.55,-7.76 -3.93,-11.6 -0.94,-2.66 -1.93,-5.15 -5.3,-5.93 a 157.14,157.14 0 0 1 -29.54,-10.25 126.63,126.63 0 0 1 -27.42,-17.32 c -2.21,-1.79 -4.52,-2.9 -7,-2.21 -4.87,1.32 -4.67,10.3 -5.92,15.58 -1.36,5.77 -2.61,11.52 -3.8,17.26 -0.19,0.91 -0.37,1.81 -0.56,2.72 -1.5,7.34 -2.91,14.67 -4.34,22 -0.1,0.51 -0.21,1 -0.3,1.54 -0.41,2.06 -0.81,4.12 -1.22,6.19 -1.13,5.68 -2.3,11.39 -3.56,17.12 a 56.72,56.72 0 0 1 0.18,17.82 c 0,0 0,0 0,0.05 -0.08,0.61 -0.16,1.12 -0.23,1.53 a 0.66,0.66 0 0 1 0.06,0.27 0.77,0.77 0 0 1 -0.16,0.45 q 1.79,5.24 3.59,10.45 a 29.94,29.94 0 0 0 0.18,4.56 c 0.43,2.33 0.87,4.66 1.29,7 l 2.63,14.05 q 1.06,5.76 2.14,11.52 c 0.09,0.47 0.17,0.94 0.26,1.4 0.57,3 1.13,6 1.7,9.06 q 2.55,13.61 5.21,27.19 c 0.44,2.26 0.79,4.53 1.12,6.81 0.33,2.28 0.65,4.52 1,6.77 0,0 0,0 0,0.07 0.14,0.81 0.28,1.62 0.43,2.43 q 0.28,1.5 0.63,3 c 0.19,0.85 0.41,1.69 0.64,2.53 v 0 0.11 l -20,11.59 v 0 l -0.33,0.19 -41.51,24 a 0.56,0.56 0 0 1 0,-0.12 c -11.58,-29.69 -22,-59.8 -30.83,-90.52 -1.45,-5.06 -3.76,-7.45 -9.16,-6.81 -3.54,0.42 -7.18,0.2 -10.77,0.28 -2.27,28.15 -4.25,65 -6.5,93.15 -0.38,4.83 -0.82,10.77 -1.24,16.47 l -1.14,-0.27 c -0.75,-0.18 -1.5,-0.38 -2.24,-0.59 -0.43,-0.12 -0.86,-0.24 -1.29,-0.38 -0.43,-0.14 -0.77,-0.24 -1.16,-0.36 l -0.5,-0.16 a 68.06,68.06 0 0 1 -12.76,-5.69 l -3.96,-2.29 -8.74,-5.08 -29.4,-16.92 -0.37,-3.23 c -1.59,-7.92 -2.93,-17.9 -4,-28.89 -2.86,-28.43 -4.15,-63.56 -4.17,-87 0,-12 0.31,-20.92 0.92,-24.28 -0.62,-1.26 -1.24,-2.51 -1.85,-3.78 v 0 c -0.24,-0.5 -0.49,-1 -0.73,-1.52 q -3.21,-6.76 -6.12,-13.64 -0.35,-0.8 -0.66,-1.59 a 406.34,406.34 0 0 1 -18,-53.69 c -1.15,-4.32 -2.3,-5.44 -5.94,-2.48 a 56.39,56.39 0 0 1 -5.85,4.6 c -1.15,0.83 -2.35,1.63 -3.62,2.4 a 114.17,114.17 0 0 1 -13.21,7 l -0.56,0.37 c -1.4,0.59 -2.82,1.14 -4.24,1.7 h -0.12 c -21.66,8.91 -48.46,14.46 -67.9,14.55 9.82,2.51 17.84,4.26 25.65,6.63 a 118.93,118.93 0 0 1 22.51,10 c 11.8,6.51 21.81,15.35 32.16,23.78 l 10.05,11.93 -1.14,2.53 q -1.14,2.53 -2.3,5.06 -1.16,2.53 -2.34,5 -1.18,2.51 -2.4,5 -1,2.07 -2.06,4.14 c -0.56,1.1 -1.13,2.2 -1.7,3.29 -0.45,0.87 -0.91,1.73 -1.37,2.59 -0.46,0.86 -0.83,1.54 -1.26,2.3 -0.43,0.76 -0.85,1.54 -1.29,2.31 a 2.38,2.38 0 0 1 -0.18,0.3 c -0.41,0.74 -0.84,1.48 -1.28,2.22 -0.44,0.74 -0.95,1.61 -1.42,2.4 -0.47,0.79 -1,1.58 -1.46,2.37 v 0 c -12.51,-2.88 -32.83,-9.75 -44.52,-13.81 a 94.81,94.81 0 0 1 -17.06,-7.93 l -3.55,-2.1 a 167.26,167.26 0 0 1 -30.72,-22.77 c -3,-2.84 -5.86,-5.81 -8.58,-8.91 a 126.54,126.54 0 0 1 -14.8,-20.62 c 0,0 0,0 0,0 -1.5,-2.58 -2.9,-5.24 -4.23,-8 -1.92,-3.94 -3.61,-7.93 -3.12,-12.47 4.4,-12.78 8.53,-25.63 14.89,-37.68 q 3.38,-6.39 7.27,-12.28 c 2.31,-3.53 4.77,-6.94 7.34,-10.24 v 0 c 11.93,-15.27 26.46,-28.1 42.67,-39.43 a 265.62,265.62 0 0 1 42.73,-20.83 v 0 l 0.2,-0.07 c 2.8,-0.88 34.86,-10.88 66.34,-16.58 v 0 c 3.55,-0.64 7.09,-1.23 10.59,-1.74 l 1.95,-0.28 c 8.69,-1.45 16.36,-2.8 16.36,-2.8 a 13,13 0 0 0 5.67,-1.19 22.34,22.34 0 0 0 6.54,-4.52 l 0.07,-0.07 a 15.53,15.53 0 0 0 3.76,-5.94 c 0.1,-0.28 0.2,-0.56 0.28,-0.85 0.17,0.21 0.33,0.44 0.5,0.68 4.9,7.19 11.46,29.83 16.77,52.53 0.28,1.2 0.56,2.39 0.83,3.58 20.4,-27.38 44,-52.23 64.75,-66.61 l 0.19,-0.14 1.95,17.25 c 4.33,1.13 9.36,2.08 15.47,3.13 5.7,1 12.36,2 20.26,3.33 1.65,0.28 3.36,0.56 5.12,0.87 l 2.1,0.36 4.16,0.73 c 2.27,0.39 4.6,0.79 7,1.23 7.36,1.28 15.19,2.89 23.29,4.89 0.65,0.16 1.3,0.32 2,0.5 7,1.76 14.1,3.82 21.32,6.24 l 1.83,0.61 a 239.67,239.67 0 0 1 43.13,19.56 v 0 c 13.87,7.27 33.83,22 44.93,33.12 a 174.7,174.7 0 0 1 14.18,15.93 c 15.41,19.72 21,37 26.75,53.55 4.04,11.93 -10.14,31.06 -26.77,47.4 z"
     class="cls-14" /><path
     style="fill:#ffffff"
     inkscape:connector-curvature="0"
     id="path80-9"
     d="m 1345.8372,441.6786 a 2.12,2.12 0 1 0 3,0 2.12,2.12 0 0 0 -3,0 z"
     class="cls-15" /><path
     style="fill:#ffffff"
     inkscape:connector-curvature="0"
     id="path82"
     d="m 1385.7172,406.9286 -17.18,17.18 13.77,13.77 a 5.07,5.07 0 1 1 -2.08,2.08 l -13.81,-13.77 -2.09,-2.08 19.27,-19.23 -9.45,-9.45 -34.69,9.3 -9.3,34.69 2.17,2.16 30.58,-30.58 a 5.07,5.07 0 1 1 2.08,2.08 l -30.58,30.58 21.15,21.16 27.16,-7.3 -23.8,-23.79 -7.06,7.06 a 5.06,5.06 0 1 1 -2.08,-2.08 l 9.14,-9.14 27.08,27.07 4.3,-1.15 9.3,-34.69 z"
     class="cls-15" /><path
     style="fill:#ffffff"
     inkscape:connector-curvature="0"
     id="path84"
     d="m 1386.1972,443.8786 a 2.12,2.12 0 1 0 -3,0 2.12,2.12 0 0 0 3,0 z"
     class="cls-15" /><path
     style="fill:#ffffff"
     inkscape:connector-curvature="0"
     id="path86-5"
     d="m 1368.8772,410.0886 a 2.13,2.13 0 1 0 -3,0 2.13,2.13 0 0 0 3,0 z"
     class="cls-15" /><path
     style="fill:#f4af36"
     inkscape:connector-curvature="0"
     id="path88-9"
     d="m 1473.6272,537.8786 0.66,-0.69 1.58,-1.64 1.19,-1.24 15.73,-16.34 q 4.56,-4.77 9.13,-9.55 c 7.24,-7.6 7.2,-7.65 12.89,1.23 v 0 c 0.82,1.83 1.64,3.64 2.47,5.45 q 4,8.61 8.23,17.08 1.11,2.22 2.26,4.44 c 1.52,2.95 3.08,5.89 4.65,8.81 0.79,1.46 1.58,2.93 2.4,4.38 0.48,0.88 1,1.75 1.45,2.62 a 20.34,20.34 0 0 0 1.75,4.23 c 4.27,6.1 3.66,9.38 -4.45,11.33 -10.31,2.48 -20.27,6.4 -31.93,10.2 3.39,2.92 5.89,4.72 8,6.91 11,11.66 10.71,23.22 -0.92,34.27 a 49.86,49.86 0 0 1 -7.18,5.79 4.61,4.61 0 0 0 -2.32,2.91 c 1.78,-1.18 5.57,-3.72 7.85,-5.39 2.93,-2.15 6.48,1 8.7,4.18 1.67,1.91 3,4.88 0.22,7.52 -2.27,2.09 -4.41,4.32 -6.6,6.49 -8.42,8.35 -8.42,8.35 -16,0.16 a 43.26,43.26 0 0 1 -2.44,-6.62 c -2,-7.1 -2.47,-14.53 -3.88,-21.75 q -2.69,-13.57 -5.22,-27.19 c -0.57,-3 -1.13,-6 -1.7,-9.06 -0.09,-0.46 -0.17,-0.94 -0.25,-1.41 q -1.08,-5.75 -2.15,-11.51 -1.31,-7 -2.6,-14.06 -0.64,-3.51 -1.3,-7 a 30,30 0 0 1 -0.22,-4.55 z"
     class="cls-12" /><path
     style="fill:#f7d86d"
     inkscape:connector-curvature="0"
     id="path90-9"
     d="m 1304.9072,618.7486 c -2.45,3.13 -4.14,5 -6.91,8.28 -2.26,2.67 -4.51,5.3 -6.54,7.81 -12.56,15.58 -12.49,15.47 -26.12,1 -3.38,-3.59 -3.26,-6.5 0,-10.19 2.2,-3.32 5.34,-5.34 8.39,-3.1 2.14,1.57 5,3.92 6.56,5.17 -0.69,-1.57 -2.3,-3.06 -4.51,-4.72 -16.95,-12.68 -17.63,-26.59 -2.72,-40.56 1.43,-1.33 3.73,-2 4,-4.82 -7.9,-1.94 -25.12,-8 -26.05,-8.43 -11.4,-4.95 -11.4,-4.94 -8,-15.82 v 0 l 1.47,-2.36 c 0.47,-0.79 1,-1.59 1.42,-2.4 0.42,-0.81 0.87,-1.48 1.28,-2.22 a 2.38,2.38 0 0 0 0.18,-0.3 q 0.66,-1.15 1.29,-2.31 c 0.43,-0.76 0.85,-1.53 1.26,-2.3 0.41,-0.77 0.92,-1.72 1.37,-2.59 0.58,-1.09 1.14,-2.19 1.7,-3.29 q 1,-2.07 2.06,-4.14 1.21,-2.51 2.4,-5 1.19,-2.49 2.34,-5 1.15,-2.52 2.3,-5.06 c 0.39,-0.84 0.77,-1.68 1.15,-2.53 a 23.1,23.1 0 0 0 1.73,-2.49 c 2.36,-4.66 3.9,-7.56 5.18,-9 2.74,-3.14 4.31,0.34 10.28,7.2 q 2.64,3 5.34,6 c 0.35,0.4 0.71,0.79 1.07,1.18 4.64,5.11 9.37,10.12 14,15.2 0.23,3.3 0.65,6.6 0.68,9.89 0.21,16.54 3.21,71.08 3.4,76.9 z"
     class="cls-16" /><path
     style="fill:#2e5389"
     inkscape:connector-curvature="0"
     id="path92"
     d="m 1378.2072,572.9486 v 0 c -2.27,28.15 -4.25,65 -6.5,93.15 -0.38,4.83 -0.82,10.77 -1.24,16.47 l -1.14,-0.27 c -0.75,-0.18 -1.5,-0.38 -2.24,-0.59 -0.43,-0.12 -0.86,-0.24 -1.29,-0.38 -0.43,-0.14 -0.77,-0.24 -1.16,-0.36 l -0.5,-0.16 a 68.06,68.06 0 0 1 -12.76,-5.69 l -3.92,-2.24 c 0,-0.41 0,-0.77 0,-1.08 -0.07,-3 -0.15,-6 -0.22,-9.08 -0.06,-2.33 -0.39,-13.4 -0.44,-15.73 -0.07,-3 -0.13,-6 -0.19,-8.93 -0.45,-22.37 -0.13,-44.76 -0.16,-67.15 0.35,-8.72 0.41,-17.45 -0.92,-26.11 v 0 a 4.35,4.35 0 0 1 3.09,3.12 c 3.89,15.39 15.69,21.44 29.59,25.03 z"
     class="cls-7" /><path
     style="fill:#2e5389"
     inkscape:connector-curvature="0"
     id="path94-1"
     d="m 1434.8772,518.4286 a 39.25,39.25 0 0 0 0.77,8.13 24.31,24.31 0 0 0 0.67,2.54 q 6.9,23.43 13.83,46.86 6.93,23.43 13.75,46.92 c 0.12,0.4 0.25,0.82 0.37,1.26 l 0.6,2.09 c 0.35,1.22 0.73,2.53 1.13,3.94 1.3,4.56 2.85,10 4.52,16 l 0.33,-0.19 20.05,-11.57 c -2,-7.1 -2.47,-14.53 -3.88,-21.75 q -2.69,-13.57 -5.22,-27.19 c -0.57,-3 -1.13,-6 -1.7,-9.06 -0.09,-0.46 -0.17,-0.94 -0.25,-1.41 q -1.08,-5.75 -2.15,-11.51 -1.31,-7 -2.6,-14.06 -0.64,-3.51 -1.3,-7 a 30,30 0 0 1 -0.17,-4.56 c -1.21,-3.48 -2.4,-7 -3.6,-10.45 0,-0.18 0.06,-0.43 0.11,-0.72 0.05,-0.29 0.14,-0.93 0.22,-1.53 0,0 0,0 0,-0.05 a 56.66,56.66 0 0 0 -0.17,-17.82 c 1.25,-5.74 2.42,-11.44 3.55,-17.13 0.41,-2.06 0.81,-4.12 1.22,-6.18 l 0.3,-1.54 c 1.44,-7.35 2.85,-14.68 4.34,-22 0.19,-0.91 0.37,-1.81 0.56,-2.72 1.19,-5.74 2.44,-11.5 3.81,-17.27 1.25,-5.27 1,-14.26 5.92,-15.57 2.5,-0.69 4.81,0.42 7,2.2 a 126.17,126.17 0 0 0 27.43,17.32 156.22,156.22 0 0 0 29.54,10.26 c 3.37,0.78 4.35,3.27 5.29,5.92 1.38,3.85 2.63,7.73 3.94,11.61 8.29,-2.36 16.36,-5.55 24.73,-7.84 0.77,-0.21 1.53,-0.41 2.3,-0.6 0.77,-0.19 1.54,-0.38 2.31,-0.55 1.54,-0.35 3.11,-0.65 4.68,-0.91 0.4,-0.07 0.79,-0.13 1.19,-0.18 0.4,-0.05 0.78,-0.12 1.17,-0.17 -1.39,-0.28 -2.78,-0.53 -4.17,-0.77 -9.78,-1.74 -19.55,-3.18 -28.7,-7.64 q -5,-2.44 -9.85,-5.08 -6.06,-3.29 -11.89,-6.89 a 271.22,271.22 0 0 1 -22.56,-15.5 l -2.17,-1.66 c -1.44,-1.13 -2.88,-2.26 -4.29,-3.41 q -6.4,-5.17 -12.55,-10.69 -4.09,-3.68 -8.09,-7.5 c -0.89,-0.86 -1.64,-1.59 -2.3,-2.18 l -0.73,-0.65 a 11.65,11.65 0 0 0 -0.94,-0.73 c -0.19,-0.13 -0.38,-0.23 -0.54,-0.33 -1.58,-0.8 -2.39,0.23 -4.14,3.19 -0.44,0.77 -1,1.66 -1.57,2.7 a 65.78,65.78 0 0 1 -22.26,22.83 73.22,73.22 0 0 1 -15.5,7.2 c -0.7,0.24 -1.37,0.47 -2,0.72 a 8.31,8.31 0 0 0 -2.8,1.73 4.56,4.56 0 0 0 -0.73,0.89 l -0.15,0.26 a 4.86,4.86 0 0 0 -0.39,0.86 c -0.07,0.2 -0.14,0.41 -0.2,0.64 -0.06,0.23 -0.11,0.47 -0.16,0.72 -0.05,0.25 -0.1,0.78 -0.13,1.22 -0.17,2.71 -0.35,5.44 -0.53,8.16 -0.18,2.72 -0.36,5.44 -0.55,8.16 -0.21,3.15 -0.44,6.3 -0.66,9.46 l -0.78,10.68 -0.32,4.34 q -0.63,8.76 -1.29,17.53 v 0 c -0.15,1.95 -0.47,4.33 -0.79,6.94 a 94.25,94.25 0 0 0 -0.86,11.28 z"
     class="cls-7" /><path
     style="fill:#688acf"
     inkscape:connector-curvature="0"
     id="path96-2"
     d="m 1361.3572,473.8786 a 4.89,4.89 0 0 0 -2.64,-1.4 v 0 a 4.36,4.36 0 0 0 -0.81,-0.07 5,5 0 0 0 -4.43,7.22 6,6 0 0 0 0.36,0.6 l -11.52,11.52 0.36,2.62 0.77,5.66 -7.38,7.38 h 2.26 l 6.81,-6.81 -1.1,-8.08 v 0 -0.19 l 10.95,-10.95 a 5,5 0 0 0 6.46,-7.51 z m -1.12,5.9 a 3.38,3.38 0 0 1 -4.77,0 3.41,3.41 0 0 1 -0.92,-1.68 4.17,4.17 0 0 1 -0.07,-0.71 3.35,3.35 0 0 1 3.05,-3.35 h 0.32 a 3.37,3.37 0 0 1 2.39,5.75 z"
     class="cls-17" /><path
     style="fill:#688acf"
     inkscape:connector-curvature="0"
     id="path98-8"
     d="m 1324.6072,455.4786 a 5,5 0 0 0 -7,0 5,5 0 0 0 -0.39,6.58 l -24.89,24.89 q 0.32,0.8 0.66,1.59 l 25.4,-25.4 a 5,5 0 0 0 6.25,-0.64 5,5 0 0 0 0,-7 z m -1.13,5.9 a 3.32,3.32 0 0 1 -2.38,1 3.36,3.36 0 0 1 -3.38,-3.37 3.38,3.38 0 0 1 3.38,-3.37 3.36,3.36 0 0 1 3.37,3.37 3.32,3.32 0 0 1 -0.99,2.37 z"
     class="cls-17" /><path
     style="fill:#688acf"
     inkscape:connector-curvature="0"
     id="path100-4"
     d="m 1319.4672,477.5886 a 2.89,2.89 0 0 1 -3.43,0.48 l -10.66,10.67 1.13,8.28 -6.69,6.68 c -0.24,-0.5 -0.49,-1 -0.73,-1.52 l 5.73,-5.73 -1.1,-8.28 11.22,-11.22 a 2.87,2.87 0 0 1 0.46,-3.45 2.9,2.9 0 1 1 4.1,4.09 z"
     class="cls-17" /><path
     style="fill:#688acf"
     inkscape:connector-curvature="0"
     id="path102-1"
     d="m 1337.8872,488.3586 a 2.9,2.9 0 0 1 -3.52,0.43 l -18.48,18.48 h -8 l -0.2,0.2 h -2.26 l 1.8,-1.8 h 8 l 18.05,-18.05 a 2.89,2.89 0 1 1 4.61,0.73 z"
     class="cls-17" /><path
     style="fill:#688acf"
     inkscape:connector-curvature="0"
     id="path104"
     d="m 1416.3472,371.9286 54.69,-54.69 -2.1,-0.36 -54.43,54.43 1.23,9 -11.89,11.89 a 5.42,5.42 0 0 0 -3.21,-1.06 5.4,5.4 0 1 0 4.42,2.3 l 12.51,-12.51 z m -13.12,27.2 a 3.67,3.67 0 0 1 -5.19,-5.18 3.69,3.69 0 0 1 2.6,-1.08 3.61,3.61 0 0 1 2.59,1.08 3.66,3.66 0 0 1 0,5.18 z"
     class="cls-17" /><path
     style="fill:#688acf"
     inkscape:connector-curvature="0"
     id="path106"
     d="m 1528.8172,330.8786 -23.52,23.51 v 8 l -12.32,12.33 -7.57,-1 -49.82,49.81 a 5.41,5.41 0 1 0 1.28,1.18 l 49.16,-49.16 7.56,1 13.44,-13.44 v -8 l 23.62,-23.62 z m -93.61,99.71 a 3.67,3.67 0 0 1 -5.18,0 3.69,3.69 0 0 1 -1.08,-2.59 3.67,3.67 0 0 1 6.26,-2.6 3.69,3.69 0 0 1 1.08,2.59 3.65,3.65 0 0 1 -1.08,2.55 z"
     class="cls-17" /><path
     style="fill:#688acf"
     inkscape:connector-curvature="0"
     id="path108"
     d="m 1491.7172,343.6786 -28.72,28.73 1.23,9 -11.51,11.58 a 3.13,3.13 0 1 0 1.24,1.21 l 12.18,-12.18 -1.22,-9 28.06,-28.14 z"
     class="cls-17" /><path
     style="fill:#688acf"
     inkscape:connector-curvature="0"
     id="path110"
     d="m 1507.5072,324.5786 -12.74,12.74 h -8 l -31.15,31.18 h -8.69 l -19.61,19.61 a 3.13,3.13 0 1 1 -1.19,-1.27 l 20.08,-20.08 h 8.69 l 31.18,-31.18 h 8 l 11.5,-11.5 c 0.62,0.16 1.27,0.32 1.93,0.5 z"
     class="cls-17" /><path
     style="fill:#f4af36"
     inkscape:connector-curvature="0"
     id="path112"
     d="m 1301.9272,526.2486 c 10,14.8 37.11,46.72 76.28,46.7 a 128.26,128.26 0 0 0 13.14,-0.79 c 39.38,-27.38 67.91,-24.91 78.7,-45.62 -59.96,-4.79 -168.12,-0.29 -168.12,-0.29 z"
     class="cls-12" /><rect
     style="fill:#ffffff"
     id="rect114"
     rx="6.04"
     height="19.01"
     width="179.72"
     y="507.47861"
     x="1297.0573"
     class="cls-15" /><path
     style="fill:#ffffff"
     inkscape:connector-curvature="0"
     id="path116"
     d="m 1369.6172,252.1386 c 6,-2.49 11.59,-5.66 16,-10.43 5.93,-6.35 5.45,-15.53 -0.76,-20.2 -6,-4.52 -13.92,-2.69 -18.33,5.24 -4,7.08 -9.9,9.6 -17.28,10 -4.9,0.26 -8.89,1.66 -9.28,7.2 -0.37,5.37 3.35,7.85 7.89,9.11 7.32,2 14.55,1.1 21.76,-0.92 z"
     class="cls-15" /><path
     style="fill:#f4af36"
     inkscape:connector-curvature="0"
     id="path118"
     d="m 1465.3272,315.8786 -1.5,0.13 c -52.51,5.64 -93,55.34 -103.68,64.4 0,0 -48.36,-45.35 -51.76,-62.3 l 0.09,-0.2 c 6.54,-14.63 14.6,-12.86 18.76,-8.59 0,0 2.38,-8.86 12.82,-9.15 a 4.81,4.81 0 0 1 3.05,2.09 c 5.21,6.66 12.83,29.34 18.45,54 20.46,-27.46 42.85,-50.42 63.65,-64.79 l 1.23,-0.85 c 5.07,-0.86 14.73,-0.42 19.5,9.87 9.85,-2.61 18.2,3.95 19.39,15.39 z"
     class="cls-12" /><path
     style="fill:none"
     inkscape:connector-curvature="0"
     id="path120"
     d="m 1339.7172,313.8786 h -0.26 l 0.55,-0.1 a 1.5,1.5 0 0 1 -0.29,0.1 z"
     class="cls-18" /><path
     style="fill:#131a20"
     inkscape:connector-curvature="0"
     id="path122"
     d="m 1458.7172,530.6386 c -4.56,-30.14 -6.54,-51.05 -6.54,-51.05 0.71,-2.66 3.18,-6.88 4.83,-6.91 1.65,-0.03 1.6,-1.95 26,6 4.16,1.07 5.14,2.19 6.64,16.24 1.5,14.05 6.63,50.92 7.9,71.39 1.26,20.29 -7.93,18.46 -9.58,18.58 l -13.95,-0.12 c -3.89,-0.2 -6.86,-1 -8.25,-7.36 -1.39,-6.36 -7.05,-46.77 -7.05,-46.77 z"
     class="cls-19" /><path
     style="fill:#606366"
     inkscape:connector-curvature="0"
     id="path124"
     d="m 1490.5972,507.4386 2.29,17.1 c 0.75,5.7 1.48,11.41 2.14,17.12 0.66,5.71 1.25,11.45 1.7,17.19 0.22,2.87 0.39,5.75 0.48,8.64 a 56.52,56.52 0 0 1 -0.27,8.71 0.61,0.61 0 0 1 -0.68,0.52 0.6,0.6 0 0 1 -0.52,-0.67 v 0 0 a 55.82,55.82 0 0 0 0.32,-8.5 c -0.07,-2.86 -0.23,-5.73 -0.43,-8.59 -0.4,-5.72 -1,-11.44 -1.59,-17.16 -0.59,-5.72 -1.32,-11.41 -2,-17.12 l -2.18,-17.11 a 0.39,0.39 0 0 1 0.34,-0.44 0.4,0.4 0 0 1 0.43,0.34 z"
     class="cls-20" /><path
     style="fill:#606366"
     inkscape:connector-curvature="0"
     id="path126"
     d="m 1461.7172,530.1486 a 0.75,0.75 0 0 0 0,-0.16 v 0 c 0.72,-1.88 0.65,-2.18 2,-5.85 0.86,4.94 4.6,36.73 5.28,40.28 0.68,3.55 2.05,9 1,11.85 a 5.7,5.7 0 0 0 -0.48,3.5 c -0.23,-0.74 -0.39,-1.51 -0.57,-2.26 -0.23,-1 -0.44,-2.09 -0.64,-3.13 -0.4,-2.1 -0.76,-4.19 -1.12,-6.29 q -1.05,-6.3 -2,-12.62 c -0.62,-4.21 -1.23,-8.42 -1.8,-12.64 -0.57,-4.22 -1.14,-8.44 -1.6,-12.65 z"
     class="cls-20" /><path
     style="fill:#606366"
     inkscape:connector-curvature="0"
     id="path128"
     d="m 1462.7672,521.9686 a 0.45,0.45 0 0 1 -0.49,-0.4 c 0,-0.08 -4.25,-35.19 -4.89,-42.55 a 0.45,0.45 0 0 1 0.41,-0.48 0.44,0.44 0 0 1 0.49,0.41 c 0.64,7.35 4.88,42.44 4.89,42.52 a 0.45,0.45 0 0 1 -0.4,0.5 z"
     class="cls-20" /><path
     style="fill:#606366"
     inkscape:connector-curvature="0"
     id="path130"
     d="m 1474.5672,583.5686 c 4,0.47 16.33,0.89 18.56,-0.32 -1.15,1.43 -5,1.72 -7.5,1.8 -2.5,0.08 -11.42,-0.15 -11.42,-0.15 z"
     class="cls-20" /><path
     style="fill:#233138"
     inkscape:connector-curvature="0"
     id="path132"
     d="m 1491.1472,532.4986 -25.35,-3.86 -4.74,-47.53 a 2.53,2.53 0 0 1 3.15,-2.69 l 15.83,4.1 a 7.66,7.66 0 0 1 5.66,6.45 z"
     class="cls-21" /><polygon
     style="fill:#040506"
     id="polygon134"
     points="465.25,434.95 490.52,439.05 491.43,446.62 466.08,442.76 "
     class="cls-22"
     transform="translate(999.7172,85.878602)" /><path
     style="fill:#ffffff"
     inkscape:connector-curvature="0"
     id="path136"
     d="m 1485.3272,526.6386 -0.68,-0.12 a 0.1,0.1 0 0 0 -0.1,0 0.09,0.09 0 0 0 0,0.06 l -0.54,1.89 -0.07,0.25 c -0.21,-0.33 -0.41,-0.64 -0.58,-0.92 v 0 0 a 1,1 0 0 0 0.25,-0.19 0.51,0.51 0 0 0 0.09,-0.16 0.93,0.93 0 0 0 -0.09,-0.66 0.8,0.8 0 0 0 -0.4,-0.39 2.46,2.46 0 0 0 -0.38,-0.14 l -1,-0.16 0.18,2.38 0.6,0.1 v 0 l -0.07,-0.88 0.05,0.05 0.32,0.52 c 0.06,0.11 0.13,0.22 0.2,0.33 a 0.25,0.25 0 0 0 0.1,0.08 l 1.23,0.22 c 0.06,0 0.09,0 0.1,-0.06 0.01,-0.06 0.06,-0.2 0.08,-0.3 0.02,-0.1 0,-0.06 0.1,-0.05 l 0.64,0.11 a 0.11,0.11 0 0 1 0.12,0.09 c 0,0.12 0.08,0.23 0.13,0.35 0.05,0.12 0,0.06 0.06,0.06 l 0.63,0.11 c -0.32,-0.9 -0.65,-1.73 -0.97,-2.57 z m -2.54,0.69 h -0.25 l -0.05,-0.67 a 2.24,2.24 0 0 1 0.37,0.1 0.42,0.42 0 0 1 0.24,0.39 c -0.01,0.11 -0.13,0.2 -0.31,0.18 z m 2,0.65 0.18,-0.72 0.31,0.81 z"
     class="cls-15" /><path
     style="fill:#ffffff"
     inkscape:connector-curvature="0"
     id="path138"
     d="m 1481.2872,527.1686 h -0.05 a 1.11,1.11 0 0 0 0.19,-0.09 0.5,0.5 0 0 0 0.11,-0.62 0.73,0.73 0 0 0 -0.53,-0.49 c -0.26,-0.07 -0.52,-0.12 -0.79,-0.17 l -0.44,-0.07 0.18,2.39 1.12,0.18 a 0.86,0.86 0 0 0 0.32,0 0.43,0.43 0 0 0 0.32,-0.51 0.67,0.67 0 0 0 -0.43,-0.62 z m -0.88,-0.94 0.4,0.13 a 0.28,0.28 0 0 1 0.16,0.26 c 0,0.12 0,0.2 -0.14,0.21 h -0.38 z m 0.44,1.6 h -0.32 l -0.05,-0.56 c 0.13,0 0.25,0 0.37,0.06 a 0.35,0.35 0 0 1 0.24,0.32 q 0.02,0.23 -0.24,0.23 z"
     class="cls-15" /><path
     style="fill:#ffffff"
     inkscape:connector-curvature="0"
     id="path140"
     d="m 1474.3672,526.6886 h -0.35 c 0,-0.16 0,-0.29 0,-0.43 a 2.45,2.45 0 0 1 0,-0.27 0.5,0.5 0 0 0 -0.2,-0.43 1.3,1.3 0 0 1 -0.15,-0.18 v 0 l 0.09,1.22 -0.35,-0.06 -0.12,-1.58 -0.35,-0.05 v 0.32 c 0,0.38 0.05,0.75 0.08,1.13 a 0.42,0.42 0 0 0 0.07,0.13 c 0,0 0,0.05 0.06,0.07 0.06,0.02 0.21,0.17 0.24,0.26 a 2.39,2.39 0 0 1 0,0.48 l -0.43,-0.46 a 1.46,1.46 0 0 1 -0.29,-0.33 0.77,0.77 0 0 1 0,-0.37 c 0,-0.46 -0.08,-0.93 -0.11,-1.39 a 0.27,0.27 0 0 0 -0.08,-0.18 l -0.88,-0.92 0.25,-0.11 c 0,0 0.07,0 0.09,0.05 l 0.84,0.87 a 0.27,0.27 0 0 0 0.1,0.08 l -0.08,-1 a 0.69,0.69 0 0 1 0.59,0.45 0.45,0.45 0 0 1 -0.32,0.63 l 0.26,0.05 a 0.24,0.24 0 0 1 0.11,0.06 l 0.31,0.33 -0.49,-0.09 c 0.14,0.15 0.25,0.27 0.37,0.38 a 0.27,0.27 0 0 0 0.18,0 0.69,0.69 0 0 1 0.55,0.3 1.54,1.54 0 0 0 0.13,0.14 l -0.45,-0.08 v 0 l 0.18,0.21 a 0.44,0.44 0 0 1 0.18,0.35 2.69,2.69 0 0 0 0,0.4 z"
     class="cls-15" /><path
     style="fill:#ffffff"
     inkscape:connector-curvature="0"
     id="path142"
     d="m 1479.5472,526.6186 v 0.47 l -0.81,-0.14 v 0.49 l 0.8,0.14 v 0.47 l -1.43,-0.24 -0.18,-2.37 1.43,0.23 v 0.47 l -0.8,-0.14 v 0.48 z"
     class="cls-15" /><path
     style="fill:#ffffff"
     inkscape:connector-curvature="0"
     id="path144"
     d="m 1475.9972,525.5586 c 0.07,-0.15 0.14,-0.27 0.21,-0.4 a 0.06,0.06 0 0 1 0.07,0 l 1.52,0.25 v 0 l -0.89,1.72 0.94,0.16 c -0.08,0.15 -0.15,0.28 -0.23,0.4 -0.08,0.12 -0.05,0 -0.08,0 l -1.55,-0.26 0.9,-1.74 z"
     class="cls-15" /><path
     style="fill:#ffffff"
     inkscape:connector-curvature="0"
     id="path146"
     d="m 1471.8572,525.2286 v 0 a 1.18,1.18 0 0 0 0,-0.42 1.62,1.62 0 0 0 -0.31,-0.34 l -0.31,-0.33 q -0.08,-0.06 0,-0.12 l 0.14,-0.19 0.27,0.28 0.53,0.55 a 0.2,0.2 0 0 1 0.06,0.12 c 0,0.44 0.07,0.89 0.1,1.34 l -0.06,-0.05 -1.22,-1.19 a 0.2,0.2 0 0 1 -0.06,-0.11 c 0,-0.11 0,-0.22 0,-0.35 l 0.81,0.87 z"
     class="cls-15" /><path
     style="fill:#ffffff"
     inkscape:connector-curvature="0"
     id="path148"
     d="m 1471.0472,525.2486 0.28,0.3 c 0.67,0.7 1.33,1.4 2,2.09 a 0.28,0.28 0 0 1 0.1,0.2 c 0,0.11 0,0.22 0,0.35 l -0.09,-0.08 c -0.73,-0.77 -1.46,-1.54 -2.2,-2.3 a 0.33,0.33 0 0 1 -0.08,-0.17 2.88,2.88 0 0 0 -0.01,-0.39 z"
     class="cls-15" /><path
     style="fill:#ffffff"
     inkscape:connector-curvature="0"
     id="path150"
     d="m 1474.3672,526.6886 0.33,0.08 v -0.42 c 0.18,0 0.36,0 0.5,0.2 a 2.72,2.72 0 0 0 0.29,0.3 0.54,0.54 0 0 1 0.05,0.11 0.43,0.43 0 0 1 -0.54,0.39 0.79,0.79 0 0 1 -0.61,-0.61 0.43,0.43 0 0 0 0,-0.05 z"
     class="cls-15" /><path
     style="fill:#303335"
     inkscape:connector-curvature="0"
     id="path152"
     d="m 1464.7172,524.3186 c -3.05,-24.05 -5.58,-45.88 -5.58,-45.88 -0.2,-2.72 -0.7,-4.95 2.06,-4.85 2.76,0.1 20.66,5.79 20.66,5.79 l -2.39,3 c -5.46,-1.49 -13.79,-3.6 -13.79,-3.6 -1.42,-0.35 -4.21,-1.25 -4.61,1.76 -0.4,3.01 4,35.9 4,35.9 z"
     class="cls-23" /><polygon
     style="fill:#606366"
     id="polygon154"
     points="469.05,475.36 469.05,475.37 "
     class="cls-20"
     transform="translate(999.7172,85.878602)" /><polygon
     style="fill:#606366"
     id="polygon156"
     points="469.43,478.2 469.43,478.21 "
     class="cls-20"
     transform="translate(999.7172,85.878602)" /><polygon
     style="fill:#606366"
     id="polygon158"
     points="469.68,480.1 469.68,480.11 "
     class="cls-20"
     transform="translate(999.7172,85.878602)" /><polygon
     style="fill:#606366"
     id="polygon160"
     points="468.18,470.27 468.19,470.27 "
     class="cls-20"
     transform="translate(999.7172,85.878602)" /><polygon
     style="fill:#606366"
     id="polygon162"
     points="468.87,474.71 468.87,474.72 "
     class="cls-20"
     transform="translate(999.7172,85.878602)" /><polygon
     style="fill:#606366"
     id="polygon164"
     points="468.56,473.11 468.56,473.12 "
     class="cls-20"
     transform="translate(999.7172,85.878602)" /><path
     style="fill:#606366"
     inkscape:connector-curvature="0"
     id="path166"
     d="m 1472.8572,574.4286 c -1.26,-2.27 -0.88,-4.92 -1.88,-11.51 -0.25,-1.66 -0.59,-4 -1,-6.68 v 0 a 1,1 0 0 0 0.05,-0.29 2.43,2.43 0 0 0 -0.14,-0.2 c -0.81,-5.63 -9.54,-77 -9.75,-77 -0.15,0.35 8.76,88.05 10.68,94.65 a 10.87,10.87 0 0 0 1.23,2.29 z"
     class="cls-20" /><path
     style="fill:#606366"
     inkscape:connector-curvature="0"
     id="path168"
     d="m 1497.1872,574.1986 c -0.38,5.19 -2.44,5.4 -4.81,5.48 a 95.85,95.85 0 0 1 -15.53,-0.94 c -6.73,-1 -7.39,-10.66 -7.72,-13.54 l 0.87,-3.12 c 0.52,4.53 0.78,13.89 7.16,14.95 a 94.59,94.59 0 0 0 14.62,0.88 c 2.41,-0.17 3.23,-0.84 4,-4.35 0.59,-2.53 0.18,-6.91 0.16,-8.55 l 1,0.36 a 40.55,40.55 0 0 1 0.25,8.83 z"
     class="cls-20" /><path
     style="fill:#606366"
     inkscape:connector-curvature="0"
     id="path170"
     d="m 1474.5672,583.5686 -0.36,1.33 c -5.94,-0.32 -6.09,-2.2 -6.61,-4.54 -0.49,-2.17 -9.06,-59 -9.07,-59.05 l -4.61,-40 a 4.52,4.52 0 0 1 0.59,-2.81 l 1.87,-3.2 4.22,39.42 -1.53,5.56 c 0,0 2.78,18.86 3.38,22.66 q 1,6.3 2.11,12.6 c 0.73,4.2 1.48,8.39 2.29,12.57 0.4,2.1 0.81,4.18 1.27,6.26 0.22,1.05 0.45,2.09 0.71,3.12 a 22,22 0 0 0 0.92,3.06 c -0.07,-0.17 -0.12,-0.33 -0.18,-0.49 0.92,2.4 3.99,3.5 5,3.51 z"
     class="cls-20" /><path
     style="fill:#303335"
     inkscape:connector-curvature="0"
     id="path172"
     d="m 1485.4472,482.5086 c 1.08,0.76 1.23,2.65 1.44,4.26 0.21,1.61 2.76,22 2.76,22 l 3,21.28 c 0,0 1.78,15.74 2,17.31 0.22,1.57 1.44,19 1.45,22.58 0,1.48 0,5.61 -1.49,6.83 0.66,-2 0.34,-8.83 0.1,-11.95 -0.25,-3.36 -3.54,-32.32 -3.54,-32.32 l -3.69,-29.19 -2,-15.38 c -0.48,-2.76 -1.12,-3.37 -1.12,-3.37 z"
     class="cls-23" /><path
     style="fill:#040506"
     inkscape:connector-curvature="0"
     id="path174"
     d="m 1484.7172,488.2286 c 0.24,1.58 0.5,3.16 0.71,4.75 q 2,15.31 4,30.63 l 0.72,5.42 a 10.24,10.24 0 0 0 0.29,1.58 c 0.22,0.64 -0.22,1.53 0.71,1.89 -0.19,-1.68 -0.35,-3.37 -0.57,-5.06 q -2.69,-20.32 -5.38,-40.66 c -0.29,-1.65 -0.49,-2.63 -4,-3.85 -3.51,-1.22 -17,-4.51 -17,-4.51 0.24,0.78 14.79,4.34 17.14,5.38 2.35,1.04 2.98,1.97 3.38,4.43 z"
     class="cls-22" /><path
     style="fill:#131a20"
     inkscape:connector-curvature="0"
     id="path176"
     d="m 1478.7772,565.6286 -0.44,0.24 z"
     class="cls-19" /><path
     style="fill:#303335"
     inkscape:connector-curvature="0"
     id="path178"
     d="m 1482.5372,572.8186 0.37,-0.25 z"
     class="cls-23" /><path
     style="fill:#131a20"
     inkscape:connector-curvature="0"
     id="path180"
     d="m 1485.2272,570.5686 -0.45,0.24 z"
     class="cls-19" /><path
     style="fill:#5a5a5a"
     inkscape:connector-curvature="0"
     id="path182"
     d="m 1466.2572,528.5686 c 1.93,16 4.08,36.38 4.08,36.38 0.63,4.66 1.4,11.07 8.14,11.7 6.74,0.63 7.79,0.69 10.47,0.76 2.27,0.06 6.52,0.62 6.14,-6.77 -0.38,-7.39 -3,-36.34 -3.21,-38.06 -3.98,-0.57 -25.62,-4.01 -25.62,-4.01 z"
     class="cls-24" /><path
     style="fill:#f7dd6b"
     inkscape:connector-curvature="0"
     id="path184"
     d="m 1481.9272,539.4486 -3.1,-0.35 a 4.06,4.06 0 0 1 -3.38,-3.56 v 0 a 2.46,2.46 0 0 1 2.78,-2.86 l 3.1,0.35 a 4.07,4.07 0 0 1 3.39,3.56 v 0 a 2.47,2.47 0 0 1 -2.79,2.86 z"
     class="cls-25" /><path
     style="fill:#6d6e70"
     inkscape:connector-curvature="0"
     id="path186"
     d="m 1489.0972,538.9886 -1.46,-0.17 a 1.91,1.91 0 0 1 -1.6,-1.68 v 0 a 1.16,1.16 0 0 1 1.31,-1.35 l 1.47,0.17 a 1.9,1.9 0 0 1 1.59,1.68 v 0 a 1.17,1.17 0 0 1 -1.31,1.35 z"
     class="cls-26" /><path
     style="fill:#6d6e70"
     inkscape:connector-curvature="0"
     id="path188"
     d="m 1472.9172,537.2186 -1.46,-0.16 a 1.93,1.93 0 0 1 -1.6,-1.68 v 0 a 1.16,1.16 0 0 1 1.32,-1.35 l 1.46,0.16 a 1.92,1.92 0 0 1 1.6,1.68 v 0 a 1.16,1.16 0 0 1 -1.32,1.35 z"
     class="cls-26" /><path
     style="fill:#dfe4e5"
     inkscape:connector-curvature="0"
     id="path190"
     d="m 1472.9872,543.5186 -2.35,-0.26 a 1.79,1.79 0 0 1 -1.28,-1.53 l -0.06,-0.39 c -0.12,-0.78 0.26,-1.36 0.85,-1.29 l 2.39,0.27 a 1.72,1.72 0 0 1 1.26,1.52 l 0.05,0.39 c 0.11,0.78 -0.28,1.35 -0.86,1.29 z"
     class="cls-27" /><path
     style="fill:#dfe4e5"
     inkscape:connector-curvature="0"
     id="path192"
     d="m 1479.0272,544.1886 -2.35,-0.26 a 1.7,1.7 0 0 1 -1.23,-1.52 l -0.05,-0.39 c -0.1,-0.77 0.3,-1.34 0.89,-1.27 l 2.4,0.27 a 1.63,1.63 0 0 1 1.21,1.51 v 0.39 c 0.12,0.76 -0.29,1.34 -0.87,1.27 z"
     class="cls-27" /><path
     style="fill:#dfe4e5"
     inkscape:connector-curvature="0"
     id="path194"
     d="m 1485.0672,544.8786 -2.35,-0.26 a 1.6,1.6 0 0 1 -1.18,-1.5 v -0.39 c -0.07,-0.77 0.35,-1.34 0.94,-1.27 l 2.39,0.27 a 1.56,1.56 0 0 1 1.17,1.51 v 0.38 c 0.04,0.74 -0.39,1.31 -0.97,1.26 z"
     class="cls-27" /><path
     style="fill:#dfe4e5"
     inkscape:connector-curvature="0"
     id="path196"
     d="m 1491.1072,545.5386 -2.35,-0.27 a 1.54,1.54 0 0 1 -1.14,-1.49 v -0.38 c -0.05,-0.77 0.39,-1.33 1,-1.26 l 2.4,0.27 a 1.5,1.5 0 0 1 1.12,1.49 v 0.38 c 0,0.76 -0.42,1.32 -1.03,1.26 z"
     class="cls-27" /><path
     style="fill:#dfe4e5"
     inkscape:connector-curvature="0"
     id="path198"
     d="m 1473.7172,548.8786 -2.28,-0.25 a 1.77,1.77 0 0 1 -1.25,-1.52 l -0.06,-0.39 c -0.13,-0.78 0.24,-1.36 0.81,-1.29 l 2.33,0.25 a 1.72,1.72 0 0 1 1.23,1.52 l 0.05,0.39 c 0.17,0.81 -0.22,1.39 -0.83,1.29 z"
     class="cls-27" /><path
     style="fill:#dfe4e5"
     inkscape:connector-curvature="0"
     id="path200"
     d="m 1479.6172,549.5486 -2.28,-0.24 a 1.67,1.67 0 0 1 -1.2,-1.51 l -0.05,-0.39 c -0.1,-0.78 0.28,-1.35 0.86,-1.29 l 2.32,0.26 a 1.61,1.61 0 0 1 1.18,1.5 v 0.39 c 0.12,0.77 -0.27,1.34 -0.83,1.28 z"
     class="cls-27" /><path
     style="fill:#dfe4e5"
     inkscape:connector-curvature="0"
     id="path202"
     d="m 1485.4672,550.1786 -2.28,-0.24 a 1.6,1.6 0 0 1 -1.15,-1.5 v -0.39 c -0.08,-0.76 0.33,-1.33 0.9,-1.27 l 2.33,0.25 a 1.56,1.56 0 0 1 1.13,1.5 v 0.38 c 0.05,0.77 -0.36,1.33 -0.93,1.27 z"
     class="cls-27" /><path
     style="fill:#dfe4e5"
     inkscape:connector-curvature="0"
     id="path204"
     d="m 1491.3272,550.8186 -2.28,-0.25 a 1.5,1.5 0 0 1 -1.1,-1.49 v -0.38 c 0,-0.76 0.38,-1.33 1,-1.27 l 2.32,0.26 a 1.47,1.47 0 0 1 1.09,1.48 v 0.38 c -0.03,0.76 -0.47,1.33 -1.03,1.27 z"
     class="cls-27" /><path
     style="fill:#dfe4e5"
     inkscape:connector-curvature="0"
     id="path206"
     d="m 1474.5472,554.3186 -2.21,-0.23 c -0.55,0 -1.09,-0.73 -1.22,-1.51 l -0.06,-0.39 c -0.13,-0.78 0.21,-1.36 0.77,-1.3 l 2.25,0.24 c 0.56,0.05 1.09,0.73 1.2,1.5 l 0.06,0.39 c 0.1,0.78 -0.25,1.36 -0.79,1.3 z"
     class="cls-27" /><path
     style="fill:#dfe4e5"
     inkscape:connector-curvature="0"
     id="path208"
     d="m 1480.2072,554.8786 -2.21,-0.23 c -0.54,-0.05 -1.06,-0.72 -1.17,-1.5 l -0.05,-0.39 c -0.1,-0.77 0.27,-1.35 0.83,-1.29 l 2.25,0.24 a 1.62,1.62 0 0 1 1.15,1.5 v 0.38 c 0.12,0.8 -0.29,1.38 -0.8,1.29 z"
     class="cls-27" /><path
     style="fill:#dfe4e5"
     inkscape:connector-curvature="0"
     id="path210"
     d="m 1485.8672,555.4986 -2.21,-0.23 c -0.54,-0.05 -1,-0.72 -1.11,-1.49 v -0.38 c -0.07,-0.77 0.32,-1.34 0.87,-1.29 l 2.26,0.24 a 1.53,1.53 0 0 1 1.04,1.53 v 0.39 c 0.09,0.72 -0.31,1.29 -0.85,1.23 z"
     class="cls-27" /><path
     style="fill:#dfe4e5"
     inkscape:connector-curvature="0"
     id="path212"
     d="m 1491.5272,556.0886 -2.21,-0.21 c -0.54,-0.05 -1,-0.72 -1.06,-1.48 v -0.38 c 0,-0.76 0.37,-1.33 0.92,-1.27 l 2.25,0.24 a 1.45,1.45 0 0 1 1.05,1.47 v 0.42 c 0.01,0.7 -0.41,1.27 -0.95,1.21 z"
     class="cls-27" /><path
     style="fill:#dfe4e5"
     inkscape:connector-curvature="0"
     id="path214"
     d="m 1475.3372,559.7286 -2.13,-0.21 c -0.52,-0.06 -1.05,-0.73 -1.18,-1.51 l -0.07,-0.39 c -0.13,-0.78 0.2,-1.37 0.73,-1.31 l 2.18,0.22 c 0.54,0.05 1.06,0.73 1.17,1.5 l 0.05,0.39 c 0.11,0.78 -0.22,1.36 -0.75,1.31 z"
     class="cls-27" /><path
     style="fill:#dfe4e5"
     inkscape:connector-curvature="0"
     id="path216"
     d="m 1480.7972,560.2786 -2.13,-0.22 c -0.52,-0.05 -1,-0.72 -1.13,-1.49 l -0.05,-0.39 c -0.1,-0.77 0.25,-1.36 0.78,-1.3 l 2.18,0.22 a 1.59,1.59 0 0 1 1.12,1.49 v 0.39 c 0.15,0.77 -0.24,1.35 -0.77,1.3 z"
     class="cls-27" /><path
     style="fill:#dfe4e5"
     inkscape:connector-curvature="0"
     id="path218"
     d="m 1486.2572,560.8186 -2.13,-0.21 c -0.52,-0.05 -1,-0.72 -1.08,-1.48 v -0.39 c -0.07,-0.77 0.31,-1.34 0.84,-1.29 l 2.18,0.22 a 1.52,1.52 0 0 1 1.06,1.48 v 0.39 c 0.04,0.76 -0.35,1.34 -0.87,1.28 z"
     class="cls-27" /><path
     style="fill:#dfe4e5"
     inkscape:connector-curvature="0"
     id="path220"
     d="m 1491.7172,561.3686 -2.12,-0.21 c -0.53,-0.06 -1,-0.72 -1,-1.48 v -0.38 c 0,-0.76 0.36,-1.33 0.89,-1.28 l 2.17,0.22 a 1.43,1.43 0 0 1 1,1.47 v 0.38 c -0.02,0.79 -0.42,1.33 -0.94,1.28 z"
     class="cls-27" /><path
     style="fill:#dfe4e5"
     inkscape:connector-curvature="0"
     id="path222"
     d="m 1476.1472,565.1386 -2.05,-0.2 c -0.5,-0.05 -1,-0.72 -1.15,-1.5 l -0.07,-0.39 c -0.13,-0.78 0.18,-1.37 0.69,-1.32 l 2.1,0.21 c 0.52,0.05 1,0.72 1.14,1.49 l 0.05,0.39 c 0.11,0.78 -0.21,1.36 -0.71,1.32 z"
     class="cls-27" /><path
     style="fill:#dfe4e5"
     inkscape:connector-curvature="0"
     id="path224"
     d="m 1481.3972,565.6386 -2.05,-0.2 c -0.5,-0.05 -1,-0.71 -1.1,-1.48 v -0.39 c -0.1,-0.78 0.23,-1.36 0.75,-1.31 l 2.09,0.2 c 0.52,0.05 1,0.72 1.08,1.49 v 0.38 c 0.07,0.77 -0.27,1.36 -0.77,1.31 z"
     class="cls-27" /><path
     style="fill:#dfe4e5"
     inkscape:connector-curvature="0"
     id="path226"
     d="m 1486.6372,566.1386 -2,-0.19 c -0.51,-0.05 -1,-0.71 -1.05,-1.48 v -0.39 c -0.07,-0.76 0.29,-1.34 0.8,-1.29 l 2.09,0.2 c 0.52,0.05 1,0.71 1,1.47 v 0.39 c 0.03,0.76 -0.34,1.34 -0.84,1.29 z"
     class="cls-27" /><path
     style="fill:#dfe4e5"
     inkscape:connector-curvature="0"
     id="path228"
     d="m 1491.8772,566.6386 -2,-0.19 c -0.5,-0.05 -0.95,-0.71 -1,-1.47 l -0.31,-5.68 c 0,-0.76 0.42,-1.05 0.94,-1 l 2.09,0.21 a 1.16,1.16 0 0 1 1,1.2 l 0.15,5.65 c 0.03,0.76 -0.36,1.33 -0.87,1.28 z"
     class="cls-27" /><path
     style="fill:#e1922b"
     inkscape:connector-curvature="0"
     id="path230"
     d="m 1476.9672,570.5386 -2,-0.17 c -0.48,-0.05 -1,-0.72 -1.12,-1.5 l -0.07,-0.39 c -0.14,-0.78 0.16,-1.37 0.65,-1.33 l 2,0.19 c 0.5,0.05 1,0.72 1.1,1.49 l 0.06,0.39 c 0.13,0.78 -0.14,1.37 -0.62,1.32 z"
     class="cls-28" /><path
     style="fill:#dfe4e5"
     inkscape:connector-curvature="0"
     id="path232"
     d="m 1481.9972,570.9986 -2,-0.18 c -0.49,0 -1,-0.7 -1.07,-1.48 l -0.05,-0.39 c -0.1,-0.77 0.21,-1.36 0.71,-1.31 l 2,0.19 c 0.5,0 1,0.7 1,1.47 v 0.39 c 0.21,0.77 -0.11,1.36 -0.59,1.31 z"
     class="cls-27" /><path
     style="fill:#dfe4e5"
     inkscape:connector-curvature="0"
     id="path234"
     d="m 1487.0172,571.4586 -2,-0.18 c -0.48,0 -0.93,-0.7 -1,-1.47 v -0.38 c -0.07,-0.77 0.27,-1.35 0.77,-1.31 l 2,0.19 c 0.49,0.05 0.93,0.7 1,1.46 v 0.39 c 0.06,0.72 -0.29,1.34 -0.77,1.3 z"
     class="cls-27" /><path
     style="fill:#ec1c24"
     inkscape:connector-curvature="0"
     id="path236"
     d="m 1492.0372,571.8786 -2,-0.18 c -0.48,-0.05 -0.9,-0.7 -0.94,-1.46 v -0.38 c 0,-0.76 0.32,-1.34 0.82,-1.29 l 2,0.18 c 0.49,0 0.91,0.7 0.92,1.46 v 0.38 c 0.06,0.79 -0.32,1.37 -0.8,1.29 z"
     class="cls-29" /></g></svg>