<svg xmlns="http://www.w3.org/2000/svg" xmlns:xlink="http://www.w3.org/1999/xlink" viewBox="0 0 987.03 923.82"><defs><style>.cls-1{fill:#204173;}.cls-2{fill:url(#linear-gradient);}.cls-3{fill:url(#linear-gradient-2);}.cls-4{fill:url(#linear-gradient-3);}.cls-5{fill:url(#linear-gradient-4);}.cls-6{fill:url(#linear-gradient-5);}.cls-7{fill:url(#linear-gradient-6);}.cls-8{fill:url(#linear-gradient-7);}.cls-9{fill:url(#linear-gradient-8);}.cls-10{fill:url(#linear-gradient-9);}</style><linearGradient id="linear-gradient" x1="320.14" y1="415" x2="-214.21" y2="1134.49" gradientUnits="userSpaceOnUse"><stop offset="0" stop-color="#39f"/><stop offset="0.83" stop-color="#39f" stop-opacity="0"/></linearGradient><linearGradient id="linear-gradient-2" x1="345.42" y1="433.77" x2="-188.94" y2="1153.26" xlink:href="#linear-gradient"/><linearGradient id="linear-gradient-3" x1="336.08" y1="426.84" x2="-198.27" y2="1146.33" xlink:href="#linear-gradient"/><linearGradient id="linear-gradient-4" x1="305.29" y1="403.97" x2="-229.06" y2="1123.46" xlink:href="#linear-gradient"/><linearGradient id="linear-gradient-5" x1="362.32" y1="446.32" x2="-172.03" y2="1165.82" xlink:href="#linear-gradient"/><linearGradient id="linear-gradient-6" x1="417.25" y1="487.12" x2="-117.1" y2="1206.61" xlink:href="#linear-gradient"/><linearGradient id="linear-gradient-7" x1="429.99" y1="496.58" x2="-104.37" y2="1216.07" xlink:href="#linear-gradient"/><linearGradient id="linear-gradient-8" x1="370.92" y1="452.71" x2="-163.43" y2="1172.2" xlink:href="#linear-gradient"/><linearGradient id="linear-gradient-9" x1="394.03" y1="469.87" x2="-140.32" y2="1189.37" xlink:href="#linear-gradient"/></defs><g id="Layer_2" data-name="Layer 2"><g id="Layer_2-2" data-name="Layer 2"><polygon class="cls-1" points="947.77 0 238.97 923.82 0 923.82 0 0 947.77 0"/><polygon class="cls-1" points="987.03 0 278.23 923.82 261.55 923.82 970.36 0 987.03 0"/><path class="cls-2" d="M0,847v6L197,591l-1.29-28.8L209,544.43l29.83-9.17,17.74-23.6a11.28,11.28,0,1,0-2.94-2.09l-17,22.59-29.83,9.17L192,561.05l1.29,28.8ZM255.43,497a7.64,7.64,0,1,1,2.5,11.27l-1.85-1.39a7.55,7.55,0,0,1-.65-9.88Z"/><path class="cls-3" d="M290.73,507.45,203.87,623,188,623.1l-23.74,31.58,2.33,16.41-55.08,73.28L114,762.25,0,914.33v6L117.82,763.23l-2.53-17.89,55.08-73.28L168,655.65l21.77-29,15.87-.1,88-117.09a11.24,11.24,0,1,0-3-2.05Zm1.68-12.68a7.62,7.62,0,1,1-1.45,5.65A7.58,7.58,0,0,1,292.41,494.77Z"/><path class="cls-4" d="M0,889.25,95.69,762.4l.54-.72-1.41-8.76,30.65-40.79a6.56,6.56,0,1,0-2.81-2.26L90.85,752.15l1.42,8.79L0,883.27Z"/><path class="cls-5" d="M0,812.5v6l43.93-60a6.56,6.56,0,1,0-2.81-2.26Z"/><path class="cls-6" d="M131.48,763.21,11.18,923.82h4.51L134.9,764.67l.53-.72L134,755.18l12.36-16.6a6.55,6.55,0,1,0-2.82-2.26l-13.5,18.1Z"/><path class="cls-7" d="M338.87,610.51a6.52,6.52,0,0,0-9.24,9L295,665.58l-17.89,2.54L222,741.39l-16.41,2.33L181.87,775.3l4.31,15.28L87.61,923.82h4.52L189.6,792l.54-.71L185.82,776l21.77-29L224,744.75l55.08-73.27L297,668.94l35.48-47.19a6.52,6.52,0,0,0,6.42-11.24Z"/><path class="cls-8" d="M108.82,923.82h4.53l75.29-99.62a6.56,6.56,0,1,0-2.81-2.26Z"/><path class="cls-9" d="M202.15,697,32.36,923.82h4.51L206.11,697.76,201,679.6l21-28a11.22,11.22,0,1,0-3.64-16.6,11.24,11.24,0,0,0,.79,14.4L197,678.86Zm19.07-59.82a7.62,7.62,0,1,1,1.51,10.67A7.58,7.58,0,0,1,221.22,637.2Z"/><path class="cls-10" d="M58,923.82h4.42L218.84,715.67l-1.26-28.21,13.08-17.4,29.22-9L277.27,638a11.08,11.08,0,1,0-2.88-2.05L257.74,658l-29.22,9L214,686.35l1.26,28.21ZM276.13,623.59a7.47,7.47,0,1,1,7,11.87,7.35,7.35,0,0,1-4.56-.83l-1.81-1.36a7.41,7.41,0,0,1-.65-9.68Z"/></g></g></svg>