<?xml version="1.0" encoding="utf-8"?>
<!-- Generator: Adobe Illustrator 24.3.0, SVG Export Plug-In . SVG Version: 6.00 Build 0)  -->
<svg version="1.1" id="Layer_1" xmlns="http://www.w3.org/2000/svg" xmlns:xlink="http://www.w3.org/1999/xlink" x="0px" y="0px"
	 viewBox="0 0 216.2 219.3" style="enable-background:new 0 0 216.2 219.3;" xml:space="preserve">
<style type="text/css">
	.st0{fill:#FFFFFF;}
</style>
<g>
	<g>
		<g>
			<path class="st0" d="M108.5,218c-4.9,0-9.6-1.3-13.8-3.7l-69.4-40c-8.5-4.9-13.8-14.1-13.8-23.9v-80c0-9.8,5.3-19,13.8-23.9
				l69.4-40c8.5-4.9,19.1-4.9,27.6,0l69.4,40c8.5,4.9,13.8,14.1,13.8,23.9v80c0,9.8-5.3,19-13.8,23.9l-69.4,40
				C118.1,216.7,113.3,218,108.5,218z M108.5,18.6c-1.2,0-2.3,0.3-3.3,0.9L31.4,62.1c-2.1,1.2-3.4,3.4-3.4,5.8V153
				c0,2.4,1.3,4.6,3.4,5.8l73.7,42.5c2,1.2,4.7,1.2,6.7,0l73.7-42.5c2.1-1.2,3.4-3.4,3.4-5.8V67.9c0-2.4-1.3-4.6-3.3-5.8l-73.8-42.5
				C110.8,18.9,109.7,18.6,108.5,18.6z"/>
		</g>
	</g>
</g>
<g>
	<g>
		<g>
			<path class="st0" d="M108.5,180.9c-3.2,0-6.3-0.8-9.1-2.4L54,152.3c-5.6-3.3-9-9.3-9-15.7V84.2c0-6.4,3.5-12.4,9-15.7l45.4-26.2
				c5.6-3.2,12.5-3.2,18.1,0L163,68.5c5.6,3.2,9.1,9.2,9.1,15.7v52.4c0,6.4-3.5,12.4-9,15.7l-45.4,26.2
				C114.8,180.1,111.7,180.9,108.5,180.9z M108.5,52.4c-0.7,0-1.5,0.2-2.1,0.6L59.8,79.9c-1.3,0.8-2.1,2.2-2.1,3.7v53.7
				c0,1.5,0.8,2.9,2.1,3.7l46.6,26.9c1.3,0.7,3,0.7,4.2,0l46.6-26.9c1.3-0.8,2.1-2.2,2.1-3.7V83.5c0-1.5-0.8-2.9-2.1-3.7L110.6,53
				C110,52.6,109.2,52.4,108.5,52.4z"/>
		</g>
	</g>
</g>
</svg>
